<?xml version="1.0" encoding="utf-8"?>
<!-- Generator: Adobe Illustrator 19.0.0, SVG Export Plug-In . SVG Version: 6.00 Build 0)  -->
<svg version="1.1" id="Layer_1" xmlns="http://www.w3.org/2000/svg" xmlns:xlink="http://www.w3.org/1999/xlink" x="0px" y="0px"
	 viewBox="0 0 24 24" style="enable-background:new 0 0 24 24;" xml:space="preserve">
<style type="text/css">
	.st0{fill:#676767;}
</style>
<path id="XMLID_5692_" class="st0" d="M6,1.6C7.8,0.5,9.8,0,12,0c2.2,0,4.2,0.5,6,1.6c1.8,1.1,3.3,2.5,4.4,4.4
	c1.1,1.8,1.6,3.8,1.6,6s-0.5,4.2-1.6,6c-1.1,1.8-2.5,3.3-4.4,4.4c-1.8,1.1-3.8,1.6-6,1.6c-2.2,0-4.2-0.5-6-1.6
	c-1.8-1.1-3.3-2.5-4.4-4.4S0,14.2,0,12s0.5-4.2,1.6-6C2.7,4.1,4.1,2.7,6,1.6z M17.9,6.1c-1.6-1.6-3.6-2.4-5.9-2.4
	c-2.3,0-4.3,0.8-5.9,2.4C4.5,7.7,3.7,9.7,3.7,12s0.8,4.3,2.4,5.9c1.6,1.6,3.6,2.4,5.9,2.4c2.3,0,4.3-0.8,5.9-2.4
	c1.6-1.6,2.4-3.6,2.4-5.9S19.5,7.7,17.9,6.1z M12,12h4v2h-6V6h2V12z"/>
</svg>
