<?xml version="1.0" encoding="utf-8"?>
<!-- Generator: Adobe Illustrator 19.0.0, SVG Export Plug-In . SVG Version: 6.00 Build 0)  -->
<svg version="1.1" id="Layer_1" xmlns="http://www.w3.org/2000/svg" xmlns:xlink="http://www.w3.org/1999/xlink" x="0px" y="0px"
	 viewBox="0 0 32 32" style="enable-background:new 0 0 32 32;" xml:space="preserve">
<style type="text/css">
	.st0{fill:#676767;}
</style>
<path id="XMLID_1003_" class="st0" d="M6.9,2.1C6,2.2,5.2,3,5.2,4c0,1,0.8,1.9,1.9,1.9S8.9,5,8.9,4c0-1-0.8-1.8-1.8-1.8
	C7,2.1,7,2.1,6.9,2.1z M24.7,2.1C23.8,2.2,23.1,3,23.1,4c0,1,0.8,1.9,1.9,1.9S26.8,5,26.8,4c0-1-0.8-1.8-1.8-1.8
	C24.9,2.1,24.8,2.1,24.7,2.1z M16,2.3c-1.3,0-2.3,1-2.3,2.3s1,2.3,2.3,2.3s2.3-1,2.3-2.3S17.3,2.3,16,2.3z M3.8,6.2
	c-0.2,0-0.3,0.2-0.3,0.3v8.3c0,0.2,0.1,0.3,0.3,0.3h0.6v6.2c0,0.2,0.1,0.3,0.3,0.3h1.8c0.2,0,0.3-0.1,0.3-0.3l0.2-1.8l0.2,1.8
	c0,0.2,0.2,0.3,0.3,0.3h1.8c0.2,0,0.3-0.1,0.3-0.3v-6.2h0c0-0.3,0.1-0.6,0.2-0.9c0.2-0.8,0.5-1.5,0.7-2.2V6.5c0-0.2-0.1-0.3-0.3-0.3
	c0,0,0,0,0,0H3.8C3.8,6.2,3.8,6.2,3.8,6.2z M21.6,6.2c-0.2,0-0.3,0.2-0.3,0.3V12c0.1,0.3,0.2,0.6,0.3,0.9c0.2,0.7,0.6,1.4,0.7,2.2
	c0,0,0,0.1,0,0.1v6.2c0,0.2,0.1,0.3,0.3,0.3h1.8c0.2,0,0.3-0.1,0.3-0.3l0.2-1.8l0.2,1.8c0,0.2,0.2,0.3,0.3,0.3h1.8
	c0.2,0,0.3-0.1,0.3-0.3v-6.2h0.6c0.2,0,0.3-0.1,0.3-0.3c0,0,0,0,0,0V6.5c0-0.2-0.1-0.3-0.3-0.3c0,0,0,0,0,0H21.6
	C21.7,6.2,21.7,6.2,21.6,6.2z M16,7.2c-1.2,0-2.4,0.3-3.1,0.9c-0.3,0.2-0.4,0.5-0.5,0.8c0,0,0,0,0,0l-1.9,6
	c-0.1,0.3,0.1,0.7,0.4,0.8l0.4,0.1c0.3,0.1,0.7-0.1,0.8-0.4l1.6-5c0.1,0,0.1,0,0.2,0.1c0,0-1.3,5.1-2.1,7.9c0,0.3,0.2,0.6,0.5,0.6
	h1.2h0.4v7c0,0.4,0.3,0.7,0.7,0.7H15c0.4,0,0.7-0.3,0.7-0.7v-7H16h0.3v7c0,0.4,0.3,0.7,0.7,0.7h0.4c0.4,0,0.7-0.3,0.7-0.7v-7h0.4
	h1.2c0.3,0,0.6-0.3,0.6-0.6c-0.7-2.7-1.4-5.4-2.1-7.9c0.1,0,0.1,0,0.2-0.1l1.6,5c0.1,0.3,0.5,0.5,0.8,0.4l0.4-0.1
	c0.3-0.1,0.5-0.5,0.4-0.8l-2-6c-0.1-0.6-0.7-1.1-1.8-1.4C17.3,7.3,16.6,7.2,16,7.2z M2.6,13.5C1,15.1,0,17,0,19.1
	c0,2.9,1.9,5.5,4.8,7.3c2.9,1.8,6.8,2.9,11.2,2.9s8.3-1.1,11.2-2.9c2.9-1.8,4.8-4.4,4.8-7.3c0-2.1-1-4-2.6-5.6v2.6
	c0.6,0.9,0.9,1.9,0.9,2.9c0,2.2-1.5,4.3-4,5.9c-2.6,1.6-6.2,2.6-10.3,2.6c-4,0-7.7-1-10.3-2.6c-2.6-1.6-4-3.7-4-5.9
	c0-1,0.3-2,0.9-2.9V13.5z"/>
</svg>
