<?xml version="1.0" encoding="utf-8"?>
<!-- Generator: Adobe Illustrator 19.0.0, SVG Export Plug-In . SVG Version: 6.00 Build 0)  -->
<svg version="1.1" id="Layer_1" xmlns="http://www.w3.org/2000/svg" xmlns:xlink="http://www.w3.org/1999/xlink" x="0px" y="0px"
	 viewBox="0 0 16 16" style="enable-background:new 0 0 16 16;" xml:space="preserve">
<style type="text/css">
	.st0{fill:#939DAC;}
	.st1{fill-rule:evenodd;clip-rule:evenodd;fill:#939DAC;}
</style>
<g id="XMLID_1074_">
	<g id="XMLID_1149_">
		<path id="XMLID_1150_" class="st0" d="M14.2,15.4H1.8c-1,0-1.8-0.8-1.8-1.8V2.5c0-1,0.8-1.8,1.8-1.8h12.3c1,0,1.8,0.8,1.8,1.8
			v11.1C16,14.6,15.2,15.4,14.2,15.4z M1.8,1.8c-0.3,0-0.6,0.3-0.6,0.6v11.1c0,0.3,0.3,0.6,0.6,0.6h12.3c0.3,0,0.6-0.3,0.6-0.6V2.5
			c0-0.3-0.3-0.6-0.6-0.6H1.8z"/>
	</g>
	<g id="XMLID_1075_">
		<g id="XMLID_63_">
			<path id="XMLID_64_" class="st1" d="M4.3,3.7h1.2V0H4.3V3.7z M11.7,0h-1.2v3.7h1.2V0z M3.1,11.1h2.5V8.6H3.1V11.1z M6.8,11.1h2.5
				V8.6H6.8V11.1z M10.5,11.1h2.5V8.6h-2.5V11.1z M10.5,4.9v2.5h2.5V4.9H10.5z M6.8,7.4h2.5V4.9H6.8V7.4z M3.1,7.4h2.5V4.9H3.1V7.4z
				"/>
		</g>
	</g>
</g>
</svg>
