<?xml version="1.0" encoding="utf-8"?>
<!-- Generator: Adobe Illustrator 19.0.0, SVG Export Plug-In . SVG Version: 6.00 Build 0)  -->
<svg version="1.1" id="Layer_1" xmlns="http://www.w3.org/2000/svg" xmlns:xlink="http://www.w3.org/1999/xlink" x="0px" y="0px"
	 viewBox="0 0 32 32" style="enable-background:new 0 0 32 32;" xml:space="preserve">
<style type="text/css">
	.st0{fill:#676767;}
	.st1{fill-rule:evenodd;clip-rule:evenodd;fill:#676767;}
</style>
<g id="XMLID_1445_">
	<path id="XMLID_1460_" class="st0" d="M28.6,0H3.4C1.5,0,0,1.5,0,3.4V24c0,1.9,1.5,3.4,3.4,3.4h25.1c1.9,0,3.4-1.5,3.4-3.4V3.4
		C32,1.5,30.5,0,28.6,0z M29.7,24c0,0.6-0.5,1.1-1.1,1.1H3.4c-0.6,0-1.1-0.5-1.1-1.1V3.4c0-0.6,0.5-1.1,1.1-1.1h25.1
		c0.6,0,1.1,0.5,1.1,1.1V24z"/>
	<g id="XMLID_1446_">
		<g id="XMLID_30_">
			<path id="XMLID_31_" class="st1" d="M17.1,27.4h-2.3v2.3H8V32h16v-2.3h-6.9V27.4z M2.3,22.9v2.3h27.4v-2.3H2.3z"/>
		</g>
	</g>
</g>
</svg>
