<?xml version="1.0" encoding="UTF-8" standalone="no"?>
<svg width="13px" height="14px" viewBox="0 0 13 14" version="1.1" xmlns="http://www.w3.org/2000/svg" xmlns:xlink="http://www.w3.org/1999/xlink" xmlns:sketch="http://www.bohemiancoding.com/sketch/ns">
    <!-- Generator: Sketch 3.3.3 (12081) - http://www.bohemiancoding.com/sketch -->
    <title>Imported Layers Copy</title>
    <desc>Created with Sketch.</desc>
    <defs></defs>
    <g id="Page-1" stroke="none" stroke-width="1" fill="none" fill-rule="evenodd" sketch:type="MSPage">
        <g id="16x16-copy" sketch:type="MSArtboardGroup" transform="translate(-2.000000, 0.000000)" fill="#0978C9">
            <path d="M14.562,1.707 L13.148,0.293 C12.953,0.098 12.697,0 12.441,0 C12.185,0 11.929,0.098 11.734,0.293 L2,10.155 L2,13.034 L4.848,13.038 L14.562,3.121 C14.953,2.731 14.953,2.097 14.562,1.707 L14.562,1.707 Z M11.286,5.037 L4.966,11.488 L4.966,10.037 L3.521,10.037 L9.966,3.507 L9.966,4.037 L10.966,4.037 L10.966,5.037 L11.286,5.037 L11.286,5.037 Z M11.966,4.342 L11.966,3.037 L10.429,3.037 L12.44,1 L12.441,1 L13.848,2.422 L11.966,4.342 L11.966,4.342 Z" id="Imported-Layers-Copy" sketch:type="MSShapeGroup"></path>
        </g>
    </g>
</svg>