<?xml version="1.0" encoding="utf-8"?>
<!-- Generator: Adobe Illustrator 19.0.0, SVG Export Plug-In . SVG Version: 6.00 Build 0)  -->
<svg version="1.1" id="Layer_1" xmlns="http://www.w3.org/2000/svg" xmlns:xlink="http://www.w3.org/1999/xlink" x="0px" y="0px"
	 viewBox="0 0 32 32" style="enable-background:new 0 0 32 32;" xml:space="preserve">
<style type="text/css">
	.st0{fill:#676767;}
</style>
<g id="XMLID_4042_">
	<path id="XMLID_4089_" class="st0" d="M31.8,14.6C28.4,9.2,22.6,5.5,16,5.5c-6.6,0-12.4,3.6-15.8,9.1c-0.3,0.4-0.3,1,0,1.4
		c3.4,5.5,9.2,9.1,15.8,9.1c6.6,0,12.4-3.6,15.8-9.1C32.1,15.6,32.1,15,31.8,14.6z M16,22.5c-5.3,0-10.1-2.8-13.1-7.2
		c3-4.4,7.8-7.2,13.1-7.2c5.3,0,10.1,2.8,13.1,7.2C26.1,19.7,21.3,22.5,16,22.5z"/>
	<path id="XMLID_4088_" class="st0" d="M16,15.1l1.6-1.9c-0.5-0.4-1-0.6-1.7-0.6c-1.5,0-2.7,1.2-2.7,2.7S14.5,18,16,18
		c1.5,0,2.7-1.2,2.7-2.7c0-0.4-0.1-0.9-0.3-1.2L16,15.1z"/>
	<path id="XMLID_4043_" class="st0" d="M19.5,13.5c0.3,0.5,0.4,1.1,0.4,1.7c0,2.2-1.8,3.9-3.9,3.9c-2.2,0-3.9-1.8-3.9-3.9
		c0-2.2,1.8-3.9,3.9-3.9c0.9,0,1.8,0.3,2.5,0.9l1.3-1.5c-1-0.8-2.3-1.3-3.7-1.3c-3.3,0-5.9,2.6-5.9,5.9c0,3.3,2.6,5.9,5.9,5.9
		c3.3,0,5.9-2.6,5.9-5.9c0-0.9-0.2-1.8-0.6-2.6L19.5,13.5z"/>
</g>
</svg>
