<?xml version="1.0" encoding="utf-8"?>
<!-- Generator: Adobe Illustrator 19.0.0, SVG Export Plug-In . SVG Version: 6.00 Build 0)  -->
<svg version="1.1" id="Layer_1" xmlns="http://www.w3.org/2000/svg" xmlns:xlink="http://www.w3.org/1999/xlink" x="0px" y="0px"
	 viewBox="0 0 24 24" style="enable-background:new 0 0 24 24;" xml:space="preserve">
<style type="text/css">
	.st0{fill:#676767;}
</style>
<g id="XMLID_1_">
	<path id="XMLID_5698_" class="st0" d="M16,6.8h7.2c0.2,0,0.4,0.1,0.5,0.2c0.1,0.1,0.2,0.3,0.2,0.5v4.3c0,0.2-0.1,0.4-0.2,0.5
		c-0.1,0.1-0.3,0.2-0.5,0.2h-4.3l-2.2,2.1v-2.1H16c-0.2,0-0.4-0.1-0.5-0.2c-0.1-0.1-0.2-0.3-0.2-0.5V7.5c0-0.2,0.1-0.4,0.2-0.5
		C15.7,6.9,15.8,6.8,16,6.8z"/>
	<path id="XMLID_5690_" class="st0" d="M18.2,18.9v2.2H-0.1v-2.2L6,15v-1.5c-0.4,0-0.7-0.4-1-1.1c-0.3-0.8-0.5-1.4-0.5-1.9V7.4
		c0-1.3,0.4-2.3,1.3-3.2c0.9-0.9,2-1.3,3.2-1.3c1.3,0,2.3,0.4,3.2,1.3c0.9,0.9,1.3,2,1.3,3.2v3.1c0,0.5-0.2,1.2-0.5,1.9
		c-0.3,0.8-0.7,1.1-1,1.1V15L18.2,18.9z"/>
</g>
</svg>
