<?xml version="1.0" encoding="utf-8"?>
<!-- Generator: Adobe Illustrator 19.0.0, SVG Export Plug-In . SVG Version: 6.00 Build 0)  -->
<svg version="1.1" id="Layer_1" xmlns="http://www.w3.org/2000/svg" xmlns:xlink="http://www.w3.org/1999/xlink" x="0px" y="0px"
	 viewBox="0 0 32 32" style="enable-background:new 0 0 32 32;" xml:space="preserve">
<style type="text/css">
	.st0{fill:#676767;}
</style>
<g id="XMLID_988_">
	<path id="XMLID_990_" class="st0" d="M16,0C7.2,0,0.1,7.1,0,15.9c0,4.3,1.6,8.3,4.6,11.3c3,3.1,7,4.7,11.3,4.8H16
		c8.8,0,15.9-7.1,16-15.9C32.1,7.3,24.9,0.1,16,0z M16,29.8h-0.1c-3.7,0-7.1-1.5-9.8-4.1c-2.6-2.6-4-6.1-3.9-9.8
		c0-7.6,6.3-13.8,13.9-13.8c7.6,0,13.8,6.3,13.8,13.9C29.8,23.7,23.6,29.8,16,29.8z"/>
	<path id="XMLID_989_" class="st0" d="M22.6,13.2c0-3-2.4-5.4-5.4-5.4h-5.5c-0.6,0-1,0.5-1,1v14.6c0,0.6,0.5,1,1,1s1-0.5,1-1V9.9
		h4.5c1.8,0,3.3,1.5,3.3,3.3s-1.5,3.3-3.3,3.3H16c-0.4,0-0.8,0.2-1,0.6c-0.2,0.4-0.1,0.8,0.2,1.1l5.4,5.8c0.4,0.4,1,0.4,1.5,0.1
		c0.4-0.4,0.4-1,0.1-1.5l-3.9-4.2C20.8,18,22.6,15.9,22.6,13.2z"/>
</g>
</svg>
