<?xml version="1.0" encoding="utf-8"?>
<!-- Generator: Adobe Illustrator 19.0.0, SVG Export Plug-In . SVG Version: 6.00 Build 0)  -->
<svg version="1.1" id="Layer_1" xmlns="http://www.w3.org/2000/svg" xmlns:xlink="http://www.w3.org/1999/xlink" x="0px" y="0px"
	 viewBox="0 0 32 32" style="enable-background:new 0 0 32 32;" xml:space="preserve">
<style type="text/css">
	.st0{fill:#676767;}
</style>
<path id="XMLID_1374_" class="st0" d="M26.5,0H4.9C4,0,3.2,0.8,3.2,1.7v28.5c0,1,0.8,1.7,1.7,1.7h21.5c1,0,1.7-0.8,1.7-1.7V1.7
	C28.2,0.8,27.5,0,26.5,0z M15.7,1C15.9,1,16,1.1,16,1.3c0,0.1-0.1,0.3-0.3,0.3c-0.1,0-0.3-0.1-0.3-0.3C15.5,1.1,15.6,1,15.7,1z
	 M15.7,31.5c-0.4,0-0.7-0.3-0.7-0.7c0-0.4,0.3-0.7,0.7-0.7s0.7,0.3,0.7,0.7C16.4,31.2,16.1,31.5,15.7,31.5z M26.2,29.4
	C26.2,29.5,26.2,29.5,26.2,29.4L5.3,29.5c0,0-0.1,0-0.1-0.1V2.3c0,0,0-0.1,0.1-0.1h20.9c0,0,0.1,0,0.1,0.1V29.4z"/>
</svg>
