<?xml version="1.0" encoding="utf-8"?>
<!-- Generator: Adobe Illustrator 19.0.0, SVG Export Plug-In . SVG Version: 6.00 Build 0)  -->
<svg version="1.1" id="Layer_1" xmlns="http://www.w3.org/2000/svg" xmlns:xlink="http://www.w3.org/1999/xlink" x="0px" y="0px"
	 viewBox="0 0 32 32" style="enable-background:new 0 0 32 32;" xml:space="preserve">
<style type="text/css">
	.st0{fill:#676767;}
</style>
<g id="XMLID_1227_">
	<path id="XMLID_1243_" class="st0" d="M32,0v32H0V0H32z M5.3,2.9H2.7v2.9h2.7V2.9z M5.3,8.7H2.7v2.9h2.7V8.7z M5.3,14.6H2.7v2.9
		h2.7V14.6z M5.3,20.4H2.7v2.9h2.7V20.4z M5.3,26.2H2.7v2.9h2.7V26.2z M24,2.9H8v11.7h16V2.9z M24,17.5H8v11.7h16V17.5z M29.3,2.9
		h-2.7v2.9h2.7V2.9z M29.3,8.7h-2.7v2.9h2.7V8.7z M29.3,14.6h-2.7v2.9h2.7V14.6z M29.3,20.4h-2.7v2.9h2.7V20.4z M29.3,26.2h-2.7v2.9
		h2.7V26.2z"/>
</g>
</svg>
