<?xml version="1.0" encoding="utf-8"?>
<!-- Generator: Adobe Illustrator 19.0.0, SVG Export Plug-In . SVG Version: 6.00 Build 0)  -->
<svg version="1.1" id="Layer_1" xmlns="http://www.w3.org/2000/svg" xmlns:xlink="http://www.w3.org/1999/xlink" x="0px" y="0px"
	 viewBox="0 0 32 32" style="enable-background:new 0 0 32 32;" xml:space="preserve">
<style type="text/css">
	.st0{fill:#676767;}
</style>
<path id="XMLID_897_" class="st0" d="M32,1.4v29.2c0,0.1-0.1,0.5-0.4,1c-0.2,0.3-0.5,0.4-0.9,0.4H1.3c-0.1,0-0.4-0.1-0.9-0.4
	C0.1,31.3,0,31,0,30.6V1.4c0-0.1,0.1-0.5,0.4-1C0.6,0.1,0.9,0,1.3,0h29.5c0.1,0,0.4,0.1,0.9,0.4C31.9,0.9,32,1.3,32,1.4 M29.3,3.2
	H2.9v21.3l6.5-5.2l7.8,3.8l-2-4.6l7.8-9.1l6.2,8.3L29.3,3.2 M11.8,7.6c0.7,0.8,1.1,1.7,1.1,2.8c0,1.1-0.4,2-1.1,2.8
	c-0.7,0.8-1.6,1.2-2.5,1.2c-1,0-1.8-0.4-2.5-1.2c-0.7-0.8-1.1-1.7-1.1-2.8s0.4-2,1.1-2.8c0.7-0.8,1.6-1.2,2.5-1.2
	C10.2,6.4,11.1,6.8,11.8,7.6"/>
</svg>
