<?xml version="1.0" encoding="UTF-8" standalone="no"?>
<svg width="13px" height="13px" viewBox="0 0 13 13" version="1.1" xmlns="http://www.w3.org/2000/svg" xmlns:xlink="http://www.w3.org/1999/xlink" xmlns:sketch="http://www.bohemiancoding.com/sketch/ns">
    <!-- Generator: Sketch 3.3.3 (12081) - http://www.bohemiancoding.com/sketch -->
    <title>Target</title>
    <desc>Created with Sketch.</desc>
    <defs></defs>
    <g id="Page-1" stroke="none" stroke-width="1" fill="none" fill-rule="evenodd" sketch:type="MSPage">
        <g id="Artboard-1" sketch:type="MSArtboardGroup" transform="translate(-1.000000, -1.000000)" fill="#0978C9">
            <path d="M11.97,7 C11.74,5 10,3.26 8,3.03 L8,1 L7,1 L7,3.03 C5,3.26 3.26,5 3.03,7 L1,7 L1,8 L3.03,8 C3.26,10 5,11.75 7,11.98 L7,14 L8,14 L8,11.98 C10,11.75 11.74,10 11.97,8 L14,8 L14,7 L11.97,7 L11.97,7 Z M8,10.03 L8,9 L7,9 L7,10.03 C6,9.82 5.18,9 4.98,8 L6,8 L6,7 L4.98,7 C5.18,6 6,5.18 7,4.97 L7,6 L8,6 L8,4.97 C9,5.18 9.82,6 10.02,7 L9,7 L9,8 L10.02,8 C9.82,9 9,9.82 8,10.03 L8,10.03 Z" id="Target" sketch:type="MSShapeGroup"></path>
        </g>
    </g>
</svg>