<?xml version="1.0" encoding="UTF-8" standalone="no"?>
<svg width="26px" height="26px" viewBox="0 0 26 26" version="1.1" xmlns="http://www.w3.org/2000/svg" xmlns:xlink="http://www.w3.org/1999/xlink" xmlns:sketch="http://www.bohemiancoding.com/sketch/ns">
    <!-- Generator: Sketch 3.3.3 (12081) - http://www.bohemiancoding.com/sketch -->
    <title>Arrow back</title>
    <desc>Created with Sketch.</desc>
    <defs></defs>
    <g id="Page-1" stroke="none" stroke-width="1" fill="none" fill-rule="evenodd" sketch:type="MSPage">
        <g id="Artboard-1-Copy-2" sketch:type="MSArtboardGroup" transform="translate(0.000000, -1.000000)">
            <g id="Arrow-back" sketch:type="MSLayerGroup" transform="translate(0.000000, 1.000000)">
                <path d="M13.003,1 C19.622,1 25.007,6.383 25.007,13 C25.007,19.617 19.622,25 13.003,25 C6.385,25 1,19.617 1,13 C1,6.383 6.385,1 13.003,1 M13.003,0 C5.822,0 0,5.82 0,13 C0,20.18 5.822,26 13.003,26 C20.185,26 26.007,20.18 26.007,13 C26.007,5.82 20.185,0 13.003,0" id="Fill-1" fill="#0878C9" sketch:type="MSShapeGroup"></path>
                <path d="M15.187,8.278 L10.264,12.92 L15.187,17.56" id="Stroke-2" stroke="#0878C9" stroke-linecap="round" sketch:type="MSShapeGroup"></path>
            </g>
        </g>
    </g>
</svg>