<?xml version="1.0" encoding="UTF-8" standalone="no"?>
<svg width="16px" height="16px" viewBox="0 0 16 16" version="1.1" xmlns="http://www.w3.org/2000/svg" xmlns:xlink="http://www.w3.org/1999/xlink" xmlns:sketch="http://www.bohemiancoding.com/sketch/ns">
    <!-- Generator: Sketch 3.3.3 (12081) - http://www.bohemiancoding.com/sketch -->
    <title>16x16</title>
    <desc>Created with Sketch.</desc>
    <defs></defs>
    <g id="Page-1" stroke="none" stroke-width="1" fill="none" fill-rule="evenodd" sketch:type="MSPage">
        <g id="16x16" sketch:type="MSArtboardGroup" fill="#0978C9">
            <g id="Trash-Icon" sketch:type="MSLayerGroup" transform="translate(2.000000, 1.000000)">
                <path d="M7.996,4.011 L7.996,9.971 L7.013,10.004 L7.013,8 L7.013,4.011" id="Fill-1" sketch:type="MSShapeGroup"></path>
                <path d="M5.996,4.01 L5.996,8.976 L4.988,9.004 L4.988,4.01" id="Fill-2" sketch:type="MSShapeGroup"></path>
                <path d="M3.971,4.011 L3.971,9.971 L2.988,10.004 L2.988,4.011 L3.971,4.011 Z" id="Fill-3" sketch:type="MSShapeGroup"></path>
                <path d="M8.983,3.997 L8.983,11.818 C8.983,11.912 8.968,11.963 8.974,11.963 C8.95,11.98 8.868,12.001 8.824,12.002 L8.792,12 L2.239,12 C2.121,12 2.048,11.987 2.007,11.976 L2.017,11.946 L2.017,3.997 L8.983,3.997 M9.983,2.997 L1.017,2.997 L1.017,11.818 C1.017,11.818 0.809,13 2.239,13 L8.761,13 C8.761,13 8.775,13.001 8.802,13.001 C9.014,13.001 9.983,12.939 9.983,11.818 L9.983,2.997" id="Fill-4" sketch:type="MSShapeGroup"></path>
                <path d="M3,0 L8,0 L8,1 L3,1 L3,0 Z" id="Fill-5" sketch:type="MSShapeGroup"></path>
                <path d="M1.031,2 L9.952,2 C10.504,2 10.952,2.448 10.952,3 C10.952,3.552 10.504,4 9.952,4 L1.031,4 C0.479,4 0.031,3.552 0.031,3 C0.031,2.448 0.479,2 1.031,2" id="Fill-6" sketch:type="MSShapeGroup"></path>
            </g>
        </g>
    </g>
</svg>