<?xml version="1.0" encoding="utf-8"?>
<!-- Generator: Adobe Illustrator 19.0.0, SVG Export Plug-In . SVG Version: 6.00 Build 0)  -->
<svg version="1.1" id="Layer_1" xmlns="http://www.w3.org/2000/svg" xmlns:xlink="http://www.w3.org/1999/xlink" x="0px" y="0px"
	 viewBox="0 0 32 32" style="enable-background:new 0 0 32 32;" xml:space="preserve">
<style type="text/css">
	.st0{fill:#676767;}
</style>
<g id="XMLID_3016_">
	<g id="XMLID_3966_">
		<path id="XMLID_3971_" class="st0" d="M14.5,21.1l2.1,0.8V27c1.5,0,3.3-1.3,3.3-3.1c0-1.7-1.1-2.7-5.4-4.5
			c-5.1-2.4-7.4-4.7-7.4-8.6c0.1-4.4,3.4-7.6,7.4-8.2V0h2.1v2.5c3.1,0.1,7.5,1.7,7.5,5.5c0,1.9-1.5,2.9-3.2,2.9
			c-1.6,0-2.9-1.2-2.9-2.7s1-2.2,1-2.7c0-0.7-2-1-2.4-1v5.2l-2.1-0.9V4.6c-1.2,0.3-2.3,1.4-2.1,2.8c0.2,2,2.5,3.3,4.1,4l2.9,1.3
			c3.7,1.7,5.7,3.8,5.7,8c0,5-4,8.1-8.6,8.3V32h-2.1v-2.9c-3.2-0.1-8.1-1.9-8.1-5.9c0-2,1.4-3.4,3.4-3.4c1.8,0,3.1,1.5,3.1,3.2
			c0,2.1-1.9,2.5-1.9,2.8c0,0.7,2.9,1.5,3.5,1.2L14.5,21.1L14.5,21.1z"/>
	</g>
</g>
</svg>
