<?xml version="1.0" encoding="utf-8"?>
<!-- Generator: Adobe Illustrator 19.0.0, SVG Export Plug-In . SVG Version: 6.00 Build 0)  -->
<svg version="1.1" id="Layer_1" xmlns="http://www.w3.org/2000/svg" xmlns:xlink="http://www.w3.org/1999/xlink" x="0px" y="0px"
	 viewBox="0 0 24 24" style="enable-background:new 0 0 24 24;" xml:space="preserve">
<style type="text/css">
	.st0{fill:#676767;}
</style>
<path id="XMLID_5700_" class="st0" d="M22.8,0v24h-22V0H22.8z M20.8,4h-18v18h18V4z M6.8,6h-2v2h2V6z M6.8,10h-2v2h2V10z M6.8,14h-2
	v2h2V14z M6.8,18h-2v2h2V18z M18.8,6h-10v2h10V6z M18.8,10h-10v2h10V10z M18.8,14h-10v2h10V14z M18.8,20h-10v-2h10V20z"/>
</svg>
