<svg xmlns="http://www.w3.org/2000/svg" width="942.4" height="134.5" viewBox="9 212.2 942.4 134.5"><g fill="#FFF"><path d="M793.5 309.1c0 1.3-.2 2.5-.5 3.6-.4 1.1-.7 2-1.3 2.9-.5.7-1.3 1.4-2.2 1.8-.9.4-1.8.7-2.9.7s-2.2-.2-3.1-.5c-.9-.4-1.6-1.1-2.2-1.8l-.2 2h-2.7v-25h3.1v9.4c.5-.7 1.3-1.3 2.2-1.6.9-.4 1.8-.5 2.9-.5s2.2.2 2.9.7c.9.4 1.6 1.1 2.2 1.8.5.7 1.1 1.8 1.3 2.9.4 1.1.5 2.3.5 3.6zm-2.9-.4c0-.9 0-1.8-.2-2.5s-.4-1.4-.7-2c-.4-.5-.9-1.1-1.4-1.4-.5-.4-1.3-.5-2.2-.5-.5 0-1.1 0-1.4.2-.4.2-.9.4-1.3.5-.4.2-.7.5-.9.9-.2.4-.5.7-.7 1.1v7.6c.2.4.4.7.7 1.1.2.4.5.7.9.9.4.2.7.4 1.3.5.4.2.9.2 1.4.2.9 0 1.4-.2 2.2-.5.5-.4 1.1-.7 1.4-1.4.4-.5.7-1.3.9-2 .2-.7.2-1.6.2-2.5h-.2zM802.7 313.2l4.1-13.3h3.2l-7.2 20.5c-.2.4-.4.9-.7 1.4-.2.5-.5.9-1.1 1.4-.4.4-.9.9-1.4 1.1-.5.4-1.3.4-2.2.4H795.6v-2.5h.8c.5 0 .9 0 1.4-.2.4-.2.7-.2 1.1-.5.4-.2.5-.5.7-.9.2-.4.4-.9.5-1.4l.7-1.8-6.3-17.5h3.2l5 13.3z"/><g><path d="M866.2 318.4c-6.8 0-10.4-5.4-10.4-10.3 0-5.8 4.7-10.4 11.2-10.4 6.3 0 10.3 5 10.3 10.3-.1 5-4.1 10.4-11.1 10.4zm5.4-3.6c1.1-1.4 1.3-3.1 1.3-4.7 0-3.8-1.8-11-7.2-11-1.4 0-2.9.5-4 1.4-1.6 1.4-2 3.4-2 5.2 0 4.3 2.2 11.2 7.4 11.2 1.8.3 3.4-.6 4.5-2.1zM946 316.3c-3.8 0-7.4-2.7-8.6-7.7l13.3-5.4c-.7-2.5-2.7-5.4-7.9-5.4-4.3 0-9.5 3.2-9.5 9.9 0 5.2 3.6 10.8 10.3 10.8 1.4 0 3.6 0 5.8-1.6.9-.5 1.6-1.3 2.2-2.2-1.9.7-3.5 1.6-5.6 1.6zm-4.2-17.1c2.3 0 4.3 2 4.3 3.6 0 .5-.4.9-1.3 1.1l-7.9 3.2c-1.2-6.3 3.1-7.9 4.9-7.9zM889.8 318.4c-6.8 0-10.4-5.4-10.4-10.3 0-5.8 4.7-10.4 11.2-10.4 6.3 0 10.3 5 10.3 10.3-.1 5-4.1 10.4-11.1 10.4zm5.4-3.6c1.1-1.4 1.3-3.1 1.3-4.7 0-3.8-1.8-11-7.2-11-1.4 0-2.9.5-4 1.4-1.6 1.4-2 3.4-2 5.2 0 4.3 2.2 11.2 7.4 11.2 1.8.3 3.6-.6 4.5-2.1zM918.1 316.6l-1.6-1.3c-.5-.4-1.1-.9-1.1-1.8s.5-1.6 1.3-2.2c1.8-1.4 3.6-3.1 3.6-6.3 0-2.9-1.8-4.7-2.9-5.6h2.5l1.8-1.8h-9c-6.3 0-9.5 4-9.5 8.3 0 3.4 2.5 6.8 7.2 6.8h1.3c-.2.5-.4 1.1-.4 1.6 0 1.3.7 2 1.3 2.9-2 .2-5.6.5-8.3 2.2-2.5 1.6-3.4 3.8-3.4 5.4 0 3.2 3.1 6.3 9.4 6.3 7.6 0 11.3-4.1 11.3-8.3.1-3.1-1.6-4.5-3.5-6.2zm-5.6-5c-3.6 0-5.6-4.5-5.6-7.9 0-3.2 2-4.7 4-4.7 3.8 0 5.8 5 5.8 8.1-.1 3.8-3 4.5-4.2 4.5zm0 17.5c-4.7 0-7.7-2.2-7.7-5.4 0-3.1 2.9-4.1 3.8-4.5 1.8-.5 4.1-.7 4.7-.7h1.1c3.2 2.3 4.7 3.6 4.7 5.8-.3 2.6-2.5 4.8-6.6 4.8zM843.9 306.4l-1.8 1.8h5.6v7.7c-1.3.4-3.2.9-6.5.9-8.3 0-14.4-7.4-14.4-15.7 0-7.6 5-12.8 11.7-12.8 4 0 6.7 1.3 9 3.4v2.5l4.1-4.1c-.9-.7-2.7-1.8-5.8-2.7-2-.5-4.3-.9-6.7-.9-11.3 0-17.5 8.5-17.5 15.7 0 10.6 7.7 16.4 16.7 16.4 6.1 0 11-1.4 13.1-2v-8.1c0-.4.2-.5.4-.7l1.6-1.6h-9.7v.2zM931.2 317.9l1.3-1.3-2.3-.4c-.5 0-1.1-.5-1.1-1.3v-25.2c0-.4.2-.5.4-.9l1.6-1.6h-7.2l-1.8 1.8h2.7v26.3c0 .4-.2.5-.4.9l-1.6 1.6c-.1.1 8.4.1 8.4.1z"/></g></g><g fill="#FFF"><path d="M231.1 317.7V241h21.4c4.9 0 9.2.9 13.1 2.5 4 1.6 7.6 4 10.4 7 2.9 3.1 5.2 6.7 6.8 11 1.6 4.3 2.3 9 2.3 14.4v7c0 5.2-.7 10.1-2.3 14.4-1.6 4.3-4 7.9-6.8 11s-6.5 5.4-10.4 7c-4.1 1.6-8.6 2.5-13.5 2.5H231v-.1zm6.5-71.1v65.7h14.6c4.1 0 7.7-.7 11.2-2.2 3.2-1.4 6.1-3.4 8.5-5.9 2.3-2.5 4.1-5.8 5.4-9.4s1.8-7.6 1.8-11.9v-7.2c0-4.5-.7-8.5-2-12.1-1.3-3.6-3.1-6.7-5.4-9.2-2.3-2.5-5-4.5-8.3-5.9-3.2-1.4-6.8-2.2-10.8-2.2h-14.9v.3zM292.9 288.4c0-4.1.5-7.9 1.8-11.5s2.9-6.5 5.2-9.2c2.2-2.5 4.9-4.5 8.1-5.9 3.1-1.4 6.7-2.2 10.4-2.2 4 0 7.4.7 10.6 2.2 3.1 1.4 5.8 3.4 8.1 5.9 2.2 2.5 4 5.6 5 9.2 1.3 3.6 1.8 7.4 1.8 11.5v1.8c0 4.1-.5 7.9-1.8 11.5-1.3 3.6-2.9 6.5-5 9.2-2.2 2.5-4.9 4.5-8.1 5.9-3.1 1.4-6.7 2.2-10.4 2.2s-7.4-.7-10.4-2.2c-3.1-1.4-5.8-3.4-8.1-5.9-2.2-2.5-4-5.6-5.2-9.2-1.3-3.6-1.8-7.4-1.8-11.5v-1.8h-.2zm6.3 1.8c0 3.1.4 6.1 1.3 9 .9 2.9 2.2 5.2 3.8 7.4 1.6 2.2 3.6 3.8 5.9 5 2.3 1.3 5.2 2 8.3 2 3.1 0 5.8-.7 8.3-2 2.3-1.3 4.3-2.9 5.9-5 1.6-2.2 2.9-4.7 3.8-7.4.9-2.9 1.3-5.8 1.3-9v-1.8c0-3.1-.4-5.9-1.3-8.8-.9-2.9-2.2-5.4-3.8-7.4-1.6-2.2-3.6-3.8-6.1-5.2-2.3-1.3-5.2-2-8.3-2-3.1 0-5.8.7-8.1 2s-4.3 3.1-5.9 5.2c-1.6 2.2-2.9 4.7-3.8 7.4-.9 2.9-1.3 5.8-1.3 8.8v1.8zM390.3 310.5c-1.8 2.5-4.1 4.7-7.2 6.1s-6.7 2.2-11 2.2c-2.9 0-5.4-.4-7.6-1.3-2.3-.7-4.3-2-5.9-3.8-1.6-1.8-2.9-4-3.8-6.7s-1.3-6.1-1.3-9.9v-36.5h6.3v36.7c0 3.1.4 5.6 1.1 7.6.7 2 1.6 3.6 2.9 4.9 1.3 1.3 2.5 2.2 4.1 2.7 1.6.5 3.2.7 5 .7 2.5 0 4.7-.4 6.7-.9s3.6-1.4 5-2.3c1.4-1.1 2.5-2.2 3.4-3.6.9-1.4 1.6-2.9 2.2-4.5v-41.2h6.3v57.1h-6.1l-.1-7.3zM456.3 289.8c0 4.3-.5 8.3-1.4 11.7-.9 3.6-2.3 6.7-4.3 9.2-1.8 2.5-4.1 4.5-6.8 5.9-2.7 1.4-5.8 2.2-9.2 2.2-4.1 0-7.7-.7-10.8-2.3s-5.4-3.8-7.4-6.5l-.2 7.7h-5.8v-81h6.3v32.2c2-2.9 4.3-5.2 7.2-6.8 2.9-1.6 6.5-2.5 10.6-2.5 3.4 0 6.7.7 9.4 2 2.7 1.4 5 3.2 6.8 5.9 1.8 2.5 3.2 5.6 4.3 9.2.9 3.6 1.4 7.6 1.4 12.1v1.1h-.1zm-6.3-1.1c0-3.2-.4-6.5-.9-9.4-.7-2.9-1.6-5.4-3.1-7.6-1.4-2.2-3.1-3.8-5.2-5s-4.7-1.8-7.6-1.8c-2.3 0-4.5.4-6.3.9-1.8.7-3.4 1.4-4.7 2.5-1.3 1.1-2.5 2.3-3.4 3.8-.9 1.4-1.6 2.9-2.2 4.3v25.7c.7 1.4 1.4 2.9 2.5 4.3 1.1 1.3 2.2 2.5 3.6 3.4 1.4.9 2.9 1.8 4.7 2.3 1.8.5 3.8.9 5.9.9 2.9 0 5.4-.5 7.4-1.8 2.2-1.3 3.8-2.9 5.2-5 1.4-2.2 2.3-4.7 3.1-7.4.7-2.9.9-5.9.9-9.4l.1-.7zM473.6 317.7h-6.3v-81h6.3v81zM510.5 318.8c-3.8 0-7.2-.7-10.3-2.2s-5.8-3.2-8.1-5.8c-2.3-2.5-4-5.4-5.2-8.8-1.3-3.4-2-7.2-2-11.2v-2.3c0-4.3.7-8.5 2-11.9 1.3-3.6 3.1-6.7 5.4-9.2 2.2-2.5 4.9-4.5 7.7-5.8 2.9-1.4 6.1-2 9.4-2 3.6 0 6.8.7 9.7 2s5.2 3.1 7 5.4c1.8 2.3 3.4 5 4.3 8.3.9 3.2 1.4 6.7 1.4 10.4v3.8h-40.7v1.3c0 3.1.5 6.1 1.4 8.8s2.3 5.2 4 7.2c1.8 2 3.8 3.6 6.1 4.9 2.3 1.3 5 1.8 7.9 1.8 3.4 0 6.3-.5 9-1.8 2.5-1.3 4.9-3.2 7-5.9l4 3.1c-.9 1.4-2 2.7-3.2 4-1.3 1.3-2.7 2.3-4.3 3.2-1.6.9-3.6 1.6-5.6 2.2-2 .3-4.4.5-6.9.5zm-1.2-53.8c-2.3 0-4.7.5-6.7 1.4s-3.8 2.2-5.4 4c-1.6 1.6-2.9 3.8-3.8 6.1-1.1 2.3-1.6 5-2 7.9h34.2v-.7c0-2.3-.5-4.7-1.1-7-.7-2.2-1.8-4.1-3.1-5.9-1.4-1.8-3.1-3.1-5-4.1-2.1-1.2-4.4-1.7-7.1-1.7zM598.4 293.8c-.4 4-1.3 7.4-2.7 10.4-1.4 3.1-3.2 5.8-5.6 7.9-2.3 2.2-5.2 3.8-8.5 4.9-3.2 1.1-7 1.8-11.3 1.8s-8.3-.9-11.9-2.5c-3.6-1.6-6.7-4-9.2-7-2.5-3.1-4.5-6.7-5.9-11-1.4-4.3-2-9-2-14v-9.7c0-5.2.7-9.9 2-14.2 1.4-4.3 3.2-7.9 5.9-11 2.5-3.1 5.6-5.4 9.2-7s7.7-2.5 12.2-2.5c4.1 0 7.7.5 11 1.6 3.2 1.1 6.1 2.7 8.5 4.9 2.3 2.2 4.1 4.9 5.6 7.9 1.4 3.1 2.3 6.7 2.7 10.6h-6.5c-.4-3.1-1.1-5.9-2.2-8.3-1.1-2.5-2.3-4.5-4.1-6.1-1.8-1.6-3.8-2.9-6.3-3.8-2.5-.9-5.4-1.3-8.6-1.3-3.6 0-6.8.7-9.5 2.2-2.9 1.4-5.2 3.4-7.2 5.9-2 2.5-3.4 5.6-4.5 9.2s-1.6 7.6-1.6 11.9v9.7c0 4.1.5 8.1 1.4 11.7.9 3.6 2.3 6.7 4.3 9.2 2 2.5 4.3 4.7 7 6.1 2.7 1.4 5.9 2.2 9.5 2.2 6.8 0 11.9-1.6 15.3-4.9 3.4-3.2 5.6-8.1 6.3-14.6h6.7v-.2zM616.9 317.7h-6.3v-81h6.3v81zM632.4 244.3c0-1.3.4-2.2 1.1-3.1s1.8-1.3 3.2-1.3c1.4 0 2.3.4 3.2 1.3.7.9 1.3 1.8 1.3 3.1s-.4 2.2-1.3 3.1c-.7.7-1.8 1.3-3.2 1.3-1.4 0-2.3-.4-3.2-1.3-.8-1-1.1-2.1-1.1-3.1zm7.4 73.4h-6.3v-57.1h6.3v57.1zM674.9 313.4c2 0 4-.4 5.8-.9 1.8-.5 3.4-1.4 4.9-2.5 1.4-1.1 2.7-2.5 3.6-4.1.9-1.6 1.4-3.6 1.6-5.8h6.1c-.2 2.7-.9 5.2-2 7.6-1.3 2.3-2.9 4.3-4.9 5.9-2 1.6-4.3 2.9-6.8 4-2.5.9-5.4 1.4-8.3 1.4-4 0-7.6-.7-10.6-2.2-3.1-1.4-5.6-3.4-7.6-6.1-2-2.5-3.6-5.6-4.7-9-1.1-3.4-1.6-7.2-1.6-11.2v-2.2c0-4 .5-7.7 1.6-11.2 1.1-3.4 2.5-6.5 4.7-9 2-2.5 4.5-4.5 7.6-6.1 3.1-1.4 6.5-2.2 10.4-2.2 3.1 0 5.9.5 8.5 1.4 2.7.9 4.9 2.3 6.8 4.1 2 1.8 3.4 4 4.7 6.5 1.1 2.5 1.8 5.4 2 8.5h-6.1c-.2-2.3-.7-4.3-1.4-6.3-.9-1.8-2-3.4-3.4-4.7-1.4-1.3-3.1-2.3-5-3.1-1.8-.7-4-1.1-6.1-1.1-3.2 0-6.1.7-8.3 2-2.3 1.3-4.1 3.1-5.6 5-1.4 2.2-2.5 4.7-3.1 7.4-.7 2.7-.9 5.8-.9 8.6v2.2c0 3.1.4 5.9.9 8.8.5 2.9 1.6 5.2 3.1 7.4 1.4 2.2 3.2 3.8 5.6 5 2.3 1.4 5 1.9 8.5 1.9zM720.8 289.1l-7.2 7v21.8h-6.3v-81h6.3v51.8l5.9-6.5 21.8-21.4h7.9L725.1 285l26.3 32.9h-7.6l-23-28.8z"/></g><path fill="#369647" d="M109.8 212.2c-5.8 0-11.3.7-16.7 2.2 28.6 7.4 49.9 33.1 50.4 63.7v2.6c-.7 18-15.7 32.4-33.7 32.4-6.1 0-11.9-1.6-16.7-4.5-10.1-5.8-16.8-16.6-16.8-29.2 0-12.6 6.8-23.2 16.7-29.2-4.9-2.9-10.6-4.5-16.7-4.5-18.2 0-32.9 14.4-33.5 32.4v2.6c.5 30.8 21.8 56.5 50.4 63.7 5.4 1.4 11 2.2 16.7 2.2 37.1 0 67.1-30.1 67.1-67.1 0-37.2-30.1-67.3-67.2-67.3z"/><path fill="#AEEA00" d="M143.3 278.1c-.5-30.8-21.8-56.5-50.4-63.7-5.4-1.4-11-2.2-16.7-2.2-37.1 0-67.2 30.1-67.2 67.2s30.1 67.1 67.1 67.1c5.8 0 11.3-.7 16.7-2.2-28.4-7.4-49.7-32.9-50.2-63.7v-1.3-1.3c.7-18 15.5-32.4 33.5-32.4 6.1 0 11.9 1.6 16.7 4.5 10.1 5.8 16.7 16.6 16.7 29.2 0 12.6-6.8 23.2-16.7 29.2 5 2.7 10.8 4.5 16.9 4.5 18.2 0 32.9-14.4 33.5-32.4v-1.3c.1-.3.1-.8.1-1.2z"/><linearGradient id="a" gradientUnits="userSpaceOnUse" x1="42.3" y1="557.835" x2="42.3" y2="483.46" gradientTransform="matrix(1.8 0 0 -1.8 0 1216.69)"><stop offset="0" stop-opacity=".6"/><stop offset=".6" stop-opacity=".1"/></linearGradient><path opacity=".15" fill="url(#a)" d="M143.3 278.1c-.5-30.8-21.8-56.5-50.4-63.7-5.4-1.4-11-2.2-16.7-2.2-37.1 0-67.2 30.1-67.2 67.2s30.1 67.1 67.1 67.1c5.8 0 11.3-.7 16.7-2.2-28.4-7.4-49.7-32.9-50.2-63.7v-1.3-1.3c.7-18 15.5-32.4 33.5-32.4 6.1 0 11.9 1.6 16.7 4.5 10.1 5.8 16.7 16.6 16.7 29.2 0 12.6-6.8 23.2-16.7 29.2 5 2.7 10.8 4.5 16.9 4.5 18.2 0 32.9-14.4 33.5-32.4v-1.3c.1-.3.1-.8.1-1.2z"/><linearGradient id="b" gradientUnits="userSpaceOnUse" x1="61.1" y1="483.813" x2="61.1" y2="558.123" gradientTransform="matrix(1.8 0 0 -1.8 0 1216.69)"><stop offset="0" stop-opacity=".6"/><stop offset=".6" stop-opacity=".1"/></linearGradient><path opacity=".15" fill="url(#b)" d="M109.8 212.2c-5.8 0-11.3.7-16.7 2.2 28.6 7.4 49.9 33.1 50.4 63.7v2.6c-.7 18-15.7 32.4-33.7 32.4-6.1 0-11.9-1.6-16.7-4.5-10.1-5.8-16.8-16.6-16.8-29.2 0-12.6 6.8-23.2 16.7-29.2-4.9-2.9-10.6-4.5-16.7-4.5-18.2 0-32.9 14.4-33.5 32.4v2.6c.5 30.8 21.8 56.5 50.4 63.7 5.4 1.4 11 2.2 16.7 2.2 37.1 0 67.1-30.1 67.1-67.1 0-37.2-30.1-67.3-67.2-67.3z"/><linearGradient id="c" gradientUnits="userSpaceOnUse" x1="32.774" y1="513.672" x2="45.437" y2="472.953" gradientTransform="matrix(1.8 0 0 -1.8 0 1216.69)"><stop offset="0" stop-opacity=".5"/><stop offset=".75" stop-opacity=".03"/></linearGradient><path opacity=".4" fill="url(#c)" d="M92.9 344.4c-28.4-7.4-49.7-32.9-50.2-63.7v-.2.5c.4 26.1 9.7 49.3 24.3 65 3.1.4 6.1.7 9.2.7 5.7-.2 11.5-.9 16.7-2.3z"/><linearGradient id="d" gradientUnits="userSpaceOnUse" x1="25.237" y1="530" x2="61.83" y2="530" gradientTransform="matrix(1.8 0 0 -1.8 0 1216.69)"><stop offset="0" stop-opacity=".9"/><stop offset=".6" stop-opacity=".1"/></linearGradient><path opacity=".25" fill="url(#d)" d="M43 278.3c5.2-17.3 23.2-27.4 40.9-22.5.5.2 1.3.4 1.8.5 2.2-2.3 4.7-4.3 7.4-5.9-4.9-2.9-10.6-4.5-16.7-4.5-18.2 0-32.9 14.4-33.5 32.4v1.1c-.2-.4-.1-.8.1-1.1z"/></svg>