<?xml version="1.0" encoding="UTF-8" standalone="no"?>
<svg width="154px" height="154px" viewBox="0 0 154 154" version="1.1" xmlns="http://www.w3.org/2000/svg" xmlns:xlink="http://www.w3.org/1999/xlink" xmlns:sketch="http://www.bohemiancoding.com/sketch/ns">
    <!-- Generator: Sketch 3.4.4 (17249) - http://www.bohemiancoding.com/sketch -->
    <title>facebook</title>
    <desc>Created with Sketch.</desc>
    <defs></defs>
    <g id="Page-1" stroke="none" stroke-width="1" fill="none" fill-rule="evenodd" sketch:type="MSPage">
        <g id="facebook" sketch:type="MSLayerGroup">
            <path d="M145.227326,153.852213 C149.90502,153.852213 153.699101,150.058576 153.699101,145.379994 L153.699101,8.81527954 C153.699101,4.13536599 149.90502,0.342616715 145.227326,0.342616715 L8.66305476,0.342616715 C3.98314121,0.342616715 0.190835735,4.13536599 0.190835735,8.81527954 L0.190835735,145.379994 C0.190835735,150.058576 3.98314121,153.852213 8.66305476,153.852213 L145.227326,153.852213" id="Fill-74" fill="#3A5185" sketch:type="MSShapeGroup"></path>
            <path d="M106.109107,153.852213 L106.109107,94.4055504 L126.063424,94.4055504 L129.050669,71.2376484 L106.109107,71.2376484 L106.109107,56.4465476 C106.109107,49.7388934 107.971308,45.1677118 117.590317,45.1677118 L129.858836,45.1619424 L129.858836,24.4411758 C127.736565,24.1593602 120.454184,23.5282709 111.981965,23.5282709 C94.2937118,23.5282709 82.1849625,34.3246916 82.1849625,54.1525245 L82.1849625,71.2376484 L62.1796081,71.2376484 L62.1796081,94.4055504 L82.1849625,94.4055504 L82.1849625,153.852213 L106.109107,153.852213" id="Fill-75" fill="#FFFFFF" sketch:type="MSShapeGroup"></path>
        </g>
    </g>
</svg>