<?xml version="1.0" encoding="UTF-8" standalone="no"?>
<svg width="383px" height="54px" viewBox="0 0 383 54" version="1.1" xmlns="http://www.w3.org/2000/svg" xmlns:xlink="http://www.w3.org/1999/xlink" xmlns:sketch="http://www.bohemiancoding.com/sketch/ns">
    <!-- Generator: Sketch 3.4.4 (17249) - http://www.bohemiancoding.com/sketch -->
    <title>improve digital</title>
    <desc>Created with Sketch.</desc>
    <defs></defs>
    <g id="Page-1" stroke="none" stroke-width="1" fill="none" fill-rule="evenodd" sketch:type="MSPage">
        <g id="improve-digital" sketch:type="MSLayerGroup" transform="translate(-1.000000, -1.000000)">
            <g id="Group" sketch:type="MSShapeGroup">
                <g id="Layer_1">
                    <ellipse id="Oval" fill="#2A6FB2" cx="28.1179775" cy="28" rx="26.1713483" ry="26.0615385"></ellipse>
                    <g id="Group" transform="translate(73.539326, 12.923077)" fill="#0E2848">
                        <path d="M1.29775281,1.93846154 L6.05617978,1.93846154 L6.05617978,27.5692308 L1.29775281,27.5692308 L1.29775281,1.93846154 L1.29775281,1.93846154 Z" id="Shape"></path>
                        <path d="M16.4382022,1.93846154 L21.1966292,1.93846154 L27.252809,19.8153846 L33.3089888,1.93846154 L38.0674157,1.93846154 L42.3932584,27.5692308 L37.6348315,27.5692308 L34.8230337,11.4153846 L29.4157303,27.5692308 L25.0898876,27.5692308 L19.4662921,11.4153846 L16.6544944,27.5692308 L11.8960674,27.5692308 L16.4382022,1.93846154 L16.4382022,1.93846154 Z" id="Shape"></path>
                        <path d="M48.2331461,1.93846154 L53.4241573,1.93846154 C56.2359551,1.93846154 58.1825843,2.15384615 59.4803371,2.8 C60.7780899,3.44615385 61.6432584,4.09230769 62.508427,5.38461538 C63.1573034,6.46153846 63.5898876,7.96923077 63.5898876,9.47692308 C63.5898876,11.2 63.1573034,12.7076923 62.0758427,14 C61.2106742,15.0769231 59.9129213,15.9384615 58.1825843,16.3692308 C57.3174157,16.5846154 55.5870787,16.8 52.991573,16.8 L52.991573,27.5692308 L48.0168539,27.5692308 L48.0168539,1.93846154 L48.2331461,1.93846154 Z M53.2078652,12.0615385 L54.7219101,12.0615385 C56.0196629,12.0615385 56.8848315,12.0615385 57.3174157,11.8461538 C57.75,11.6307692 58.1825843,11.4153846 58.3988764,10.9846154 C58.6151685,10.5538462 58.8314607,10.1230769 58.8314607,9.47692308 C58.8314607,8.4 58.3988764,7.75384615 57.75,7.32307692 C57.1011236,6.89230769 56.2359551,6.89230769 54.7219101,6.89230769 L53.4241573,6.89230769 L53.4241573,12.0615385 L53.2078652,12.0615385 Z" id="Shape"></path>
                        <path d="M69.4297753,1.93846154 L74.6207865,1.93846154 C77.4325843,1.93846154 79.3792135,2.15384615 80.6769663,2.8 C81.9747191,3.44615385 82.8398876,4.09230769 83.488764,5.38461538 C84.1376404,6.46153846 84.5702247,7.96923077 84.5702247,9.47692308 C84.5702247,11.2 84.1376404,12.4923077 83.2724719,13.7846154 C82.4073034,14.8615385 81.3258427,15.7230769 79.5955056,16.3692308 L85.6516854,27.7846154 L80.244382,27.7846154 L74.4044944,17.0153846 L73.9719101,17.0153846 L73.9719101,27.7846154 L68.997191,27.7846154 L68.997191,1.93846154 L69.4297753,1.93846154 Z M74.1882022,12.0615385 L75.7022472,12.0615385 C77.2162921,12.0615385 78.2977528,11.8461538 78.9466292,11.4153846 C79.5955056,10.9846154 79.8117978,10.3384615 79.8117978,9.47692308 C79.8117978,8.83076923 79.5955056,8.4 79.3792135,7.96923077 C79.1629213,7.53846154 78.7303371,7.32307692 78.2977528,7.10769231 C77.8651685,6.89230769 77,6.67692308 75.7022472,6.67692308 L74.4044944,6.67692308 L74.4044944,12.0615385 L74.1882022,12.0615385 Z" id="Shape"></path>
                        <path d="M103.38764,1.29230769 C107.064607,1.29230769 110.092697,2.58461538 112.688202,5.16923077 C115.283708,7.75384615 116.581461,10.9846154 116.581461,14.8615385 C116.581461,18.5230769 115.283708,21.7538462 112.688202,24.3384615 C110.092697,26.9230769 107.064607,28.2153846 103.38764,28.2153846 C99.494382,28.2153846 96.25,26.9230769 93.8707865,24.1230769 C91.2752809,21.5384615 89.9775281,18.3076923 89.9775281,14.6461538 C89.9775281,12.2769231 90.6264045,9.90769231 91.7078652,7.96923077 C92.7893258,5.81538462 94.5196629,4.30769231 96.6825843,3.01538462 C98.8455056,1.93846154 101.008427,1.29230769 103.38764,1.29230769 L103.38764,1.29230769 Z M103.38764,6.03076923 C101.008427,6.03076923 99.0617978,6.89230769 97.3314607,8.4 C95.6011236,9.90769231 94.9522472,12.0615385 94.9522472,14.6461538 C94.9522472,17.4461538 96.0337079,19.8153846 97.9803371,21.3230769 C99.494382,22.6153846 101.441011,23.2615385 103.38764,23.2615385 C105.766854,23.2615385 107.713483,22.4 109.227528,20.6769231 C110.957865,18.9538462 111.606742,17.0153846 111.606742,14.4307692 C111.606742,12.0615385 110.741573,9.90769231 109.227528,8.18461538 C107.713483,6.46153846 105.766854,6.03076923 103.38764,6.03076923 L103.38764,6.03076923 Z" id="Shape"></path>
                        <path d="M119.393258,1.93846154 L124.367978,1.93846154 L130.856742,20.0307692 L137.345506,1.93846154 L142.320225,1.93846154 L133.019663,27.5692308 L128.261236,27.5692308 L119.393258,1.93846154 L119.393258,1.93846154 Z" id="Shape"></path>
                        <path d="M147.94382,1.93846154 L162.002809,1.93846154 L162.002809,6.67692308 L152.918539,6.67692308 L152.918539,11.4153846 L162.002809,11.4153846 L162.002809,16.1538462 L152.918539,16.1538462 L152.918539,22.8307692 L162.002809,22.8307692 L162.002809,27.5692308 L147.94382,27.5692308 L147.94382,1.93846154 L147.94382,1.93846154 Z" id="Shape"></path>
                        <path d="M177.143258,1.93846154 L182.983146,1.93846154 C186.660112,1.93846154 189.47191,2.36923077 191.418539,3.23076923 C193.148876,4.09230769 194.662921,5.6 195.960674,7.75384615 C197.042135,9.90769231 197.691011,12.2769231 197.691011,15.0769231 C197.691011,17.0153846 197.258427,18.9538462 196.609551,20.4615385 C195.960674,22.1846154 195.095506,23.4769231 193.797753,24.5538462 C192.716292,25.6307692 191.418539,26.4923077 190.120787,26.9230769 C188.823034,27.3538462 186.44382,27.5692308 183.199438,27.5692308 L177.359551,27.5692308 L177.359551,1.93846154 L177.143258,1.93846154 Z M182.117978,6.67692308 L182.117978,22.8307692 L184.497191,22.8307692 C186.660112,22.8307692 188.390449,22.6153846 189.47191,21.9692308 C190.553371,21.5384615 191.202247,20.6769231 191.851124,19.3846154 C192.5,18.0923077 192.716292,16.5846154 192.716292,14.8615385 C192.716292,12.0615385 191.851124,10.1230769 190.337079,8.61538462 C189.039326,7.32307692 186.660112,6.67692308 183.632022,6.67692308 L182.117978,6.67692308 L182.117978,6.67692308 Z" id="Shape"></path>
                        <path d="M203.314607,1.93846154 L208.073034,1.93846154 L208.073034,27.5692308 L203.314607,27.5692308 L203.314607,1.93846154 L203.314607,1.93846154 Z" id="Shape"></path>
                        <path d="M239.002809,6.24615385 L235.542135,9.69230769 C233.379213,7.32307692 230.783708,6.24615385 227.97191,6.24615385 C225.376404,6.24615385 223.213483,7.10769231 221.699438,8.83076923 C219.969101,10.5538462 219.103933,12.4923077 219.103933,14.8615385 C219.103933,17.2307692 219.969101,19.3846154 221.699438,21.1076923 C223.429775,22.8307692 225.592697,23.6923077 228.188202,23.6923077 C229.918539,23.6923077 231.216292,23.2615385 232.514045,22.6153846 C233.595506,21.9692308 234.676966,20.8923077 235.325843,19.3846154 L227.97191,19.3846154 L227.97191,14.8615385 L240.949438,14.8615385 L240.949438,15.9384615 C240.949438,18.0923077 240.300562,20.2461538 239.219101,22.4 C238.13764,24.3384615 236.623596,25.8461538 234.676966,26.9230769 C232.730337,28 230.567416,28.4307692 228.188202,28.4307692 C225.592697,28.4307692 223.213483,27.7846154 221.050562,26.7076923 C218.88764,25.6307692 217.373596,23.9076923 216.075843,21.7538462 C214.77809,19.6 214.345506,17.2307692 214.345506,14.8615385 C214.345506,11.4153846 215.426966,8.61538462 217.80618,6.03076923 C220.401685,3.01538462 223.86236,1.50769231 228.188202,1.50769231 C230.351124,1.50769231 232.514045,1.93846154 234.460674,2.8 C235.758427,3.23076923 237.272472,4.52307692 239.002809,6.24615385 L239.002809,6.24615385 Z" id="Shape"></path>
                        <path d="M245.491573,1.93846154 L250.25,1.93846154 L250.25,27.5692308 L245.491573,27.5692308 L245.491573,1.93846154 L245.491573,1.93846154 Z" id="Shape"></path>
                        <path d="M255.657303,1.93846154 L269.932584,1.93846154 L269.932584,6.67692308 L265.174157,6.67692308 L265.174157,27.5692308 L260.199438,27.5692308 L260.199438,6.89230769 L255.657303,6.89230769 L255.657303,1.93846154 L255.657303,1.93846154 Z" id="Shape"></path>
                        <path d="M279.016854,1.93846154 L283.991573,1.93846154 L293.941011,27.5692308 L288.75,27.5692308 L286.803371,22.4 L276.205056,22.4 L274.042135,27.5692308 L268.851124,27.5692308 L279.016854,1.93846154 L279.016854,1.93846154 Z M281.396067,8.83076923 L277.935393,17.6615385 L284.856742,17.6615385 L281.396067,8.83076923 L281.396067,8.83076923 Z" id="Shape"></path>
                        <path d="M298.266854,1.93846154 L303.241573,1.93846154 L303.241573,22.8307692 L310.379213,22.8307692 L310.379213,27.5692308 L298.266854,27.5692308 L298.266854,1.93846154 L298.266854,1.93846154 Z" id="Shape"></path>
                    </g>
                    <g id="Group" transform="translate(10.814607, 10.769231)" fill="#FFFFFF">
                        <rect id="Rectangle-path" x="5.62359551" y="1.72307692" width="5.19101124" height="5.16923077"></rect>
                        <rect id="Rectangle-path" x="5.62359551" y="12.0615385" width="5.19101124" height="5.16923077"></rect>
                        <rect id="Rectangle-path" x="0.43258427" y="6.89230769" width="5.19101124" height="5.16923077"></rect>
                        <rect id="Rectangle-path" x="10.5983146" y="6.89230769" width="5.19101124" height="5.16923077"></rect>
                    </g>
                </g>
            </g>
        </g>
    </g>
</svg>