<?xml version="1.0" encoding="UTF-8" standalone="no"?>
<svg width="488px" height="113px" viewBox="0 0 488 113" version="1.1" xmlns="http://www.w3.org/2000/svg" xmlns:xlink="http://www.w3.org/1999/xlink" xmlns:sketch="http://www.bohemiancoding.com/sketch/ns">
    <!-- Generator: Sketch 3.4.4 (17249) - http://www.bohemiancoding.com/sketch -->
    <title>app nexus</title>
    <desc>Created with Sketch.</desc>
    <defs></defs>
    <g id="Page-1" stroke="none" stroke-width="1" fill="none" fill-rule="evenodd" sketch:type="MSPage">
        <g id="app-nexus" sketch:type="MSLayerGroup" fill="#FF8800">
            <g id="Layer_1" sketch:type="MSShapeGroup">
                <g id="XMLID_1_">
                    <g id="XMLID_242_" transform="translate(141.000000, 28.000000)">
                        <path d="M19.6,0.5 L0,56.8 L10.2,56.8 L13.8,46 L36,46 L39.6,56.8 L50.2,56.8 L30.6,0.4 L19.6,0.4 L19.6,0.5 L19.6,0.5 Z M17,36.2 L24.9,12.7 L32.8,36.2 L17,36.2 L17,36.2 Z" id="XMLID_280_"></path>
                        <path d="M85.2,18 C82.7,16 79.4,14.5 75.3,14.5 C70.8,14.5 66.3,16.2 63.8,20 L63.2,15.6 L55.1,15.6 L55.1,70.9 L64.9,70.9 L64.9,53.4 C66,55.7 70.6,57.4 75.4,57.4 C79.6,57.4 82.8,56.1 85.3,54.1 C90.2,50.1 92.6,43.9 92.6,35.9 C92.6,28.1 90.1,22 85.2,18 M80,45.9 C78.6,47.7 76.5,49.1 73.4,49.1 C65.7,49.1 64.1,41.9 64.1,36 C64.1,30.1 65.7,22.8 73.4,22.8 C76.5,22.8 78.6,24.2 80,26 C82,28.7 82.6,32.4 82.6,36 C82.6,39.5 82,43.2 80,45.9" id="XMLID_277_"></path>
                        <path d="M127.7,18 C125.2,16 121.9,14.5 117.8,14.5 C113.3,14.5 108.8,16.2 106.3,20 L105.7,15.6 L97.4,15.6 L97.4,70.9 L107.2,70.9 L107.2,53.4 C109.4,55.7 113,57.4 117.8,57.4 C122,57.4 125.2,56.1 127.7,54.1 C132.6,50.1 135,43.9 135,35.9 C135,28.1 132.6,22 127.7,18 M122.5,45.9 C121.1,47.7 119,49.1 115.9,49.1 C108.2,49.1 106.6,41.9 106.6,36 C106.6,30.1 108.2,22.8 115.9,22.8 C119,22.8 121.1,24.2 122.5,26 C124.5,28.7 125.1,32.4 125.1,36 C125.1,39.5 124.5,43.2 122.5,45.9" id="XMLID_274_"></path>
                        <path d="M175.4,38.4 L151.9,0.5 L140.7,0.5 L140.7,56.8 L151.5,56.8 L151.5,18.1 L175.2,56.8 L186.2,56.8 L186.2,0.5 L175.4,0.5 L175.4,38.4 Z" id="XMLID_273_"></path>
                        <path d="M215.8,47.4 C214.4,48.8 212.7,49.4 209.8,49.4 C207.1,49.4 205.2,48.5 203.8,47.2 C201.8,45.3 200.7,41.6 200.8,39.5 L228.1,39.5 C228.1,38.4 228.2,36.5 228.2,36.5 C228.4,31.4 227.7,26.6 224.7,22.2 C221.3,17.1 215.8,14.6 209.8,14.6 C204.2,14.6 199.8,16.6 196.8,19.8 C192.9,23.8 190.9,29.6 190.9,36.1 C190.9,42.8 193.1,48.5 197.2,52.4 C200.4,55.5 204.5,57.4 210.1,57.4 C215.3,57.4 220.4,55.6 223.8,51.5 C225.4,49.6 227,47.1 227.3,43.8 L217.9,43.8 C217.3,46 216.6,46.5 215.8,47.4 M202.8,25.5 C204.2,23.6 206.6,22.3 209.6,22.3 C212.4,22.3 214.5,23.3 215.8,24.7 C217.4,26.4 218.2,28.6 218.3,31.9 L200.6,31.9 C200.8,28.6 201.4,27.3 202.8,25.5" id="XMLID_270_"></path>
                        <path d="M257.2,15.6 L248.4,28.8 L239.3,15.6 L227.9,15.6 L242.3,35.8 L228,56.8 L238.8,56.8 L247.7,43.2 L256.9,56.8 L267.9,56.8 L253.9,35.9 L268,15.6 L257.2,15.6 Z" id="XMLID_269_"></path>
                        <path d="M296.8,37.1 C296.8,40.4 296.1,44.1 293.8,46.3 C292.6,47.5 291,48.3 288.8,48.3 C283.6,48.3 281.7,45.3 281.7,40.5 L281.7,15.6 L271.9,15.6 L271.9,42.7 C271.9,51.4 277.3,57.3 286,57.3 C291.2,57.3 295.7,55.2 297.7,51.2 L298.4,56.8 L306.6,56.8 L306.6,15.6 L296.8,15.6 L296.8,37.1 L296.8,37.1 L296.8,37.1 Z" id="XMLID_244_"></path>
                        <path d="M335.4,32.1 C331.4,31.5 330.4,31.4 326.7,30.9 C324.5,30.6 322,29.7 322,26.8 C322,24.7 323.4,23.2 325.1,22.5 C326.6,21.9 327.9,21.9 329.3,21.9 C331.3,21.9 333.5,22.5 334.6,23.7 C335.5,24.7 336.2,26.4 336.2,27.5 L345.5,27.5 C345.5,24.2 344.1,21.5 341.9,19.2 C338.9,16 334,14.4 329.1,14.4 C324,14.4 319.7,15.9 316.7,18.5 C314.3,20.6 312.5,23.5 312.5,27.7 C312.5,32.9 316.3,37.4 321.8,38.6 C325.4,39.4 329.5,39.6 333.1,40.2 C335.6,40.6 337.2,42.2 337.2,44.5 C337.2,49 332.2,49.7 328.9,49.7 C326.1,49.7 324.3,48.9 322.7,47.7 C321.4,46.7 320.5,44.9 320.5,42.7 L311.3,42.7 C311.3,47 313.3,50.1 315.6,52.4 C319,55.6 323.6,57.2 328.8,57.2 C334.4,57.2 339.5,55.8 342.8,52.5 C344.9,50.4 346.3,47.5 346.3,43.6 C346.6,37.2 341.8,33.2 335.4,32.1" id="XMLID_243_"></path>
                    </g>
                    <g id="XMLID_31_">
                        <path d="M112.7,28.5 L112.7,0.3 L84.5,0.3 C84.5,15.8 97.2,28.4 112.7,28.5 L112.7,28.5 Z" id="XMLID_241_"></path>
                        <path d="M112.7,38.3 C91.8,38.3 74.8,21.2 74.8,0.3 L37.9,0.3 C38.1,20.1 46,38.8 60.1,52.9 C74.2,67 92.9,74.8 112.7,75 L112.7,38.3 L112.7,38.3 Z" id="XMLID_236_"></path>
                        <path d="M84.5,113 L112.7,113 L112.7,84.8 C99.7,84.8 87.3,81.7 76.3,76.4 C81.6,87.5 84.5,99.9 84.5,113 L84.5,113 Z" id="XMLID_225_"></path>
                        <path d="M28.2,113 C28.2,97.4 15.6,84.9 0,84.8 L0,113 L28.2,113 L28.2,113 Z" id="XMLID_85_"></path>
                        <path d="M0,38.3 L0,75 C20.9,75 37.9,92.1 37.9,113 L74.8,113 C74.6,93.2 66.7,74.4 52.6,60.4 C38.6,46.3 19.9,38.4 0,38.3 L0,38.3 Z" id="XMLID_72_"></path>
                        <path d="M28.2,0.3 L0,0.3 L0,28.5 C13,28.5 25.4,31.6 36.4,36.8 C31.1,25.8 28.2,13.4 28.2,0.3 L28.2,0.3 Z" id="XMLID_49_"></path>
                    </g>
                </g>
            </g>
        </g>
    </g>
</svg>