<?xml version="1.0" encoding="UTF-8" standalone="no"?>
<svg width="144px" height="144px" viewBox="0 0 144 144" version="1.1" xmlns="http://www.w3.org/2000/svg" xmlns:xlink="http://www.w3.org/1999/xlink" xmlns:sketch="http://www.bohemiancoding.com/sketch/ns">
    <!-- Generator: Sketch 3.4.4 (17249) - http://www.bohemiancoding.com/sketch -->
    <title>Pintrest</title>
    <desc>Created with Sketch.</desc>
    <defs>
        <path id="path-1" d="M0,0 L144.001,0 L144.001,143.94 L0,143.94"></path>
    </defs>
    <g id="Page-1" stroke="none" stroke-width="1" fill="none" fill-rule="evenodd" sketch:type="MSPage">
        <g id="Pintrest" sketch:type="MSLayerGroup">
            <g id="Group-3">
                <mask id="mask-2" sketch:name="Clip 2" fill="white">
                    <use xlink:href="#path-1"></use>
                </mask>
                <g id="Clip-2"></g>
                <path d="M144.001,72 C144.001,111.765 111.765,144 72,144 C32.236,144 0,111.765 0,72 C0,32.235 32.236,0 72,0 C111.765,0 144.001,32.235 144.001,72" id="Fill-1" fill="#FFFFFF" sketch:type="MSShapeGroup" mask="url(#mask-2)"></path>
            </g>
            <path d="M71.913,5.428 C35.146,5.428 5.341,35.233 5.341,72 C5.341,100.203 22.887,124.292 47.652,133.992 C47.07,128.725 46.545,120.646 47.883,114.896 C49.093,109.7 55.69,81.805 55.69,81.805 C55.69,81.805 53.698,77.817 53.698,71.921 C53.698,62.664 59.064,55.753 65.744,55.753 C71.424,55.753 74.168,60.017 74.168,65.131 C74.168,70.843 70.531,79.382 68.654,87.296 C67.085,93.923 71.977,99.326 78.512,99.326 C90.344,99.326 99.439,86.85 99.439,68.841 C99.439,52.901 87.986,41.757 71.632,41.757 C52.69,41.757 41.572,55.964 41.572,70.647 C41.572,76.369 43.776,82.505 46.526,85.84 C47.07,86.499 47.15,87.077 46.988,87.749 C46.482,89.852 45.359,94.374 45.139,95.299 C44.848,96.518 44.174,96.776 42.913,96.189 C34.598,92.319 29.399,80.163 29.399,70.399 C29.399,49.399 44.657,30.113 73.386,30.113 C96.48,30.113 114.427,46.569 114.427,68.562 C114.427,91.505 99.961,109.97 79.882,109.97 C73.136,109.97 66.794,106.466 64.623,102.326 C64.623,102.326 61.285,115.037 60.476,118.151 C58.973,123.934 54.916,131.182 52.202,135.604 C58.431,137.532 65.05,138.573 71.913,138.573 C108.68,138.573 138.486,108.767 138.486,72 C138.486,35.233 108.68,5.428 71.913,5.428" id="Fill-4" fill="#AA252A" sketch:type="MSShapeGroup"></path>
        </g>
    </g>
</svg>