<?xml version="1.0" encoding="UTF-8" standalone="no"?>
<svg width="312px" height="91px" viewBox="0 0 312 91" version="1.1" xmlns="http://www.w3.org/2000/svg" xmlns:xlink="http://www.w3.org/1999/xlink" xmlns:sketch="http://www.bohemiancoding.com/sketch/ns">
    <!-- Generator: Sketch 3.4.4 (17249) - http://www.bohemiancoding.com/sketch -->
    <title>rubicon-logo</title>
    <desc>Created with Sketch.</desc>
    <defs></defs>
    <g id="Page-1" stroke="none" stroke-width="1" fill="none" fill-rule="evenodd" sketch:type="MSPage">
        <g id="rubicon-logo" sketch:type="MSLayerGroup">
            <g id="Layer_1" sketch:type="MSShapeGroup">
                <g id="Group">
                    <path d="M304.608932,7.71390728 C304.608932,11.8119205 301.216311,15.4278146 296.854369,15.4278146 C292.734757,15.4278146 289.099806,12.0529801 289.099806,7.71390728 C289.160388,3.55562914 292.613592,0 296.914951,0 C301.034563,0 304.608932,3.37483444 304.608932,7.71390728" id="Shape" fill="#CF0A2C"></path>
                    <path d="M0,48.0913907 C0,35.3754967 10.4201942,24.8291391 23.3848544,24.8291391 L23.3848544,31.4582781 C14.0551456,31.4582781 6.84582524,38.810596 6.84582524,47.910596 L6.84582524,70.992053 L0,70.992053 L0,48.0913907 L0,48.0913907 Z" id="Shape" fill="#000000"></path>
                    <path d="M69.912233,24.8291391 L76.5763107,24.8291391 L76.5763107,48.8145695 C76.5763107,61.5304636 66.1561165,71.8960265 53.3732039,71.8960265 C40.4085437,71.8960265 30.3518447,61.5304636 30.3518447,48.8145695 L30.3518447,24.8291391 L36.8341748,24.8291391 L36.8341748,48.8145695 C36.8341748,58.0953642 44.2252427,65.2668874 53.3732039,65.2668874 C62.521165,65.2668874 69.912233,57.9145695 69.912233,48.8145695 L69.912233,24.8291391 L69.912233,24.8291391 Z" id="Shape" fill="#000000"></path>
                    <rect id="Rectangle-path" fill="#000000" x="139.279223" y="24.8291391" width="6.66407767" height="46.4642384"></rect>
                    <path d="M177.749126,24.8291391 C188.16932,24.8291391 197.135534,31.8198675 199.861748,41.281457 L192.834175,41.281457 C190.289709,35.5562914 184.413204,31.4582781 177.749126,31.4582781 C168.419417,31.4582781 161.210097,38.810596 161.210097,47.910596 C161.210097,57.010596 168.601165,64.3629139 177.749126,64.3629139 C184.413204,64.3629139 190.350291,60.2649007 192.834175,54.5397351 L199.861748,54.5397351 C197.196117,64.0013245 187.987573,70.992053 177.749126,70.992053 C164.784466,70.992053 154.364272,60.6264901 154.364272,47.7298013 C154.546019,35.3754967 164.966214,24.8291391 177.749126,24.8291391" id="Shape" fill="#000000"></path>
                    <path d="M228.396117,24.6483444 C241.179029,24.6483444 251.780971,35.3754967 251.780971,47.910596 C251.780971,60.8072848 240.997282,71.1728477 228.396117,71.1728477 C215.431456,71.1728477 205.011262,60.6264901 205.011262,47.910596 C205.071845,35.3754967 215.492039,24.6483444 228.396117,24.6483444 M228.396117,64.7245033 C237.544078,64.7245033 245.116893,57.1913907 245.116893,47.910596 C245.116893,38.9913907 237.544078,31.2774834 228.396117,31.2774834 C219.248155,31.2774834 211.493592,38.9913907 211.493592,47.910596 C211.554175,57.1913907 219.248155,64.7245033 228.396117,64.7245033" id="Shape" fill="#000000"></path>
                    <path d="M264.563883,71.3536424 L257.899806,71.3536424 L257.899806,47.0066225 C257.899806,34.1099338 268.32,23.9251656 281.28466,23.9251656 C294.067573,23.9251656 304.487767,34.2907285 304.487767,47.0066225 L304.487767,71.2933775 L297.823689,71.2933775 L297.823689,47.0066225 C297.823689,37.9066225 290.432621,30.5543046 281.28466,30.5543046 C271.954951,30.5543046 264.382136,37.9066225 264.382136,47.0066225 L264.382136,71.2933775 L264.563883,71.2933775 L264.563883,71.3536424 Z" id="Shape" fill="#000000"></path>
                    <path d="M107.473398,24.8291391 L90.5708738,24.8291391 L90.5708738,11.4503311 L83.9067961,11.4503311 L83.9067961,47.910596 C83.9067961,60.9880795 94.3269903,71.1728477 107.29165,71.1728477 C120.256311,71.1728477 130.676505,60.8072848 130.676505,47.910596 C130.858252,35.194702 120.438058,24.8291391 107.473398,24.8291391 M107.473398,64.7245033 C97.9619417,64.7245033 90.5708738,57.010596 90.5708738,47.910596 L90.5708738,31.2774834 L107.473398,31.2774834 C116.621359,31.2774834 124.194175,38.810596 124.194175,47.910596 C124.194175,57.010596 116.621359,64.7245033 107.473398,64.7245033" id="Shape" fill="#000000"></path>
                    <path d="M254.325437,0 C249.963495,0 246.570874,3.37483444 246.570874,7.71390728 C246.570874,12.0529801 249.963495,15.4278146 254.325437,15.4278146 C258.445049,15.4278146 262.08,12.0529801 262.08,7.71390728 C261.83767,3.37483444 258.445049,0 254.325437,0 M254.325437,13.9211921 C250.751068,13.9211921 247.843107,11.0887417 247.843107,7.47284768 C247.843107,3.85695364 250.690485,1.02450331 254.325437,1.02450331 C257.960388,1.02450331 260.807767,3.85695364 260.807767,7.47284768 C260.807767,11.0887417 257.899806,13.9211921 254.325437,13.9211921" id="Shape" fill="#CF0A2C"></path>
                    <path d="M275.52932,0 C271.349126,0 267.774757,3.37483444 267.774757,7.71390728 C267.774757,11.8119205 271.167379,15.4278146 275.52932,15.4278146 C279.648932,15.4278146 283.283883,12.0529801 283.283883,7.71390728 C283.283883,3.37483444 279.83068,0 275.52932,0 M275.52932,11.2695364 C273.530097,11.2695364 271.773204,9.64238411 271.773204,7.71390728 C271.773204,5.78543046 273.408932,3.97748344 275.52932,3.97748344 C277.528544,3.97748344 279.103689,5.60463576 279.103689,7.71390728 C279.285437,9.64238411 277.649709,11.2695364 275.52932,11.2695364" id="Shape" fill="#CF0A2C"></path>
                    <path d="M187.987573,81.7192053 L191.380194,81.7192053 C193.015922,81.7192053 194.227573,82.9847682 194.227573,84.5516556 C194.227573,86.3596026 192.95534,87.384106 191.380194,87.384106 L189.562718,87.384106 L189.562718,90.397351 L187.92699,90.397351 L187.92699,81.7192053 L187.987573,81.7192053 Z M191.016699,86.1788079 C191.925437,86.1788079 192.47068,85.6364238 192.47068,84.5516556 C192.47068,83.6476821 191.925437,83.105298 191.016699,83.105298 L189.380971,83.105298 L189.380971,86.118543 L191.016699,86.118543 L191.016699,86.1788079 Z" id="Shape" fill="#000000"></path>
                    <path d="M205.798835,81.7192053 L208.646214,81.7192053 C209.554951,81.7192053 210.100194,81.7192053 210.463689,81.9 C211.372427,82.2615894 211.91767,83.1655629 211.91767,84.4311258 C211.91767,85.515894 211.372427,86.6006623 210.463689,86.9622517 L210.463689,86.9622517 C210.463689,86.9622517 210.645437,87.1430464 210.827184,87.3238411 L212.64466,90.6986755 L210.827184,90.6986755 L209.009709,87.3238411 L207.373981,87.3238411 L207.373981,90.6986755 L205.738252,90.6986755 L205.798835,81.7192053 L205.798835,81.7192053 L205.798835,81.7192053 Z M208.827961,85.8172185 C209.736699,85.8172185 210.281942,85.2748344 210.281942,84.3708609 C210.281942,83.4668874 209.918447,82.9245033 208.646214,82.9245033 L207.373981,82.9245033 L207.373981,85.7569536 L208.827961,85.7569536 L208.827961,85.8172185 Z" id="Shape" fill="#000000"></path>
                    <path d="M228.274951,81.5384106 C230.940583,81.5384106 232.939806,83.5271523 232.939806,85.9980132 C232.939806,88.6496689 230.940583,90.6384106 228.274951,90.6384106 C225.60932,90.6384106 223.610097,88.6496689 223.610097,85.9980132 C223.549515,83.4668874 225.548738,81.5384106 228.274951,81.5384106 M228.274951,89.192053 C229.91068,89.192053 231.12233,87.7456954 231.12233,85.9980132 C231.12233,84.2503311 229.850097,82.9847682 228.274951,82.9847682 C226.639223,82.9847682 225.427573,84.2503311 225.427573,85.9980132 C225.185243,87.986755 226.639223,89.192053 228.274951,89.192053" id="Shape" fill="#000000"></path>
                    <path d="M243.723495,87.4443709 L245.359223,87.4443709 L245.359223,87.8059603 C245.359223,88.8907285 245.904466,89.2523179 246.631456,89.2523179 C247.176699,89.2523179 247.721942,88.8907285 247.721942,87.986755 L247.721942,83.1655629 L247.721942,81.7192053 L249.35767,81.7192053 L249.35767,87.986755 C249.35767,89.9754967 247.903689,90.8192053 246.510291,90.8192053 C245.116893,90.8192053 243.84466,89.9152318 243.84466,87.986755 L243.723495,87.4443709 L243.723495,87.4443709 L243.723495,87.4443709 Z" id="Shape" fill="#000000"></path>
                    <path d="M261.655922,81.7192053 L267.047767,81.7192053 L267.047767,83.105298 L263.29165,83.105298 L263.29165,85.4556291 L266.320777,85.4556291 L266.320777,86.9019868 L263.29165,86.9019868 L263.29165,89.192053 L267.229515,89.192053 L267.229515,90.6384106 L261.655922,90.6384106 L261.655922,81.7192053 Z" id="Shape" fill="#000000"></path>
                    <path d="M282.859806,81.5384106 C285.040777,81.5384106 286.07068,82.8039735 286.07068,82.8039735 L285.343689,84.0695364 C285.343689,84.0695364 284.253204,83.1655629 282.799223,83.1655629 C280.8,83.1655629 279.770097,84.6119205 279.770097,86.1788079 C279.770097,87.8059603 280.860583,89.3728477 282.799223,89.3728477 C284.434951,89.3728477 285.343689,88.2880795 285.343689,88.2880795 L286.252427,89.5536424 C286.252427,89.5536424 284.980194,91 282.678058,91 C280.012427,91 278.013204,89.0112583 278.013204,86.3596026 C278.376699,83.4668874 280.375922,81.5384106 282.859806,81.5384106" id="Shape" fill="#000000"></path>
                    <path d="M299.944078,83.105298 L297.096699,83.105298 L297.096699,81.7192053 L304.608932,81.7192053 L304.608932,83.105298 L301.579806,83.105298 L301.579806,90.6384106 L299.944078,90.6384106 L299.944078,83.105298 Z" id="Shape" fill="#000000"></path>
                    <path d="M308.243883,23.8046358 C310.424854,23.8046358 312,25.6125828 312,27.7218543 C312,29.8913907 310.182524,31.6390728 308.243883,31.6390728 C306.062913,31.6390728 304.487767,29.8311258 304.487767,27.7218543 C304.427184,25.5523179 306.24466,23.8046358 308.243883,23.8046358 L308.243883,23.8046358 Z M308.243883,31.0966887 C310.061359,31.0966887 311.454757,29.6503311 311.454757,27.7218543 C311.454757,25.9139073 310.000777,24.3470199 308.243883,24.3470199 C306.48699,24.3470199 305.03301,25.7933775 305.03301,27.7218543 C305.154175,29.4695364 306.426408,31.0966887 308.243883,31.0966887 L308.243883,31.0966887 Z M306.97165,25.5523179 L308.425631,25.5523179 C309.152621,25.5523179 309.697864,26.094702 309.697864,26.8178808 C309.697864,27.3602649 309.334369,27.902649 308.970874,27.902649 L308.970874,27.902649 C308.970874,27.902649 308.970874,27.902649 309.152621,28.0834437 L309.879612,29.710596 L309.152621,29.710596 L308.243883,28.0834437 L307.516893,28.0834437 L307.516893,29.710596 L306.97165,29.710596 L306.97165,25.5523179 L306.97165,25.5523179 L306.97165,25.5523179 Z M308.425631,27.7218543 C308.970874,27.7218543 309.152621,27.3602649 309.152621,26.9986755 C309.152621,26.4562914 308.789126,26.2754967 308.425631,26.2754967 L307.698641,26.2754967 L307.698641,27.7218543 C307.698641,27.7218543 308.425631,27.7218543 308.425631,27.7218543 L308.425631,27.7218543 Z" id="Shape" fill="#000000"></path>
                </g>
            </g>
        </g>
    </g>
</svg>