<?xml version="1.0" encoding="UTF-8" standalone="no"?>
<svg width="171px" height="139px" viewBox="0 0 171 139" version="1.1" xmlns="http://www.w3.org/2000/svg" xmlns:xlink="http://www.w3.org/1999/xlink" xmlns:sketch="http://www.bohemiancoding.com/sketch/ns">
    <!-- Generator: Sketch 3.4.4 (17249) - http://www.bohemiancoding.com/sketch -->
    <title>Twitter</title>
    <desc>Created with Sketch.</desc>
    <defs>
        <path id="path-1" d="M0.0374452555,0.512367713 L170.619307,0.512367713 L170.619307,138.962601 L0.0374452555,138.962601"></path>
    </defs>
    <g id="Page-1" stroke="none" stroke-width="1" fill="none" fill-rule="evenodd" sketch:type="MSPage">
        <g id="Twitter" sketch:type="MSLayerGroup">
            <mask id="mask-2" sketch:name="Clip 2" fill="white">
                <use xlink:href="#path-1"></use>
            </mask>
            <g id="Clip-2"></g>
            <path d="M170.619307,16.9062646 C164.341609,19.6868879 157.595223,21.5661928 150.514325,22.4114126 C157.741883,18.0843363 163.291894,11.2328206 165.905573,3.06921973 C159.142336,7.075287 151.650788,9.98493722 143.677445,11.5532063 C137.291781,4.75841256 128.194456,0.512367713 118.126675,0.512367713 C98.7943139,0.512367713 83.1209781,16.1657623 83.1209781,35.4730493 C83.1209781,38.213157 83.4311496,40.881583 84.0277774,43.4403049 C54.9353102,41.9823632 29.1423942,28.0636637 11.877635,6.91197758 C8.86454015,12.0755471 7.13831387,18.0812197 7.13831387,24.4883094 C7.13831387,36.6174619 13.3186533,47.3185919 22.7111715,53.5879283 C16.9726861,53.4065426 11.5755766,51.8339103 6.85560219,49.2153498 C6.85310584,49.3612063 6.85310584,49.5076861 6.85310584,49.6547892 C6.85310584,66.5940897 18.9192153,80.7247175 34.9326788,83.9360538 C31.9950985,84.735148 28.9027445,85.1621211 25.7099124,85.1621211 C23.4544599,85.1621211 21.2614161,84.9433363 19.1245401,84.5350628 C23.5786533,98.4250897 36.5060036,108.532821 51.8236095,108.815184 C39.8436241,118.191762 24.7500657,123.781058 8.35029197,123.781058 C5.52504745,123.781058 2.73849635,123.615879 0,123.293 C15.4911022,133.212489 33.8910766,139 53.6590511,139 C118.04492,139 153.253445,85.7268475 153.253445,39.5271121 C153.253445,38.0112018 153.219745,36.5033946 153.152343,35.0043139 C159.991095,30.0751121 165.926168,23.9173498 170.619307,16.9062646" id="Fill-1" fill="#5D9EC9" sketch:type="MSShapeGroup" mask="url(#mask-2)"></path>
        </g>
    </g>
</svg>