<?xml version="1.0" encoding="utf-8"?>
<!-- Generator: Adobe Illustrator 19.0.0, SVG Export Plug-In . SVG Version: 6.00 Build 0)  -->
<svg version="1.1" id="Layer_1" xmlns="http://www.w3.org/2000/svg" xmlns:xlink="http://www.w3.org/1999/xlink" x="0px" y="0px"
	 viewBox="199 -26 421 76" style="enable-background:new 199 -26 421 76;" xml:space="preserve">
<style type="text/css">
	.st0{fill:#2278B1;}
	.st1{enable-background:new    ;}
	.st2{fill:#737470;}
</style>
<title>Fill 22 + Fill 23 + Group + Bidder</title>
<g>
	<g>
		<path class="st0" d="M366.4,2.8c1,0,2,0.1,3,0.2c-2.2-1-4.6-1.5-7.1-1.5c-9.7,0-17.6,7.7-18.1,17.4C347.3,9.6,356.1,2.8,366.4,2.8
			 M403.2-5.9V2h-1.7v-6.5L398.9,2h-0.8l-2.5-6.5V2h-1.7v-7.9h2.5l2.1,5.1l2.2-5.1L403.2-5.9L403.2-5.9z M392.8-5.9v1.4h-2.5V2h-1.7
			v-6.5h-2.5v-1.4H392.8L392.8-5.9z M421.6-5.9h2.9v53.4h-2.9V-5.9L421.6-5.9z M199-5.9h7.3L224.2,33L242-5.9h7.4l-24.4,53.4h-1.3
			L199-5.9 M257.8-5.9h6.9v53.4h-6.9V-5.9L257.8-5.9z M304.8-0.1l-4.4,4.6c-3.7-3.6-7.3-5.4-10.8-5.4c-2.2,0-4.1,0.7-5.7,2.2
			c-1.6,1.5-2.4,3.2-2.4,5.2c0,1.7,0.7,3.4,2,5c1.3,1.6,4.1,3.5,8.3,5.6c5.1,2.7,8.6,5.2,10.4,7.7c1.8,2.5,2.7,5.3,2.7,8.4
			c0,4.4-1.5,8.1-4.6,11.1c-3.1,3-6.9,4.6-11.6,4.6c-3.1,0-6-0.7-8.8-2c-2.8-1.3-5.1-3.2-7-5.5l4.3-4.9c3.5,4,7.2,5.9,11.2,5.9
			c2.8,0,5.1-0.9,7-2.7c1.9-1.8,2.9-3.8,2.9-6.2c0-2-0.6-3.7-1.9-5.3c-1.3-1.5-4.2-3.4-8.7-5.7c-4.8-2.5-8.1-4.9-9.8-7.4
			c-1.7-2.4-2.6-5.2-2.6-8.3c0-4.1,1.4-7.4,4.2-10.1c2.8-2.7,6.3-4,10.5-4C294.9-7.3,299.8-4.9,304.8-0.1"/>
		<path class="st0" d="M362.4-0.8c-5.8,0-10.7,2.1-14.8,6.4c-4.1,4.2-6.2,9.4-6.2,15.4c0,3.9,0.9,7.5,2.8,10.9
			c1.9,3.4,4.4,6,7.6,7.8c3.2,1.8,6.7,2.7,10.6,2.7c3.8,0,7.4-0.9,10.6-2.7c3.2-1.8,5.7-4.4,7.6-7.8c1.9-3.4,2.8-7,2.8-10.9
			c0-6-2.1-11.2-6.2-15.4C373,1.3,368.1-0.8,362.4-0.8 M362.5-7.3c8.2,0,15.1,3,20.5,8.9c4.9,5.4,7.4,11.9,7.4,19.3
			c0,7.5-2.6,14-7.8,19.6c-5.2,5.6-11.9,8.4-20,8.4c-8.2,0-14.9-2.8-20.1-8.4c-5.2-5.6-7.8-12.1-7.8-19.6c0-7.4,2.5-13.8,7.4-19.2
			C347.4-4.3,354.2-7.3,362.5-7.3 M338.3-5.9h-12.5v-19.8h-6.9v19.8h-9.4V0h9.4v47.5h6.9V0h7.6C334.4-2,336.1-4,338.3-5.9"/>
	</g>
	<g class="st1">
		<path class="st2" d="M446.3,6.6h8.4c3.4,0,5.9,0.4,7.7,1.2c1.8,0.8,3.2,2,4.3,3.7c1,1.7,1.6,3.5,1.6,5.5c0,1.9-0.5,3.6-1.4,5.1
			c-0.9,1.5-2.3,2.8-4,3.8c2.2,0.7,3.9,1.6,5.1,2.6c1.2,1,2.1,2.2,2.8,3.7s1,3,1,4.7c0,3.4-1.2,6.3-3.7,8.6c-2.5,2.4-5.8,3.5-10,3.5
			h-11.6V6.6z M450.4,10.8v13.6h2.4c2.9,0,5.1-0.3,6.5-0.8c1.4-0.5,2.5-1.4,3.3-2.6c0.8-1.2,1.2-2.5,1.2-3.9c0-1.9-0.7-3.5-2-4.6
			s-3.5-1.7-6.5-1.7H450.4z M450.4,28.6v16.2h5.3c3.1,0,5.4-0.3,6.8-0.9c1.4-0.6,2.6-1.6,3.5-2.8c0.9-1.3,1.3-2.7,1.3-4.2
			c0-1.9-0.6-3.5-1.8-4.9c-1.2-1.4-2.9-2.4-5.1-2.9c-1.4-0.3-4-0.5-7.5-0.5H450.4z"/>
		<path class="st2" d="M479.7,4.8c0.9,0,1.7,0.3,2.4,1c0.7,0.7,1,1.4,1,2.4c0,0.9-0.3,1.7-1,2.3c-0.6,0.7-1.4,1-2.4,1
			c-0.9,0-1.7-0.3-2.3-1c-0.6-0.7-1-1.4-1-2.3c0-0.9,0.3-1.7,1-2.4C478,5.1,478.8,4.8,479.7,4.8z M477.7,17.7h4V49h-4V17.7z"/>
		<path class="st2" d="M520.3,5.6V49h-4v-5.4c-1.7,2.1-3.6,3.6-5.7,4.6c-2.1,1-4.4,1.6-6.9,1.6c-4.4,0-8.2-1.6-11.4-4.8
			c-3.1-3.2-4.7-7.1-4.7-11.7c0-4.5,1.6-8.4,4.8-11.6c3.2-3.2,7-4.8,11.4-4.8c2.6,0,4.9,0.5,7,1.6c2.1,1.1,3.9,2.7,5.5,4.9V5.6
			H520.3z M504.2,20.7c-2.2,0-4.3,0.6-6.2,1.7s-3.4,2.7-4.5,4.6s-1.7,4.1-1.7,6.3c0,2.2,0.6,4.3,1.7,6.3c1.1,2,2.7,3.6,4.6,4.7
			c1.9,1.1,4,1.7,6.1,1.7c2.2,0,4.3-0.6,6.3-1.7c2-1.1,3.5-2.6,4.6-4.5c1.1-1.9,1.6-4,1.6-6.4c0-3.6-1.2-6.7-3.6-9.1
			S507.7,20.7,504.2,20.7z"/>
		<path class="st2" d="M559.7,5.6V49h-4v-5.4c-1.7,2.1-3.6,3.6-5.7,4.6c-2.1,1-4.4,1.6-6.9,1.6c-4.4,0-8.2-1.6-11.4-4.8
			c-3.1-3.2-4.7-7.1-4.7-11.7c0-4.5,1.6-8.4,4.8-11.6c3.2-3.2,7-4.8,11.4-4.8c2.6,0,4.9,0.5,7,1.6c2.1,1.1,3.9,2.7,5.5,4.9V5.6
			H559.7z M543.6,20.7c-2.2,0-4.3,0.6-6.2,1.7S534,25,532.8,27s-1.7,4.1-1.7,6.3c0,2.2,0.6,4.3,1.7,6.3c1.1,2,2.7,3.6,4.6,4.7
			c1.9,1.1,4,1.7,6.1,1.7c2.2,0,4.3-0.6,6.3-1.7c2-1.1,3.5-2.6,4.6-4.5c1.1-1.9,1.6-4,1.6-6.4c0-3.6-1.2-6.7-3.6-9.1
			S547.1,20.7,543.6,20.7z"/>
		<path class="st2" d="M594.2,38.6l3.4,1.8c-1.1,2.2-2.4,4-3.9,5.3c-1.5,1.3-3.1,2.4-4.9,3.1c-1.8,0.7-3.9,1.1-6.2,1.1
			c-5.1,0-9.1-1.7-12-5c-2.9-3.4-4.3-7.1-4.3-11.4c0-4,1.2-7.5,3.7-10.6c3.1-4,7.2-5.9,12.4-5.9c5.3,0,9.6,2,12.8,6.1
			c2.3,2.9,3.4,6.4,3.5,10.7h-28.2c0.1,3.6,1.2,6.6,3.5,9s5,3.5,8.3,3.5c1.6,0,3.1-0.3,4.7-0.8c1.5-0.6,2.8-1.3,3.9-2.2
			C591.8,42.1,592.9,40.6,594.2,38.6z M594.2,30.2c-0.5-2.2-1.3-3.9-2.4-5.2c-1-1.3-2.4-2.3-4.1-3.1c-1.7-0.8-3.5-1.2-5.3-1.2
			c-3.1,0-5.7,1-7.9,3c-1.6,1.4-2.8,3.6-3.7,6.5H594.2z"/>
	</g>
	<g class="st1">
		<path class="st2" d="M603.3,17.7h4.1v4.6c1.2-1.8,2.5-3.2,3.9-4c1.4-0.9,2.8-1.3,4.3-1.3c1.1,0,2.3,0.4,3.6,1.1l-2.1,3.4
			c-0.8-0.4-1.6-0.5-2.1-0.5c-1.3,0-2.6,0.6-3.9,1.7c-1.2,1.1-2.2,2.8-2.9,5.1c-0.5,1.8-0.7,5.4-0.7,10.8V49h-4.1V17.7z"/>
	</g>
</g>
</svg>
