<?xml version="1.0" encoding="UTF-8" standalone="no"?>
<svg width="418px" height="154px" viewBox="0 0 418 154" version="1.1" xmlns="http://www.w3.org/2000/svg" xmlns:xlink="http://www.w3.org/1999/xlink" xmlns:sketch="http://www.bohemiancoding.com/sketch/ns">
    <!-- Generator: Sketch 3.4.4 (17249) - http://www.bohemiancoding.com/sketch -->
    <title>visto stacked</title>
    <desc>Created with Sketch.</desc>
    <defs></defs>
    <g id="Page-1" stroke="none" stroke-width="1" fill="none" fill-rule="evenodd" sketch:type="MSPage">
        <g id="visto-stacked" sketch:type="MSLayerGroup" fill="#FFFFFF">
            <g id="Group-15" transform="translate(0.000000, 41.000000)" sketch:type="MSShapeGroup">
                <path d="M0,0.363 L14.945,0.363 L51.587,79.925 L87.779,0.363 L102.827,0.363 L52.867,109.509 L50.26,109.509 L0,0.363" id="Fill-14"></path>
            </g>
            <path d="M120.086,41.361 L134.133,41.361 L134.133,150.509 L120.086,150.509 L120.086,41.361 Z" id="Fill-16" sketch:type="MSShapeGroup"></path>
            <path d="M216.2,53.299 L207.17,62.63 C199.657,55.344 192.315,51.693 185.143,51.693 C180.584,51.693 176.672,53.2 173.424,56.211 C170.176,59.219 168.548,62.733 168.548,66.746 C168.548,70.289 169.89,73.667 172.569,76.877 C175.246,80.156 180.878,84.001 189.457,88.415 C199.914,93.83 207.016,99.046 210.769,104.062 C214.452,109.142 216.297,114.862 216.297,121.214 C216.297,130.18 213.151,137.77 206.855,143.984 C200.557,150.21 192.686,153.317 183.241,153.317 C176.945,153.317 170.936,151.947 165.21,149.202 C159.481,146.461 154.743,142.684 150.99,137.867 L159.819,127.836 C166.995,135.928 174.597,139.972 182.645,139.972 C188.275,139.972 193.067,138.171 197.024,134.56 C200.976,130.947 202.957,126.701 202.957,121.816 C202.957,117.804 201.65,114.226 199.035,111.079 C196.421,108.006 190.522,104.126 181.343,99.446 C171.489,94.367 164.788,89.35 161.236,84.402 C157.685,79.451 155.909,73.803 155.909,67.446 C155.909,59.156 158.738,52.265 164.4,46.779 C170.061,41.299 177.206,38.554 185.85,38.554 C195.901,38.554 206.014,43.472 216.2,53.299" id="Fill-17" sketch:type="MSShapeGroup"></path>
            <path d="M333.811,51.874 C322.061,51.874 311.965,56.211 303.526,64.89 C295.088,73.57 290.865,84.067 290.865,96.38 C290.865,104.316 292.789,111.715 296.641,118.578 C300.486,125.441 305.687,130.739 312.235,134.472 C318.786,138.21 325.978,140.073 333.811,140.073 C341.64,140.073 348.831,138.21 355.385,134.472 C361.932,130.739 367.13,125.441 370.978,118.578 C374.825,111.715 376.754,104.316 376.754,96.38 C376.754,84.067 372.516,73.57 364.043,64.89 C355.568,56.211 345.489,51.874 333.811,51.874 M334.017,38.554 C350.833,38.554 364.771,44.641 375.828,56.812 C385.873,67.915 390.898,81.054 390.898,96.237 C390.898,111.481 385.586,124.81 374.97,136.211 C364.354,147.618 350.702,153.318 334.017,153.318 C317.266,153.318 303.584,147.618 292.966,136.211 C282.346,124.81 277.034,111.481 277.034,96.237 C277.034,81.124 282.06,68.014 292.108,56.912 C303.167,44.675 317.133,38.554 334.017,38.554" id="Fill-18" sketch:type="MSShapeGroup"></path>
            <path d="M341.995,59.229 C344.051,59.229 346.073,59.376 348.064,59.632 C343.628,57.72 338.754,56.664 333.637,56.664 C313.906,56.664 297.778,72.389 296.615,92.229 C303.115,73.027 320.97,59.229 341.995,59.229" id="Fill-19" sketch:type="MSShapeGroup"></path>
            <path d="M417.173,41.392 L417.173,57.553 L413.787,57.553 L413.787,44.258 L408.486,57.553 L406.791,57.553 L401.665,44.258 L401.665,57.553 L398.279,57.553 L398.279,41.392 L403.419,41.392 L407.64,51.781 L412.071,41.392 L417.173,41.392 L417.173,41.392 Z M396.066,41.392 L396.066,44.22 L391.026,44.22 L391.026,57.553 L387.526,57.553 L387.526,44.22 L382.446,44.22 L382.446,41.392 L396.066,41.392 L396.066,41.392 Z" id="Fill-20" sketch:type="MSShapeGroup"></path>
            <path d="M284.657,41.363 L259.091,41.363 L259.091,0.833 L245.045,0.833 L245.045,41.363 L225.885,41.363 L225.885,53.503 L245.045,53.503 L245.045,150.508 L259.091,150.508 L259.091,53.503 L274.709,53.503 C276.743,49.503 280.201,45.295 284.657,41.363" id="Fill-21" sketch:type="MSShapeGroup"></path>
        </g>
    </g>
</svg>