<?xml version="1.0" encoding="utf-8"?>
<!-- Generator: Adobe Illustrator 19.0.1, SVG Export Plug-In . SVG Version: 6.00 Build 0)  -->
<!DOCTYPE svg PUBLIC "-//W3C//DTD SVG 1.1//EN" "http://www.w3.org/Graphics/SVG/1.1/DTD/svg11.dtd">
<svg version="1.1" id="Layer_1" xmlns="http://www.w3.org/2000/svg" xmlns:xlink="http://www.w3.org/1999/xlink" x="0px" y="0px"
	 viewBox="-61 340.3 487.6 112.7" style="enable-background:new -61 340.3 487.6 112.7;" xml:space="preserve">
<style type="text/css">
	.st0{fill:#FF8800;}
</style>
<g id="XMLID_1_">
	<g id="XMLID_242_">
		<path id="XMLID_280_" class="st0" d="M99.6,368.5L80,424.8h10.2l3.6-10.8H116l3.6,10.8h10.6l-19.6-56.4h-11V368.5z M97,404.2
			l7.9-23.5l7.9,23.5H97z"/>
		<path id="XMLID_277_" class="st0" d="M165.2,386c-2.5-2-5.8-3.5-9.9-3.5c-4.5,0-9,1.7-11.5,5.5l-0.6-4.4h-8.1v55.3h9.8v-17.5
			c1.1,2.3,5.7,4,10.5,4c4.2,0,7.4-1.3,9.9-3.3c4.9-4,7.3-10.2,7.3-18.2C172.6,396.1,170.1,390,165.2,386 M160,413.9
			c-1.4,1.8-3.5,3.2-6.6,3.2c-7.7,0-9.3-7.2-9.3-13.1c0-5.9,1.6-13.2,9.3-13.2c3.1,0,5.2,1.4,6.6,3.2c2,2.7,2.6,6.4,2.6,10
			C162.6,407.5,162,411.2,160,413.9"/>
		<path id="XMLID_274_" class="st0" d="M207.7,386c-2.5-2-5.8-3.5-9.9-3.5c-4.5,0-9,1.7-11.5,5.5l-0.6-4.4h-8.3v55.3h9.8v-17.5
			c2.2,2.3,5.8,4,10.6,4c4.2,0,7.4-1.3,9.9-3.3c4.9-4,7.3-10.2,7.3-18.2C215,396.1,212.6,390,207.7,386 M202.5,413.9
			c-1.4,1.8-3.5,3.2-6.6,3.2c-7.7,0-9.3-7.2-9.3-13.1c0-5.9,1.6-13.2,9.3-13.2c3.1,0,5.2,1.4,6.6,3.2c2,2.7,2.6,6.4,2.6,10
			C205.1,407.5,204.5,411.2,202.5,413.9"/>
		<polygon id="XMLID_273_" class="st0" points="255.4,406.4 231.9,368.5 220.7,368.5 220.7,424.8 231.5,424.8 231.5,386.1 
			255.2,424.8 266.2,424.8 266.2,368.5 255.4,368.5 		"/>
		<path id="XMLID_270_" class="st0" d="M295.8,415.4c-1.4,1.4-3.1,2-6,2c-2.7,0-4.6-0.9-6-2.2c-2-1.9-3.1-5.6-3-7.7h27.3
			c0-1.1,0.1-3,0.1-3c0.2-5.1-0.5-9.9-3.5-14.3c-3.4-5.1-8.9-7.6-14.9-7.6c-5.6,0-10,2-13,5.2c-3.9,4-5.9,9.8-5.9,16.3
			c0,6.7,2.2,12.4,6.3,16.3c3.2,3.1,7.3,5,12.9,5c5.2,0,10.3-1.8,13.7-5.9c1.6-1.9,3.2-4.4,3.5-7.7h-9.4
			C297.3,414,296.6,414.5,295.8,415.4 M282.8,393.5c1.4-1.9,3.8-3.2,6.8-3.2c2.8,0,4.9,1,6.2,2.4c1.6,1.7,2.4,3.9,2.5,7.2h-17.7
			C280.8,396.6,281.4,395.3,282.8,393.5"/>
		<polygon id="XMLID_269_" class="st0" points="337.2,383.6 328.4,396.8 319.3,383.6 307.9,383.6 322.3,403.8 308,424.8 
			318.8,424.8 327.7,411.2 336.9,424.8 347.9,424.8 333.9,403.9 348,383.6 		"/>
		<path id="XMLID_244_" class="st0" d="M376.8,405.1c0,3.3-0.7,7-3,9.2c-1.2,1.2-2.8,2-5,2c-5.2,0-7.1-3-7.1-7.8v-24.9h-9.8v27.1
			c0,8.7,5.4,14.6,14.1,14.6c5.2,0,9.7-2.1,11.7-6.1l0.7,5.6h8.2v-41.2h-9.8L376.8,405.1L376.8,405.1z"/>
		<path id="XMLID_243_" class="st0" d="M415.4,400.1c-4-0.6-5-0.7-8.7-1.2c-2.2-0.3-4.7-1.2-4.7-4.1c0-2.1,1.4-3.6,3.1-4.3
			c1.5-0.6,2.8-0.6,4.2-0.6c2,0,4.2,0.6,5.3,1.8c0.9,1,1.6,2.7,1.6,3.8h9.3c0-3.3-1.4-6-3.6-8.3c-3-3.2-7.9-4.8-12.8-4.8
			c-5.1,0-9.4,1.5-12.4,4.1c-2.4,2.1-4.2,5-4.2,9.2c0,5.2,3.8,9.7,9.3,10.9c3.6,0.8,7.7,1,11.3,1.6c2.5,0.4,4.1,2,4.1,4.3
			c0,4.5-5,5.2-8.3,5.2c-2.8,0-4.6-0.8-6.2-2c-1.3-1-2.2-2.8-2.2-5h-9.2c0,4.3,2,7.4,4.3,9.7c3.4,3.2,8,4.8,13.2,4.8
			c5.6,0,10.7-1.4,14-4.7c2.1-2.1,3.5-5,3.5-8.9C426.6,405.2,421.8,401.2,415.4,400.1"/>
	</g>
	<g id="XMLID_31_">
		<path id="XMLID_241_" class="st0" d="M51.7,368.5v-28.2H23.5C23.5,355.8,36.2,368.4,51.7,368.5z"/>
		<path id="XMLID_236_" class="st0" d="M51.7,378.3c-20.9,0-37.9-17.1-37.9-38h-36.9c0.2,19.8,8.1,38.5,22.2,52.6
			s32.8,21.9,52.6,22.1V378.3z"/>
		<path id="XMLID_225_" class="st0" d="M23.5,453h28.2v-28.2c-13,0-25.4-3.1-36.4-8.4C20.6,427.5,23.5,439.9,23.5,453z"/>
		<path id="XMLID_85_" class="st0" d="M-32.8,453c0-15.6-12.6-28.1-28.2-28.2V453H-32.8z"/>
		<path id="XMLID_72_" class="st0" d="M-61,378.3V415c20.9,0,37.9,17.1,37.9,38h36.9c-0.2-19.8-8.1-38.6-22.2-52.6
			C-22.4,386.3-41.1,378.4-61,378.3z"/>
		<path id="XMLID_49_" class="st0" d="M-32.8,340.3H-61v28.2c13,0,25.4,3.1,36.4,8.3C-29.9,365.8-32.8,353.4-32.8,340.3z"/>
	</g>
</g>
</svg>
