<?xml version="1.0" encoding="utf-8"?>
<!-- Generator: Adobe Illustrator 16.0.0, SVG Export Plug-In . SVG Version: 6.00 Build 0)  -->
<!DOCTYPE svg PUBLIC "-//W3C//DTD SVG 1.1//EN" "http://www.w3.org/Graphics/SVG/1.1/DTD/svg11.dtd">
<svg version="1.1" id="Layer_1" xmlns="http://www.w3.org/2000/svg" xmlns:xlink="http://www.w3.org/1999/xlink" x="0px" y="0px"
	 width="286px" height="72px" viewBox="0 0 286 72" enable-background="new 0 0 286 72" xml:space="preserve">
<path fill="#8B8B8B" d="M100.2,26.55c0.17-0.15,0.27-0.35,0.27-0.61v-3.66c-0.01-0.26-0.1-0.47-0.27-0.63
	c-0.18-0.16-0.4-0.24-0.67-0.25H76.45c-0.27,0.01-0.49,0.08-0.67,0.25c-0.17,0.16-0.27,0.37-0.27,0.63v3.66
	c0.01,0.25,0.1,0.45,0.27,0.61c0.18,0.15,0.4,0.22,0.67,0.22h8.26v28.06c0.01,0.26,0.1,0.48,0.27,0.66c0.18,0.17,0.4,0.26,0.67,0.27
	h4.67c0.27-0.01,0.49-0.1,0.67-0.27c0.17-0.18,0.27-0.39,0.27-0.66V26.78h8.26C99.8,26.77,100.02,26.7,100.2,26.55 M120.71,49.27
	c0.39-1.22,0.6-2.66,0.61-4.34V30.62c-0.01-0.26-0.09-0.49-0.25-0.68c-0.17-0.19-0.38-0.29-0.65-0.29h-4.44
	c-0.27,0.01-0.48,0.11-0.65,0.29c-0.16,0.19-0.24,0.42-0.25,0.68v14.31c0,1.2-0.11,2.18-0.32,2.96c-0.21,0.78-0.52,1.38-0.91,1.81
	c-0.4,0.43-0.87,0.73-1.43,0.91c-0.56,0.17-1.18,0.25-1.86,0.25h-0.28c-0.68,0.01-1.31-0.08-1.86-0.25
	c-0.55-0.18-1.03-0.48-1.43-0.91c-0.39-0.43-0.7-1.03-0.91-1.81c-0.21-0.77-0.32-1.76-0.32-2.96V30.62
	c-0.01-0.26-0.09-0.49-0.25-0.68c-0.16-0.19-0.38-0.29-0.65-0.29h-4.44c-0.27,0.01-0.48,0.11-0.64,0.29
	c-0.17,0.19-0.24,0.42-0.25,0.68v14.31c0.01,1.68,0.21,3.12,0.61,4.34c0.39,1.21,0.91,2.23,1.57,3.06c0.65,0.83,1.38,1.49,2.16,1.99
	c0.79,0.51,1.59,0.89,2.4,1.16c0.81,0.26,1.56,0.44,2.26,0.53c0.7,0.09,1.29,0.14,1.76,0.13h0.28c0.47,0.01,1.06-0.04,1.76-0.13
	c0.71-0.09,1.46-0.27,2.27-0.53c0.81-0.26,1.6-0.65,2.4-1.16c0.79-0.5,1.51-1.17,2.16-1.99C119.8,51.5,120.31,50.48,120.71,49.27
	 M140,44.51c0.02,1.27-0.12,2.42-0.41,3.4c-0.28,1-0.79,1.77-1.53,2.35c-0.74,0.57-1.78,0.86-3.11,0.87c-0.57,0-1.15-0.01-1.73-0.04
	c-0.58-0.03-1.12-0.06-1.6-0.11c-0.49-0.06-0.89-0.11-1.2-0.17V34.65c0.45-0.06,0.95-0.11,1.51-0.17c0.56-0.05,1.1-0.09,1.64-0.12
	c0.54-0.02,1-0.04,1.39-0.04c1.34,0.01,2.38,0.3,3.11,0.87c0.73,0.57,1.24,1.35,1.53,2.35c0.29,0.99,0.43,2.12,0.41,3.4V44.51z
	 M145,50.73c0.83-1.73,1.23-3.81,1.23-6.22v-3.57c0-2.42-0.41-4.49-1.23-6.23c-0.83-1.73-2.08-3.06-3.75-3.99
	c-1.67-0.93-3.77-1.4-6.3-1.4c-0.57,0-1.25,0.02-2.04,0.08c-0.78,0.05-1.61,0.13-2.49,0.25v-8.19c-0.01-0.26-0.1-0.48-0.27-0.66
	c-0.18-0.17-0.4-0.26-0.67-0.27h-4.34c-0.27,0.01-0.49,0.1-0.67,0.27c-0.17,0.18-0.27,0.39-0.28,0.66v32.23
	c0,0.23,0.02,0.42,0.09,0.57c0.07,0.15,0.19,0.28,0.38,0.38c0.18,0.11,0.46,0.2,0.81,0.29c0.98,0.25,2.01,0.46,3.09,0.64
	c1.08,0.18,2.15,0.32,3.24,0.42c1.09,0.09,2.14,0.15,3.15,0.15c2.53-0.01,4.63-0.48,6.3-1.41C142.92,53.8,144.17,52.47,145,50.73
	 M163.88,40.48h-10V40.3c0.01-1.22,0.23-2.25,0.66-3.1c0.43-0.85,1.02-1.49,1.78-1.93c0.75-0.44,1.63-0.66,2.61-0.66
	c0.98,0,1.85,0.22,2.59,0.67c0.74,0.45,1.32,1.1,1.73,1.95c0.42,0.84,0.63,1.88,0.64,3.08V40.48z M169.93,44.54
	c0.15-0.2,0.22-0.49,0.22-0.86v-2.59c0-1.73-0.24-3.32-0.73-4.75c-0.49-1.44-1.2-2.68-2.16-3.72c-0.95-1.05-2.13-1.86-3.52-2.43
	c-1.39-0.57-3-0.86-4.82-0.86c-2.41,0.01-4.46,0.49-6.14,1.44c-1.68,0.95-2.97,2.31-3.86,4.06c-0.88,1.75-1.32,3.84-1.33,6.26v3.43
	c0.01,1.82,0.26,3.39,0.73,4.71c0.48,1.33,1.12,2.43,1.93,3.33c0.81,0.89,1.71,1.6,2.71,2.12c0.99,0.53,2.01,0.9,3.06,1.13
	c1.04,0.22,2.05,0.34,3,0.33c1.05,0,1.98-0.02,2.79-0.05c0.81-0.03,1.55-0.08,2.23-0.14c0.68-0.06,1.35-0.15,2.01-0.25
	c0.66-0.1,1.37-0.21,2.12-0.35c0.42-0.06,0.69-0.19,0.82-0.38c0.12-0.18,0.19-0.46,0.17-0.83v-3.06c-0.01-0.23-0.08-0.4-0.24-0.52
	c-0.17-0.11-0.36-0.18-0.61-0.18h-0.14c-0.67,0.06-1.45,0.13-2.37,0.2c-0.91,0.07-1.9,0.13-2.97,0.18
	c-1.07,0.05-2.19,0.08-3.34,0.08c-1.12-0.01-2.06-0.19-2.79-0.54c-0.74-0.35-1.32-0.82-1.74-1.4c-0.42-0.57-0.72-1.2-0.89-1.89
	c-0.17-0.69-0.25-1.37-0.24-2.05v-0.14h15.38C169.54,44.84,169.78,44.74,169.93,44.54 M203.97,55.59c0.16-0.11,0.24-0.28,0.25-0.52
	V23.26c0-0.35-0.09-0.66-0.26-0.93c-0.17-0.28-0.4-0.5-0.68-0.67c-0.28-0.17-0.6-0.25-0.95-0.25h-3.87
	c-0.38,0.01-0.72,0.11-1.03,0.31c-0.3,0.21-0.54,0.47-0.71,0.8l-7.13,14.15c-0.11,0.21-0.2,0.37-0.27,0.48
	c-0.07,0.12-0.16,0.17-0.24,0.17c-0.09,0-0.17-0.05-0.25-0.17c-0.07-0.11-0.17-0.27-0.28-0.48l-7.12-14.15
	c-0.18-0.33-0.41-0.59-0.72-0.8c-0.31-0.2-0.64-0.3-1.03-0.31h-3.87c-0.35,0-0.67,0.08-0.95,0.25c-0.28,0.16-0.51,0.39-0.67,0.67
	c-0.17,0.28-0.25,0.59-0.26,0.93v31.81c0.01,0.23,0.09,0.4,0.24,0.52c0.15,0.11,0.34,0.18,0.56,0.18h4.77
	c0.22-0.01,0.39-0.11,0.53-0.29c0.14-0.18,0.21-0.39,0.22-0.63v-21.5c0-0.16,0.01-0.28,0.03-0.35c0.02-0.07,0.07-0.11,0.11-0.11
	c0.02,0,0.05,0.03,0.1,0.08c0.04,0.06,0.09,0.12,0.13,0.19l4.58,8.83c0.15,0.26,0.36,0.45,0.63,0.59c0.28,0.13,0.57,0.2,0.88,0.2
	h4.76c0.32,0,0.61-0.07,0.88-0.2c0.27-0.13,0.48-0.33,0.63-0.59l4.53-8.83c0.05-0.07,0.1-0.14,0.13-0.19
	c0.05-0.05,0.08-0.08,0.1-0.08c0.05,0,0.08,0.04,0.11,0.11c0.02,0.08,0.03,0.19,0.03,0.35v21.5c0.01,0.24,0.08,0.46,0.22,0.63
	c0.14,0.18,0.32,0.28,0.53,0.29h4.77C203.63,55.77,203.82,55.7,203.97,55.59 M222.34,44.61c0,1.27-0.19,2.38-0.58,3.31
	c-0.38,0.94-0.95,1.65-1.7,2.16c-0.75,0.52-1.67,0.77-2.78,0.78c-1.1-0.01-2.03-0.26-2.78-0.78c-0.75-0.51-1.31-1.23-1.7-2.16
	c-0.39-0.93-0.57-2.04-0.57-3.31v-3.75c0-1.27,0.19-2.38,0.57-3.31c0.39-0.93,0.95-1.65,1.7-2.16c0.75-0.52,1.67-0.77,2.78-0.78
	c1.1,0.01,2.03,0.26,2.78,0.78c0.75,0.51,1.31,1.23,1.7,2.16c0.39,0.93,0.58,2.04,0.58,3.31V44.61z M227.85,49.2
	c0.48-1.4,0.72-2.93,0.72-4.59v-3.75c0-1.67-0.25-3.2-0.72-4.6c-0.47-1.4-1.19-2.62-2.14-3.65c-0.94-1.03-2.12-1.84-3.52-2.41
	c-1.41-0.57-3.03-0.87-4.89-0.87c-1.85,0.01-3.49,0.3-4.89,0.87c-1.41,0.57-2.59,1.37-3.53,2.41c-0.95,1.04-1.66,2.25-2.14,3.65
	c-0.48,1.4-0.72,2.93-0.72,4.6v3.75c0,1.67,0.24,3.2,0.72,4.59c0.48,1.4,1.19,2.62,2.14,3.66c0.94,1.03,2.12,1.84,3.53,2.41
	c1.4,0.57,3.03,0.86,4.89,0.87c1.86-0.01,3.48-0.3,4.89-0.87c1.4-0.57,2.58-1.38,3.52-2.41C226.66,51.82,227.38,50.6,227.85,49.2
	 M245.75,50.76c-0.45,0.06-0.95,0.12-1.51,0.18c-0.56,0.05-1.1,0.1-1.64,0.14c-0.53,0.04-1,0.05-1.38,0.05
	c-1.34-0.01-2.38-0.3-3.12-0.87c-0.73-0.57-1.24-1.35-1.53-2.35c-0.28-0.99-0.42-2.13-0.41-3.4v-3.57c-0.02-1.28,0.12-2.42,0.41-3.4
	c0.29-1,0.79-1.77,1.53-2.35c0.74-0.57,1.78-0.87,3.12-0.87c0.57,0,1.15,0.02,1.73,0.07c0.58,0.04,1.12,0.09,1.61,0.16
	c0.49,0.06,0.89,0.13,1.19,0.19V50.76z M250.83,61.02c0.77-1.38,1.15-3.17,1.15-5.35V31.78c0.01-0.23-0.02-0.42-0.08-0.57
	c-0.07-0.15-0.19-0.28-0.38-0.39c-0.18-0.11-0.46-0.2-0.81-0.29c-0.98-0.25-2.01-0.46-3.09-0.64c-1.07-0.18-2.15-0.32-3.24-0.42
	c-1.09-0.1-2.14-0.15-3.15-0.15c-2.53,0.01-4.63,0.48-6.3,1.4c-1.67,0.93-2.92,2.26-3.74,3.99c-0.83,1.74-1.23,3.81-1.23,6.23v3.57
	c0,2.41,0.41,4.49,1.23,6.22c0.83,1.73,2.07,3.06,3.74,4c1.67,0.93,3.77,1.4,6.3,1.41c0.29,0,0.64-0.03,1.05-0.05
	c0.41-0.03,0.83-0.08,1.27-0.13c0.44-0.05,0.86-0.11,1.24-0.17c0.39-0.05,0.71-0.11,0.97-0.16V56c0.01,0.79-0.04,1.46-0.15,1.99
	c-0.1,0.53-0.31,0.96-0.61,1.27c-0.3,0.32-0.74,0.54-1.33,0.67c-0.58,0.13-1.34,0.2-2.3,0.19c-0.55,0-1.22-0.02-1.99-0.06
	c-0.77-0.04-1.58-0.09-2.41-0.15c-0.84-0.06-1.65-0.12-2.42-0.18c-0.76-0.06-1.42-0.12-1.96-0.16h-0.06h-0.03
	c-0.27,0.01-0.48,0.08-0.64,0.22c-0.17,0.14-0.25,0.33-0.25,0.56v2.46c0,0.31,0.07,0.56,0.23,0.73c0.15,0.16,0.38,0.29,0.72,0.38
	c0.88,0.29,2.08,0.54,3.58,0.76c1.5,0.22,3.26,0.33,5.25,0.35c2.41,0.01,4.39-0.32,5.96-0.96C248.9,63.42,250.06,62.4,250.83,61.02
	 M276.05,49.27c0.39-1.22,0.6-2.66,0.61-4.34V30.62c-0.01-0.26-0.09-0.49-0.25-0.68c-0.17-0.19-0.38-0.29-0.65-0.29h-4.44
	c-0.27,0.01-0.48,0.11-0.64,0.29c-0.16,0.19-0.25,0.42-0.25,0.68v14.31c0,1.2-0.11,2.18-0.32,2.96c-0.21,0.78-0.52,1.38-0.91,1.81
	c-0.4,0.43-0.87,0.73-1.43,0.91c-0.56,0.17-1.18,0.25-1.86,0.25h-0.28c-0.69,0.01-1.31-0.08-1.87-0.25
	c-0.55-0.18-1.03-0.48-1.43-0.91c-0.4-0.43-0.7-1.03-0.91-1.81c-0.21-0.77-0.33-1.76-0.33-2.96V30.62
	c-0.01-0.26-0.08-0.49-0.25-0.68c-0.17-0.19-0.38-0.29-0.64-0.29h-4.44c-0.27,0.01-0.48,0.11-0.64,0.29
	c-0.17,0.19-0.24,0.42-0.25,0.68v14.31c0.01,1.68,0.21,3.12,0.61,4.34c0.39,1.21,0.91,2.23,1.57,3.06c0.65,0.83,1.37,1.49,2.16,1.99
	c0.79,0.51,1.59,0.89,2.4,1.16c0.81,0.26,1.56,0.44,2.26,0.53c0.7,0.09,1.29,0.14,1.76,0.13h0.28c0.47,0.01,1.06-0.04,1.76-0.13
	c0.71-0.09,1.46-0.27,2.26-0.53c0.81-0.26,1.61-0.65,2.4-1.16c0.79-0.5,1.51-1.17,2.16-1.99C275.14,51.5,275.66,50.48,276.05,49.27
	 M286,54.79V21.45c-0.01-0.26-0.09-0.48-0.25-0.66c-0.17-0.17-0.38-0.26-0.65-0.27h-4.39c-0.27,0.01-0.49,0.1-0.67,0.27
	c-0.17,0.18-0.27,0.39-0.27,0.66v33.34c0.01,0.26,0.1,0.48,0.27,0.68c0.18,0.18,0.4,0.28,0.67,0.29h4.39
	c0.27-0.01,0.48-0.11,0.65-0.29C285.91,55.28,285.99,55.06,286,54.79"/>
<g>
	<linearGradient id="SVGID_1_" gradientUnits="userSpaceOnUse" x1="44.4253" y1="15.2998" x2="63.2204" y2="55.7232">
		<stop  offset="5.076140e-03" style="stop-color:#00688F"/>
		<stop  offset="0.0937" style="stop-color:#006F98"/>
		<stop  offset="0.2381" style="stop-color:#0080B0"/>
		<stop  offset="0.4195" style="stop-color:#009DD8"/>
		<stop  offset="0.51" style="stop-color:#00ADEE"/>
		<stop  offset="1" style="stop-color:#E1F3FC"/>
	</linearGradient>
	<path fill-rule="evenodd" clip-rule="evenodd" fill="url(#SVGID_1_)" d="M63.58,55.55c3.57-2.48,1.37-7.42-16.94-17.97
		C32.88,29.71,29.64,24.14,31.51,6.81c5.92,3.97,14.62,9.21,21.47,12.99c16.13,9.3,17.51,14.21,16.61,20.79
		C68.86,45.93,66.85,54.23,63.58,55.55z"/>
	
		<linearGradient id="SVGID_2_" gradientUnits="userSpaceOnUse" x1="-47.7275" y1="133.1113" x2="-28.9302" y2="173.5395" gradientTransform="matrix(-0.5 0.866 -0.866 -0.5 135.8809 167.6562)">
		<stop  offset="5.076140e-03" style="stop-color:#00688F"/>
		<stop  offset="0.0937" style="stop-color:#006F98"/>
		<stop  offset="0.2381" style="stop-color:#0080B0"/>
		<stop  offset="0.4195" style="stop-color:#009DD8"/>
		<stop  offset="0.51" style="stop-color:#00ADEE"/>
		<stop  offset="1" style="stop-color:#E1F3FC"/>
	</linearGradient>
	<path fill-rule="evenodd" clip-rule="evenodd" fill="url(#SVGID_2_)" d="M0.03,56.23c0.37,4.34,5.75,4.9,24.05-5.68
		c13.69-7.99,20.14-8.01,34.21,2.28c-6.4,3.14-15.29,8.05-21.98,12.1c-16.12,9.33-21.07,8.05-26.32,3.99
		C5.72,65.62-0.45,59.74,0.03,56.23z"/>
	<linearGradient id="SVGID_3_" gradientUnits="userSpaceOnUse" x1="35.3101" y1="30.1968" x2="32.8963" y2="0.7136">
		<stop  offset="0" style="stop-color:#EB008B"/>
		<stop  offset="1" style="stop-color:#90278E"/>
	</linearGradient>
	<path fill-rule="evenodd" clip-rule="evenodd" fill="url(#SVGID_3_)" d="M24.12,24.5c0-24.64,4.25-25.56,7.12-23.65
		c5.97,3.97-0.78,27.26,15.41,36.73C41,34.65,38.16,32.37,24.12,24.5z"/>
	<linearGradient id="SVGID_4_" gradientUnits="userSpaceOnUse" x1="6.0371" y1="37.6172" x2="31.3742" y2="0.9291">
		<stop  offset="5.076140e-03" style="stop-color:#00688F"/>
		<stop  offset="0.0937" style="stop-color:#006F98"/>
		<stop  offset="0.2381" style="stop-color:#0080B0"/>
		<stop  offset="0.4195" style="stop-color:#009DD8"/>
		<stop  offset="0.51" style="stop-color:#00ADEE"/>
		<stop  offset="1" style="stop-color:#E1F3FC"/>
	</linearGradient>
	<path fill-rule="evenodd" clip-rule="evenodd" fill="url(#SVGID_4_)" d="M31.23,0.85c-3.94-1.84-7.12,2.52-7.12,23.65
		c0.06,15.85-3.14,21.46-19.1,28.49C5.5,45.87,5.7,35.72,5.54,27.91c0-18.63,3.58-22.27,9.71-24.78
		C20.26,1.08,28.44-1.31,31.23,0.85z"/>
	<linearGradient id="SVGID_5_" gradientUnits="userSpaceOnUse" x1="63.3726" y1="56.0488" x2="35.6597" y2="44.1991">
		<stop  offset="0" style="stop-color:#F48120"/>
		<stop  offset="1" style="stop-color:#FFF100"/>
	</linearGradient>
	<path fill-rule="evenodd" clip-rule="evenodd" fill="url(#SVGID_5_)" d="M46.64,37.58C68,49.88,66.66,54.03,63.58,55.55
		c-6.41,3.18-23.24-14.29-39.51-5C29.43,47.14,32.81,45.81,46.64,37.58z"/>
	<linearGradient id="SVGID_6_" gradientUnits="userSpaceOnUse" x1="-0.5518" y1="55.4385" x2="23.9462" y2="37.6395">
		<stop  offset="0" style="stop-color:#4C743A"/>
		<stop  offset="1" style="stop-color:#8BC53F"/>
	</linearGradient>
	<path fill-rule="evenodd" clip-rule="evenodd" fill="url(#SVGID_6_)" d="M24.08,50.55C2.74,62.89-0.18,59.67,0.03,56.23
		c0.45-7.14,23.99-12.98,24.08-31.73C24.4,30.86,23.86,34.46,24.08,50.55z"/>
	<path opacity="0.5" fill-rule="evenodd" clip-rule="evenodd" fill="#231F20" d="M25.33,25.19C25.07,7.91,26.82-0.2,31.23,0.85
		c-3.94-1.84-7.12,2.52-7.12,23.65C24.52,24.74,24.93,24.97,25.33,25.19L25.33,25.19z M43.57,35.39
		c-5.44-5.04-7.54-13.33-6.31-24.87c-1.09-0.68-2.15-1.36-3.16-2.01C35.11,16.43,35.2,28.25,43.57,35.39z"/>
	<path opacity="0.5" fill-rule="evenodd" clip-rule="evenodd" fill="#231F20" d="M24.03,49.19c-14.83,8.86-22.71,11.72-24,7.38
		c0.05,4.34,5.72,4.59,24.02-5.98C24.04,50.12,24.03,49.65,24.03,49.19L24.03,49.19z M23.74,28.31
		C21.73,39.12,11.56,45.11,5.2,49.94c0.06-1.2,0.11-2.45,0.16-3.73C15.97,41.5,22.1,35.54,23.74,28.31z"/>
	<path opacity="0.5" fill-rule="evenodd" clip-rule="evenodd" fill="#231F20" d="M45.46,38.29C60.55,46.7,67.29,52.6,63.59,55.57
		c4.25-2.08,1.38-7.42-16.92-17.99C46.26,37.82,45.86,38.06,45.46,38.29L45.46,38.29z M27.52,48.98
		c10.37-3.67,20.64,2.15,28.01,5.25c-1.07,0.55-2.18,1.11-3.32,1.71C42.83,49.12,34.6,46.79,27.52,48.98z"/>
</g>
</svg>
