<?xml version="1.0" encoding="UTF-8" standalone="no"?>
<svg width="286px" height="72px" viewBox="0 0 286 72" version="1.1" xmlns="http://www.w3.org/2000/svg" xmlns:xlink="http://www.w3.org/1999/xlink" xmlns:sketch="http://www.bohemiancoding.com/sketch/ns">
    <!-- Generator: Sketch 3.4.4 (17249) - http://www.bohemiancoding.com/sketch -->
    <title>tubemogul</title>
    <desc>Created with Sketch.</desc>
    <defs>
        <linearGradient x1="34.5578972%" y1="17.4185474%" x2="83.0314499%" y2="100.355355%" id="linearGradient-1">
            <stop stop-color="#00688F" offset="0.507614%"></stop>
            <stop stop-color="#006F98" offset="9.37%"></stop>
            <stop stop-color="#0080B0" offset="23.81%"></stop>
            <stop stop-color="#009DD8" offset="41.95%"></stop>
            <stop stop-color="#00ADEE" offset="51%"></stop>
            <stop stop-color="#E1F3FC" offset="100%"></stop>
        </linearGradient>
        <linearGradient x1="76.2899485%" y1="55.0194975%" x2="0.0981267502%" y2="40.5449157%" id="linearGradient-2">
            <stop stop-color="#00688F" offset="0.507614%"></stop>
            <stop stop-color="#006F98" offset="9.37%"></stop>
            <stop stop-color="#0080B0" offset="23.81%"></stop>
            <stop stop-color="#009DD8" offset="41.95%"></stop>
            <stop stop-color="#00ADEE" offset="51%"></stop>
            <stop stop-color="#E1F3FC" offset="100%"></stop>
        </linearGradient>
        <linearGradient x1="49.6675544%" y1="80.2427835%" x2="38.9538393%" y2="1.34664551%" id="linearGradient-3">
            <stop stop-color="#EB008B" offset="0%"></stop>
            <stop stop-color="#90278E" offset="100%"></stop>
        </linearGradient>
        <linearGradient x1="3.91723875%" y1="70.9901139%" x2="100.549962%" y2="1.75629815%" id="linearGradient-4">
            <stop stop-color="#00688F" offset="0.507614%"></stop>
            <stop stop-color="#006F98" offset="9.37%"></stop>
            <stop stop-color="#0080B0" offset="23.81%"></stop>
            <stop stop-color="#009DD8" offset="41.95%"></stop>
            <stop stop-color="#00ADEE" offset="51%"></stop>
            <stop stop-color="#E1F3FC" offset="100%"></stop>
        </linearGradient>
        <linearGradient x1="95.282832%" y1="100.579262%" x2="28.0973635%" y2="36.0469652%" id="linearGradient-5">
            <stop stop-color="#F48120" offset="0%"></stop>
            <stop stop-color="#FFF100" offset="100%"></stop>
        </linearGradient>
        <linearGradient x1="-2.36476152%" y1="88.7904081%" x2="98.9592998%" y2="37.709054%" id="linearGradient-6">
            <stop stop-color="#4C743A" offset="0%"></stop>
            <stop stop-color="#8BC53F" offset="100%"></stop>
        </linearGradient>
    </defs>
    <g id="Page-1" stroke="none" stroke-width="1" fill="none" fill-rule="evenodd" sketch:type="MSPage">
        <g id="tubemogul" sketch:type="MSLayerGroup" transform="translate(0.000000, -1.000000)">
            <g id="Layer_1" sketch:type="MSShapeGroup">
                <path d="M100.2,27.55 C100.37,27.4 100.47,27.2 100.47,26.94 L100.47,23.28 C100.46,23.02 100.37,22.81 100.2,22.65 C100.02,22.49 99.8,22.41 99.53,22.4 L76.45,22.4 C76.18,22.41 75.96,22.48 75.78,22.65 C75.61,22.81 75.51,23.02 75.51,23.28 L75.51,26.94 C75.52,27.19 75.61,27.39 75.78,27.55 C75.96,27.7 76.18,27.77 76.45,27.77 L84.71,27.77 L84.71,55.83 C84.72,56.09 84.81,56.31 84.98,56.49 C85.16,56.66 85.38,56.75 85.65,56.76 L90.32,56.76 C90.59,56.75 90.81,56.66 90.99,56.49 C91.16,56.31 91.26,56.1 91.26,55.83 L91.26,27.78 L99.52,27.78 C99.8,27.77 100.02,27.7 100.2,27.55 L100.2,27.55 Z M120.71,50.27 C121.1,49.05 121.31,47.61 121.32,45.93 L121.32,31.62 C121.31,31.36 121.23,31.13 121.07,30.94 C120.9,30.75 120.69,30.65 120.42,30.65 L115.98,30.65 C115.71,30.66 115.5,30.76 115.33,30.94 C115.17,31.13 115.09,31.36 115.08,31.62 L115.08,45.93 C115.08,47.13 114.97,48.11 114.76,48.89 C114.55,49.67 114.24,50.27 113.85,50.7 C113.45,51.13 112.98,51.43 112.42,51.61 C111.86,51.78 111.24,51.86 110.56,51.86 L110.28,51.86 C109.6,51.87 108.97,51.78 108.42,51.61 C107.87,51.43 107.39,51.13 106.99,50.7 C106.6,50.27 106.29,49.67 106.08,48.89 C105.87,48.12 105.76,47.13 105.76,45.93 L105.76,31.62 C105.75,31.36 105.67,31.13 105.51,30.94 C105.35,30.75 105.13,30.65 104.86,30.65 L100.42,30.65 C100.15,30.66 99.94,30.76 99.78,30.94 C99.61,31.13 99.54,31.36 99.53,31.62 L99.53,45.93 C99.54,47.61 99.74,49.05 100.14,50.27 C100.53,51.48 101.05,52.5 101.71,53.33 C102.36,54.16 103.09,54.82 103.87,55.32 C104.66,55.83 105.46,56.21 106.27,56.48 C107.08,56.74 107.83,56.92 108.53,57.01 C109.23,57.1 109.82,57.15 110.29,57.14 L110.57,57.14 C111.04,57.15 111.63,57.1 112.33,57.01 C113.04,56.92 113.79,56.74 114.6,56.48 C115.41,56.22 116.2,55.83 117,55.32 C117.79,54.82 118.51,54.15 119.16,53.33 C119.8,52.5 120.31,51.48 120.71,50.27 L120.71,50.27 Z M140,45.51 C140.02,46.78 139.88,47.93 139.59,48.91 C139.31,49.91 138.8,50.68 138.06,51.26 C137.32,51.83 136.28,52.12 134.95,52.13 C134.38,52.13 133.8,52.12 133.22,52.09 C132.64,52.06 132.1,52.03 131.62,51.98 C131.13,51.92 130.73,51.87 130.42,51.81 L130.42,35.65 C130.87,35.59 131.37,35.54 131.93,35.48 C132.49,35.43 133.03,35.39 133.57,35.36 C134.11,35.34 134.57,35.32 134.96,35.32 C136.3,35.33 137.34,35.62 138.07,36.19 C138.8,36.76 139.31,37.54 139.6,38.54 C139.89,39.53 140.03,40.66 140.01,41.94 L140.01,45.51 L140,45.51 Z M145,51.73 C145.83,50 146.23,47.92 146.23,45.51 L146.23,41.94 C146.23,39.52 145.82,37.45 145,35.71 C144.17,33.98 142.92,32.65 141.25,31.72 C139.58,30.79 137.48,30.32 134.95,30.32 C134.38,30.32 133.7,30.34 132.91,30.4 C132.13,30.45 131.3,30.53 130.42,30.65 L130.42,22.46 C130.41,22.2 130.32,21.98 130.15,21.8 C129.97,21.63 129.75,21.54 129.48,21.53 L125.14,21.53 C124.87,21.54 124.65,21.63 124.47,21.8 C124.3,21.98 124.2,22.19 124.19,22.46 L124.19,54.69 C124.19,54.92 124.21,55.11 124.28,55.26 C124.35,55.41 124.47,55.54 124.66,55.64 C124.84,55.75 125.12,55.84 125.47,55.93 C126.45,56.18 127.48,56.39 128.56,56.57 C129.64,56.75 130.71,56.89 131.8,56.99 C132.89,57.08 133.94,57.14 134.95,57.14 C137.48,57.13 139.58,56.66 141.25,55.73 C142.92,54.8 144.17,53.47 145,51.73 L145,51.73 Z M163.88,41.48 L153.88,41.48 L153.88,41.3 C153.89,40.08 154.11,39.05 154.54,38.2 C154.97,37.35 155.56,36.71 156.32,36.27 C157.07,35.83 157.95,35.61 158.93,35.61 C159.91,35.61 160.78,35.83 161.52,36.28 C162.26,36.73 162.84,37.38 163.25,38.23 C163.67,39.07 163.88,40.11 163.89,41.31 L163.89,41.48 L163.88,41.48 Z M169.93,45.54 C170.08,45.34 170.15,45.05 170.15,44.68 L170.15,42.09 C170.15,40.36 169.91,38.77 169.42,37.34 C168.93,35.9 168.22,34.66 167.26,33.62 C166.31,32.57 165.13,31.76 163.74,31.19 C162.35,30.62 160.74,30.33 158.92,30.33 C156.51,30.34 154.46,30.82 152.78,31.77 C151.1,32.72 149.81,34.08 148.92,35.83 C148.04,37.58 147.6,39.67 147.59,42.09 L147.59,45.52 C147.6,47.34 147.85,48.91 148.32,50.23 C148.8,51.56 149.44,52.66 150.25,53.56 C151.06,54.45 151.96,55.16 152.96,55.68 C153.95,56.21 154.97,56.58 156.02,56.81 C157.06,57.03 158.07,57.15 159.02,57.14 C160.07,57.14 161,57.12 161.81,57.09 C162.62,57.06 163.36,57.01 164.04,56.95 C164.72,56.89 165.39,56.8 166.05,56.7 C166.71,56.6 167.42,56.49 168.17,56.35 C168.59,56.29 168.86,56.16 168.99,55.97 C169.11,55.79 169.18,55.51 169.16,55.14 L169.16,52.08 C169.15,51.85 169.08,51.68 168.92,51.56 C168.75,51.45 168.56,51.38 168.31,51.38 L168.17,51.38 C167.5,51.44 166.72,51.51 165.8,51.58 C164.89,51.65 163.9,51.71 162.83,51.76 C161.76,51.81 160.64,51.84 159.49,51.84 C158.37,51.83 157.43,51.65 156.7,51.3 C155.96,50.95 155.38,50.48 154.96,49.9 C154.54,49.33 154.24,48.7 154.07,48.01 C153.9,47.32 153.82,46.64 153.83,45.96 L153.83,45.82 L169.21,45.82 C169.54,45.84 169.78,45.74 169.93,45.54 L169.93,45.54 Z M203.97,56.59 C204.13,56.48 204.21,56.31 204.22,56.07 L204.22,24.26 C204.22,23.91 204.13,23.6 203.96,23.33 C203.79,23.05 203.56,22.83 203.28,22.66 C203,22.49 202.68,22.41 202.33,22.41 L198.46,22.41 C198.08,22.42 197.74,22.52 197.43,22.72 C197.13,22.93 196.89,23.19 196.72,23.52 L189.59,37.67 C189.48,37.88 189.39,38.04 189.32,38.15 C189.25,38.27 189.16,38.32 189.08,38.32 C188.99,38.32 188.91,38.27 188.83,38.15 C188.76,38.04 188.66,37.88 188.55,37.67 L181.43,23.52 C181.25,23.19 181.02,22.93 180.71,22.72 C180.4,22.52 180.07,22.42 179.68,22.41 L175.81,22.41 C175.46,22.41 175.14,22.49 174.86,22.66 C174.58,22.82 174.35,23.05 174.19,23.33 C174.02,23.61 173.94,23.92 173.93,24.26 L173.93,56.07 C173.94,56.3 174.02,56.47 174.17,56.59 C174.32,56.7 174.51,56.77 174.73,56.77 L179.5,56.77 C179.72,56.76 179.89,56.66 180.03,56.48 C180.17,56.3 180.24,56.09 180.25,55.85 L180.25,34.35 C180.25,34.19 180.26,34.07 180.28,34 C180.3,33.93 180.35,33.89 180.39,33.89 C180.41,33.89 180.44,33.92 180.49,33.97 C180.53,34.03 180.58,34.09 180.62,34.16 L185.2,42.99 C185.35,43.25 185.56,43.44 185.83,43.58 C186.11,43.71 186.4,43.78 186.71,43.78 L191.47,43.78 C191.79,43.78 192.08,43.71 192.35,43.58 C192.62,43.45 192.83,43.25 192.98,42.99 L197.51,34.16 C197.56,34.09 197.61,34.02 197.64,33.97 C197.69,33.92 197.72,33.89 197.74,33.89 C197.79,33.89 197.82,33.93 197.85,34 C197.87,34.08 197.88,34.19 197.88,34.35 L197.88,55.85 C197.89,56.09 197.96,56.31 198.1,56.48 C198.24,56.66 198.42,56.76 198.63,56.77 L203.4,56.77 C203.63,56.77 203.82,56.7 203.97,56.59 L203.97,56.59 Z M222.34,45.61 C222.34,46.88 222.15,47.99 221.76,48.92 C221.38,49.86 220.81,50.57 220.06,51.08 C219.31,51.6 218.39,51.85 217.28,51.86 C216.18,51.85 215.25,51.6 214.5,51.08 C213.75,50.57 213.19,49.85 212.8,48.92 C212.41,47.99 212.23,46.88 212.23,45.61 L212.23,41.86 C212.23,40.59 212.42,39.48 212.8,38.55 C213.19,37.62 213.75,36.9 214.5,36.39 C215.25,35.87 216.17,35.62 217.28,35.61 C218.38,35.62 219.31,35.87 220.06,36.39 C220.81,36.9 221.37,37.62 221.76,38.55 C222.15,39.48 222.34,40.59 222.34,41.86 L222.34,45.61 L222.34,45.61 Z M227.85,50.2 C228.33,48.8 228.57,47.27 228.57,45.61 L228.57,41.86 C228.57,40.19 228.32,38.66 227.85,37.26 C227.38,35.86 226.66,34.64 225.71,33.61 C224.77,32.58 223.59,31.77 222.19,31.2 C220.78,30.63 219.16,30.33 217.3,30.33 C215.45,30.34 213.81,30.63 212.41,31.2 C211,31.77 209.82,32.57 208.88,33.61 C207.93,34.65 207.22,35.86 206.74,37.26 C206.26,38.66 206.02,40.19 206.02,41.86 L206.02,45.61 C206.02,47.28 206.26,48.81 206.74,50.2 C207.22,51.6 207.93,52.82 208.88,53.86 C209.82,54.89 211,55.7 212.41,56.27 C213.81,56.84 215.44,57.13 217.3,57.14 C219.16,57.13 220.78,56.84 222.19,56.27 C223.59,55.7 224.77,54.89 225.71,53.86 C226.66,52.82 227.38,51.6 227.85,50.2 L227.85,50.2 Z M245.75,51.76 C245.3,51.82 244.8,51.88 244.24,51.94 C243.68,51.99 243.14,52.04 242.6,52.08 C242.07,52.12 241.6,52.13 241.22,52.13 C239.88,52.12 238.84,51.83 238.1,51.26 C237.37,50.69 236.86,49.91 236.57,48.91 C236.29,47.92 236.15,46.78 236.16,45.51 L236.16,41.94 C236.14,40.66 236.28,39.52 236.57,38.54 C236.86,37.54 237.36,36.77 238.1,36.19 C238.84,35.62 239.88,35.32 241.22,35.32 C241.79,35.32 242.37,35.34 242.95,35.39 C243.53,35.43 244.07,35.48 244.56,35.55 C245.05,35.61 245.45,35.68 245.75,35.74 L245.75,51.76 L245.75,51.76 Z M250.83,62.02 C251.6,60.64 251.98,58.85 251.98,56.67 L251.98,32.78 C251.99,32.55 251.96,32.36 251.9,32.21 C251.83,32.06 251.71,31.93 251.52,31.82 C251.34,31.71 251.06,31.62 250.71,31.53 C249.73,31.28 248.7,31.07 247.62,30.89 C246.55,30.71 245.47,30.57 244.38,30.47 C243.29,30.37 242.24,30.32 241.23,30.32 C238.7,30.33 236.6,30.8 234.93,31.72 C233.26,32.65 232.01,33.98 231.19,35.71 C230.36,37.45 229.96,39.52 229.96,41.94 L229.96,45.51 C229.96,47.92 230.37,50 231.19,51.73 C232.02,53.46 233.26,54.79 234.93,55.73 C236.6,56.66 238.7,57.13 241.23,57.14 C241.52,57.14 241.87,57.11 242.28,57.09 C242.69,57.06 243.11,57.01 243.55,56.96 C243.99,56.91 244.41,56.85 244.79,56.79 C245.18,56.74 245.5,56.68 245.76,56.63 L245.76,57 C245.77,57.79 245.72,58.46 245.61,58.99 C245.51,59.52 245.3,59.95 245,60.26 C244.7,60.58 244.26,60.8 243.67,60.93 C243.09,61.06 242.33,61.13 241.37,61.12 C240.82,61.12 240.15,61.1 239.38,61.06 C238.61,61.02 237.8,60.97 236.97,60.91 C236.13,60.85 235.32,60.79 234.55,60.73 C233.79,60.67 233.13,60.61 232.59,60.57 L232.53,60.57 L232.5,60.57 C232.23,60.58 232.02,60.65 231.86,60.79 C231.69,60.93 231.61,61.12 231.61,61.35 L231.61,63.81 C231.61,64.12 231.68,64.37 231.84,64.54 C231.99,64.7 232.22,64.83 232.56,64.92 C233.44,65.21 234.64,65.46 236.14,65.68 C237.64,65.9 239.4,66.01 241.39,66.03 C243.8,66.04 245.78,65.71 247.35,65.07 C248.9,64.42 250.06,63.4 250.83,62.02 L250.83,62.02 Z M276.05,50.27 C276.44,49.05 276.65,47.61 276.66,45.93 L276.66,31.62 C276.65,31.36 276.57,31.13 276.41,30.94 C276.24,30.75 276.03,30.65 275.76,30.65 L271.32,30.65 C271.05,30.66 270.84,30.76 270.68,30.94 C270.52,31.13 270.43,31.36 270.43,31.62 L270.43,45.93 C270.43,47.13 270.32,48.11 270.11,48.89 C269.9,49.67 269.59,50.27 269.2,50.7 C268.8,51.13 268.33,51.43 267.77,51.61 C267.21,51.78 266.59,51.86 265.91,51.86 L265.63,51.86 C264.94,51.87 264.32,51.78 263.76,51.61 C263.21,51.43 262.73,51.13 262.33,50.7 C261.93,50.27 261.63,49.67 261.42,48.89 C261.21,48.12 261.09,47.13 261.09,45.93 L261.09,31.62 C261.08,31.36 261.01,31.13 260.84,30.94 C260.67,30.75 260.46,30.65 260.2,30.65 L255.76,30.65 C255.49,30.66 255.28,30.76 255.12,30.94 C254.95,31.13 254.88,31.36 254.87,31.62 L254.87,45.93 C254.88,47.61 255.08,49.05 255.48,50.27 C255.87,51.48 256.39,52.5 257.05,53.33 C257.7,54.16 258.42,54.82 259.21,55.32 C260,55.83 260.8,56.21 261.61,56.48 C262.42,56.74 263.17,56.92 263.87,57.01 C264.57,57.1 265.16,57.15 265.63,57.14 L265.91,57.14 C266.38,57.15 266.97,57.1 267.67,57.01 C268.38,56.92 269.13,56.74 269.93,56.48 C270.74,56.22 271.54,55.83 272.33,55.32 C273.12,54.82 273.84,54.15 274.49,53.33 C275.14,52.5 275.66,51.48 276.05,50.27 L276.05,50.27 Z M286,55.79 L286,22.45 C285.99,22.19 285.91,21.97 285.75,21.79 C285.58,21.62 285.37,21.53 285.1,21.52 L280.71,21.52 C280.44,21.53 280.22,21.62 280.04,21.79 C279.87,21.97 279.77,22.18 279.77,22.45 L279.77,55.79 C279.78,56.05 279.87,56.27 280.04,56.47 C280.22,56.65 280.44,56.75 280.71,56.76 L285.1,56.76 C285.37,56.75 285.58,56.65 285.75,56.47 C285.91,56.28 285.99,56.06 286,55.79 L286,55.79 Z" id="Shape" fill="#8B8B8B"></path>
                <g id="Group">
                    <path d="M63.58,56.55 C67.15,54.07 64.95,49.13 46.64,38.58 C32.88,30.71 29.64,25.14 31.51,7.81 C37.43,11.78 46.13,17.02 52.98,20.8 C69.11,30.1 70.49,35.01 69.59,41.59 C68.86,46.93 66.85,55.23 63.58,56.55 L63.58,56.55 Z" id="Shape" fill="url(#linearGradient-1)"></path>
                    <path d="M0.03,57.23 C0.4,61.57 5.78,62.13 24.08,51.55 C37.77,43.56 44.22,43.54 58.29,53.83 C51.89,56.97 43,61.88 36.31,65.93 C20.19,75.26 15.24,73.98 9.99,69.92 C5.72,66.62 -0.45,60.74 0.03,57.23 L0.03,57.23 Z" id="Shape" fill="url(#linearGradient-2)"></path>
                    <path d="M24.12,25.5 C24.12,0.86 28.37,-0.06 31.24,1.85 C37.21,5.82 30.46,29.11 46.65,38.58 C41,35.65 38.16,33.37 24.12,25.5 L24.12,25.5 Z" id="Shape" fill="url(#linearGradient-3)"></path>
                    <path d="M31.23,1.85 C27.29,0.01 24.11,4.37 24.11,25.5 C24.17,41.35 20.97,46.96 5.01,53.99 C5.5,46.87 5.7,36.72 5.54,28.91 C5.54,10.28 9.12,6.64 15.25,4.13 C20.26,2.08 28.44,-0.31 31.23,1.85 L31.23,1.85 Z" id="Shape" fill="url(#linearGradient-4)"></path>
                    <path d="M46.64,38.58 C68,50.88 66.66,55.03 63.58,56.55 C57.17,59.73 40.34,42.26 24.07,51.55 C29.43,48.14 32.81,46.81 46.64,38.58 L46.64,38.58 Z" id="Shape" fill="url(#linearGradient-5)"></path>
                    <path d="M24.08,51.55 C2.74,63.89 -0.18,60.67 0.03,57.23 C0.48,50.09 24.02,44.25 24.11,25.5 C24.4,31.86 23.86,35.46 24.08,51.55 L24.08,51.55 Z" id="Shape" fill="url(#linearGradient-6)"></path>
                    <path d="M25.33,26.19 C25.07,8.91 26.82,0.8 31.23,1.85 C27.29,0.01 24.11,4.37 24.11,25.5 C24.52,25.74 24.93,25.97 25.33,26.19 L25.33,26.19 L25.33,26.19 Z M43.57,36.39 C38.13,31.35 36.03,23.06 37.26,11.52 C36.17,10.84 35.11,10.16 34.1,9.51 C35.11,17.43 35.2,29.25 43.57,36.39 L43.57,36.39 Z" id="Shape" opacity="0.5" fill="#231F20"></path>
                    <path d="M24.03,50.19 C9.2,59.05 1.32,61.91 0.03,57.57 C0.08,61.91 5.75,62.16 24.05,51.59 C24.04,51.12 24.03,50.65 24.03,50.19 L24.03,50.19 L24.03,50.19 Z M23.74,29.31 C21.73,40.12 11.56,46.11 5.2,50.94 C5.26,49.74 5.31,48.49 5.36,47.21 C15.97,42.5 22.1,36.54 23.74,29.31 L23.74,29.31 Z" id="Shape" opacity="0.5" fill="#231F20"></path>
                    <path d="M45.46,39.29 C60.55,47.7 67.29,53.6 63.59,56.57 C67.84,54.49 64.97,49.15 46.67,38.58 C46.26,38.82 45.86,39.06 45.46,39.29 L45.46,39.29 L45.46,39.29 Z M27.52,49.98 C37.89,46.31 48.16,52.13 55.53,55.23 C54.46,55.78 53.35,56.34 52.21,56.94 C42.83,50.12 34.6,47.79 27.52,49.98 L27.52,49.98 Z" id="Shape" opacity="0.5" fill="#231F20"></path>
                </g>
            </g>
        </g>
    </g>
</svg>