<?xml version="1.0" encoding="UTF-8" standalone="no"?>
<svg width="421px" height="76px" viewBox="0 0 421 76" version="1.1" xmlns="http://www.w3.org/2000/svg" xmlns:xlink="http://www.w3.org/1999/xlink" xmlns:sketch="http://www.bohemiancoding.com/sketch/ns">
    <!-- Generator: Sketch 3.4.4 (17249) - http://www.bohemiancoding.com/sketch -->
    <title>Fill 22 + Fill 23 + Group + Bidder</title>
    <desc>Created with Sketch.</desc>
    <defs></defs>
    <g id="Page-1" stroke="none" stroke-width="1" fill="none" fill-rule="evenodd" sketch:type="MSPage">
        <g id="visto-new" sketch:type="MSLayerGroup" transform="translate(0.000000, -354.000000)">
            <g id="Fill-22-+-Fill-23-+-Group-+-Bidder" transform="translate(0.000000, 354.000000)">
                <g id="Fill-22-+-Fill-23-+-Group" fill="#2278B1" sketch:type="MSShapeGroup">
                    <path d="M167.37,28.799 C168.376,28.799 169.366,28.871 170.34,28.996 C168.169,28.06 165.784,27.544 163.28,27.544 C153.624,27.544 145.731,35.239 145.162,44.949 C148.342,35.552 157.08,28.799 167.37,28.799" id="Fill-22"></path>
                    <path d="M204.162,20.07 L204.162,27.979 L202.505,27.979 L202.505,21.472 L199.911,27.979 L199.081,27.979 L196.572,21.472 L196.572,27.979 L194.915,27.979 L194.915,20.07 L197.431,20.07 L199.496,25.154 L201.665,20.07 L204.162,20.07 L204.162,20.07 Z M193.832,20.07 L193.832,21.454 L191.366,21.454 L191.366,27.979 L189.653,27.979 L189.653,21.454 L187.167,21.454 L187.167,20.07 L193.832,20.07 L193.832,20.07 Z" id="Fill-23"></path>
                    <g id="Group">
                        <path d="M222.617,20.068 L225.557,20.068 L225.557,73.479 L222.617,73.479 L222.617,20.068 Z" id="Fill-1"></path>
                        <path d="M0,20.056 L7.314,20.056 L25.246,58.992 L42.959,20.056 L50.323,20.056 L25.873,73.471 L24.597,73.471 L0,20.056" id="Fill-17"></path>
                        <path d="M58.769,20.055 L65.643,20.055 L65.643,73.471 L58.769,73.471 L58.769,20.055 Z" id="Fill-19"></path>
                        <path d="M105.807,25.897 L101.388,30.463 C97.711,26.898 94.118,25.111 90.608,25.111 C88.377,25.111 86.462,25.849 84.873,27.322 C83.283,28.794 82.486,30.514 82.486,32.478 C82.486,34.212 83.143,35.865 84.454,37.436 C85.764,39.041 88.52,40.922 92.719,43.083 C97.837,45.733 101.312,48.285 103.149,50.74 C104.952,53.226 105.855,56.025 105.855,59.134 C105.855,63.522 104.315,67.237 101.233,70.278 C98.151,73.324 94.299,74.845 89.677,74.845 C86.596,74.845 83.655,74.175 80.853,72.831 C78.049,71.49 75.73,69.641 73.894,67.284 L78.214,62.375 C81.726,66.335 85.447,68.314 89.385,68.314 C92.141,68.314 94.486,67.433 96.422,65.665 C98.356,63.897 99.326,61.819 99.326,59.429 C99.326,57.465 98.686,55.714 97.406,54.174 C96.127,52.67 93.24,50.771 88.748,48.481 C83.926,45.995 80.646,43.54 78.908,41.119 C77.17,38.696 76.301,35.931 76.301,32.821 C76.301,28.763 77.685,25.391 80.456,22.706 C83.227,20.024 86.724,18.681 90.954,18.681 C95.873,18.681 100.822,21.087 105.807,25.897" id="Fill-20"></path>
                        <path d="M163.365,25.2 C157.615,25.2 152.674,27.322 148.543,31.57 C144.414,35.817 142.347,40.955 142.347,46.98 C142.347,50.864 143.289,54.485 145.174,57.844 C147.056,61.203 149.601,63.796 152.806,65.623 C156.012,67.452 159.531,68.364 163.365,68.364 C167.197,68.364 170.715,67.452 173.923,65.623 C177.127,63.796 179.671,61.203 181.554,57.844 C183.437,54.485 184.381,50.864 184.381,46.98 C184.381,40.955 182.307,35.817 178.16,31.57 C174.013,27.322 169.08,25.2 163.365,25.2 M163.466,18.681 C171.695,18.681 178.517,21.66 183.928,27.616 C188.844,33.05 191.303,39.48 191.303,46.911 C191.303,54.371 188.703,60.894 183.508,66.474 C178.313,72.056 171.631,74.845 163.466,74.845 C155.268,74.845 148.572,72.056 143.376,66.474 C138.178,60.894 135.579,54.371 135.579,46.911 C135.579,39.514 138.038,33.098 142.956,27.665 C148.368,21.677 155.203,18.681 163.466,18.681" id="Fill-21"></path>
                        <path d="M139.31,20.056 L126.797,20.056 L126.797,0.22 L119.924,0.22 L119.924,20.056 L110.547,20.056 L110.547,25.997 L119.924,25.997 L119.924,73.47 L126.797,73.47 L126.797,25.997 L134.441,25.997 C135.436,24.039 137.129,21.98 139.31,20.056" id="Fill-24"></path>
                    </g>
                </g>
                <text id="Bidder" sketch:type="MSTextLayer" font-family="Century Gothic" font-size="59" font-weight="normal" line-spacing="59" letter-spacing="-1.10000002" fill="#737470">
                    <tspan x="242" y="75">Bidde</tspan>
                    <tspan x="401.371582" y="75">r</tspan>
                </text>
            </g>
        </g>
    </g>
</svg>