<?xml version="1.0" encoding="utf-8"?>
<!-- Generator: Adobe Illustrator 19.0.0, SVG Export Plug-In . SVG Version: 6.00 Build 0)  -->
<svg version="1.1" id="Layer_1" xmlns="http://www.w3.org/2000/svg" xmlns:xlink="http://www.w3.org/1999/xlink" x="0px" y="0px"
	 viewBox="0 0 24 24" style="enable-background:new 0 0 24 24;" xml:space="preserve">
<style type="text/css">
	.st0{fill:#676767;}
</style>
<path id="XMLID_5696_" class="st0" d="M10.6,21.3l4.8-4.9l4.8-4.7C21.3,10.5,22,9.3,22,8c0.1-1.2-0.2-2.4-1-3.3
	c-0.8-1-1.7-1.6-2.9-1.8c-0.3-0.1-0.6-0.1-0.9-0.1c-0.7,0-1.4,0.2-2,0.5c-0.7,0.3-1.2,0.7-1.6,1c-0.4,0.3-0.9,0.9-1.6,1.5l-6.6,6.6
	c-0.3,0.3-0.5,0.5-0.8,0.8c-0.5,0.5-0.8,0.8-1.1,1s-0.5,0.5-0.8,1c-0.3,0.4-0.5,0.8-0.6,1.2C2,16.8,2,17.3,2,17.7
	c0.1,0.8,0.5,1.4,1,1.8C3.6,20,4.3,20.2,5,20.2c0.9,0,1.7-0.3,2.4-1L17.8,8.7c0.5-0.5,0.6-0.9,0.4-1.4c-0.2-0.5-0.5-0.7-1-0.7
	c-0.3,0-0.7,0.1-1,0.4c-0.2,0.2-0.5,0.4-0.7,0.7l-7.2,7.1l-1.3-1.3l0.1-0.1l7.4-7.5c0.4-0.4,0.9-0.8,1.3-1c0.4-0.2,0.9-0.3,1.5-0.3
	c0.1,0,0.3,0,0.6,0c1.1,0.2,1.9,0.9,2.2,2c0.2,0.6,0.2,1.2,0.1,1.8c-0.2,0.6-0.5,1.2-0.9,1.6l-7.5,7.5c-0.2,0.2-0.6,0.6-1.1,1.2
	c-0.5,0.5-0.9,1-1.1,1.2c-0.3,0.3-0.6,0.6-1,0.9c-0.4,0.3-0.8,0.6-1.2,0.8C6.5,22,5.8,22.2,5,22.2c-0.9,0-1.7-0.2-2.5-0.6
	c-0.7-0.4-1.3-1-1.8-1.7c-0.6-1-0.8-2.1-0.7-3.3c0.2-1.2,0.7-2.2,1.5-3.1l9.8-9.8c0.9-0.9,1.6-1.5,2.1-1.8c1.1-0.7,2.4-1,3.8-1
	c1.1,0,2,0.2,2.9,0.6c1,0.5,1.8,1.1,2.5,2c0.6,0.9,1.1,1.8,1.3,2.9c0.2,1.2,0.1,2.3-0.2,3.5c-0.4,1.1-1,2.1-1.8,3L12,22.6l-1.3-1.1
	L10.6,21.3z"/>
</svg>
