<?xml version="1.0" encoding="utf-8"?>
<!-- Generator: Adobe Illustrator 19.0.0, SVG Export Plug-In . SVG Version: 6.00 Build 0)  -->
<svg version="1.1" id="Layer_1" xmlns="http://www.w3.org/2000/svg" xmlns:xlink="http://www.w3.org/1999/xlink" x="0px" y="0px"
	 viewBox="0 0 32 32" style="enable-background:new 0 0 32 32;" xml:space="preserve">
<style type="text/css">
	.st0{fill:#676767;}
	.st1{fill:#FFFFFF;}
</style>
<path id="XMLID_33_" class="st0" d="M23.6,0v21.4H0V0H23.6z M3.9,1.9H2v1.9h2V1.9z M3.9,5.8H2v1.9h2V5.8z M3.9,9.7H2v1.9h2V9.7z
	 M3.9,13.6H2v1.9h2V13.6z M3.9,17.5H2v1.9h2V17.5z M17.7,1.9H5.9v7.8h11.8V1.9z M17.7,11.7H5.9v7.8h11.8V11.7z M21.7,1.9h-2v1.9h2
	V1.9z M21.7,5.8h-2v1.9h2V5.8z M21.7,9.7h-2v1.9h2V9.7z M21.7,13.6h-2v1.9h2V13.6z M21.7,17.5h-2v1.9h2V17.5z"/>
<g id="XMLID_19_">
	<rect id="XMLID_32_" x="9.9" y="12" class="st1" width="20.8" height="18.6"/>
	<path id="XMLID_26_" class="st0" d="M32,11.3v19.7c0,0.1-0.1,0.3-0.3,0.7c-0.2,0.2-0.4,0.3-0.7,0.3H9.3c-0.1,0-0.3-0.1-0.7-0.3
		c-0.2-0.2-0.3-0.4-0.3-0.7V11.3c0-0.1,0.1-0.3,0.3-0.7c0.2-0.2,0.4-0.3,0.7-0.3h21.7c0.1,0,0.3,0.1,0.7,0.3
		C31.9,11,32,11.2,32,11.3 M30,12.5H10.5v14.4l4.8-3.5l5.8,2.6l-1.5-3.1l5.8-6.2l4.6,5.6L30,12.5 M17.1,15.5
		c0.5,0.5,0.8,1.2,0.8,1.9c0,0.7-0.3,1.3-0.8,1.9c-0.5,0.5-1.2,0.8-1.9,0.8c-0.7,0-1.3-0.3-1.9-0.8c-0.5-0.5-0.8-1.2-0.8-1.9
		c0-0.7,0.3-1.3,0.8-1.9c0.5-0.5,1.2-0.8,1.9-0.8C15.9,14.7,16.6,15,17.1,15.5"/>
</g>
</svg>
