<?xml version="1.0" encoding="utf-8"?>
<!-- Generator: Adobe Illustrator 19.0.0, SVG Export Plug-In . SVG Version: 6.00 Build 0)  -->
<svg version="1.1" id="Layer_1" xmlns="http://www.w3.org/2000/svg" xmlns:xlink="http://www.w3.org/1999/xlink" x="0px" y="0px"
	 viewBox="0 0 32 32" style="enable-background:new 0 0 32 32;" xml:space="preserve">
<style type="text/css">
	.st0{fill:#676767;}
</style>
<path id="XMLID_1324_" class="st0" d="M20.2,0.2C18.9,0,15.9,0,15.9,0h-0.2c0,0-3,0-4.2,0.2C9.3,0.4,7.7,0.4,7.7,4.5
	c0,1.4,0,22.1,0,24.1c0,2,1.7,3.4,4,3.4s4,0,4,0h0.2c0,0,1.7,0,4,0c2.3,0,4-1.3,4-3.4c0-2,0-22.7,0-24.1C23.9,0.4,22.3,0.4,20.2,0.2
	z M14.2,1h3c0.1,0,0.2,0.1,0.2,0.2c0,0.1-0.1,0.2-0.2,0.2h-3c-0.1,0-0.2-0.1-0.2-0.2C14,1.1,14.1,1,14.2,1z M17.6,30.6
	c0,0.2-0.1,0.3-0.3,0.3h-3c-0.2,0-0.3-0.1-0.3-0.3v-0.4c0-0.2,0.1-0.3,0.3-0.3h3c0.2,0,0.3,0.1,0.3,0.3
	C17.6,30.2,17.6,30.6,17.6,30.6z M22.6,27.7H8.8V3.6h13.8V27.7z"/>
</svg>
