<?xml version="1.0" encoding="UTF-8" standalone="no"?>
<svg width="488px" height="70px" viewBox="0 0 488 70" version="1.1" xmlns="http://www.w3.org/2000/svg" xmlns:xlink="http://www.w3.org/1999/xlink" xmlns:sketch="http://www.bohemiancoding.com/sketch/ns">
    <!-- Generator: Sketch 3.4.4 (17249) - http://www.bohemiancoding.com/sketch -->
    <title>doubleclick</title>
    <desc>Created with Sketch.</desc>
    <defs>
        <linearGradient x1="49.992554%" y1="0.288160834%" x2="49.992554%" y2="99.9717051%" id="linearGradient-1">
            <stop stop-color="#FFFFFF" stop-opacity="0.6" offset="0%"></stop>
            <stop stop-color="#FFFFFF" stop-opacity="0.1" offset="60%"></stop>
        </linearGradient>
        <linearGradient x1="50.0596125%" y1="99.4245536%" x2="50.0596125%" y2="-0.0977678571%" id="linearGradient-2">
            <stop stop-color="#FFFFFF" stop-opacity="0.6" offset="0%"></stop>
            <stop stop-color="#FFFFFF" stop-opacity="0.1" offset="60%"></stop>
        </linearGradient>
        <linearGradient x1="32.4565737%" y1="17.4930514%" x2="77.861753%" y2="128.209366%" id="linearGradient-3">
            <stop stop-color="#FFFFFF" stop-opacity="0.5" offset="0%"></stop>
            <stop stop-color="#FFFFFF" stop-opacity="0.03" offset="75%"></stop>
        </linearGradient>
        <linearGradient x1="5.23885608%" y1="50.119403%" x2="136.164491%" y2="50.119403%" id="linearGradient-4">
            <stop stop-color="#FFFFFF" stop-opacity="0.9" offset="0%"></stop>
            <stop stop-color="#FFFFFF" stop-opacity="0.1" offset="60%"></stop>
        </linearGradient>
    </defs>
    <g id="Page-1" stroke="none" stroke-width="1" fill="none" fill-rule="evenodd" sketch:type="MSPage">
        <g id="doubleclick" sketch:type="MSLayerGroup">
            <g id="Group" sketch:type="MSShapeGroup">
                <g transform="translate(397.955461, 38.370370)" id="Shape" fill="#000000">
                    <path d="M8.02120891,11.9777778 C8.02120891,12.6518519 7.91770944,13.2740741 7.76246023,13.8444444 C7.55546129,14.4148148 7.40021209,14.8814815 7.08971368,15.3481481 C6.83096501,15.7111111 6.41696713,16.0740741 5.95121951,16.2814815 C5.4854719,16.4888889 5.01972428,16.6444444 4.4504772,16.6444444 C3.88123012,16.6444444 3.31198303,16.5407407 2.84623542,16.3851852 C2.3804878,16.1777778 2.01823966,15.8148148 1.70774125,15.4518519 L1.60424178,16.4888889 L0.20699894,16.4888889 L0.20699894,3.52592593 L1.81124072,3.52592593 L1.81124072,8.4 C2.0699894,8.03703704 2.48398727,7.72592593 2.94973489,7.57037037 C3.4154825,7.36296296 3.88123012,7.31111111 4.4504772,7.31111111 C5.01972428,7.31111111 5.58897137,7.41481481 5.95121951,7.67407407 C6.41696713,7.88148148 6.77921527,8.24444444 7.08971368,8.60740741 C7.34846235,8.97037037 7.65896076,9.54074074 7.76246023,10.1111111 C7.96945917,10.6814815 8.02120891,11.3037037 8.02120891,11.9777778 L8.02120891,11.9777778 Z M6.5204666,11.7703704 C6.5204666,11.3037037 6.5204666,10.837037 6.41696713,10.4740741 C6.31346766,10.1111111 6.20996819,9.74814815 6.05471898,9.43703704 C5.84772004,9.17777778 5.58897137,8.86666667 5.33022269,8.71111111 C5.07147402,8.5037037 4.65747614,8.45185185 4.19172853,8.45185185 C3.93297985,8.45185185 3.62248144,8.45185185 3.46723224,8.55555556 C3.2602333,8.65925926 3.00148462,8.76296296 2.79448568,8.81481481 C2.58748674,8.91851852 2.43223754,9.07407407 2.32873807,9.28148148 C2.2252386,9.48888889 2.0699894,9.64444444 1.96648993,9.85185185 L1.96648993,13.7925926 C2.0699894,14 2.17348887,14.1555556 2.32873807,14.362963 C2.43223754,14.5703704 2.58748674,14.7259259 2.79448568,14.8296296 C3.00148462,14.9333333 3.15673383,15.037037 3.46723224,15.0888889 C3.67423118,15.1925926 3.93297985,15.1925926 4.19172853,15.1925926 C4.65747614,15.1925926 4.91622481,15.0888889 5.33022269,14.9333333 C5.58897137,14.7259259 5.89946978,14.5703704 6.05471898,14.2074074 C6.26171792,13.9481481 6.41696713,13.5333333 6.5204666,13.1703704 C6.62396607,12.8074074 6.62396607,12.3407407 6.62396607,11.8740741 L6.5204666,11.8740741 L6.5204666,11.7703704 Z M12.7821845,14.1037037 L14.9039236,7.20740741 L16.5599152,7.20740741 L12.8339343,17.837037 C12.7304348,18.0444444 12.6269353,18.3037037 12.4716861,18.562963 C12.3681866,18.8222222 12.2129374,19.0296296 11.902439,19.2888889 C11.6954401,19.4962963 11.4366914,19.7555556 11.1779427,19.8592593 C10.9191941,20.0666667 10.5051962,20.0666667 10.0394486,20.0666667 L9.10795334,20.0666667 L9.10795334,18.7703704 L9.52195122,18.7703704 C9.78069989,18.7703704 9.98769883,18.7703704 10.2464475,18.6666667 C10.4534464,18.562963 10.6086957,18.562963 10.8156946,18.4074074 C11.0226935,18.3037037 11.0744433,18.1481481 11.1779427,17.9407407 C11.2814422,17.7333333 11.3849417,17.4740741 11.4366914,17.2148148 L11.7989396,16.2814815 L8.53870626,7.20740741 L10.1946978,7.20740741 L12.7821845,14.1037037 L12.7821845,14.1037037 Z"></path>
                    <path d="M45.6432662,16.8 C42.1242842,16.8 40.2612937,14 40.2612937,11.4592593 C40.2612937,8.45185185 42.6935313,6.06666667 46.0572641,6.06666667 C49.3174973,6.06666667 51.3874867,8.65925926 51.3874867,11.4074074 C51.335737,14 49.2657476,16.8 45.6432662,16.8 L45.6432662,16.8 Z M48.4377519,14.9333333 C49.0069989,14.2074074 49.1104984,13.3259259 49.1104984,12.4962963 C49.1104984,10.5259259 48.1790032,6.79259259 45.3845175,6.79259259 C44.6600212,6.79259259 43.8837752,7.05185185 43.3145281,7.51851852 C42.4865323,8.24444444 42.2795334,9.28148148 42.2795334,10.2148148 C42.2795334,12.4444444 43.4180276,16.0222222 46.1090138,16.0222222 C47.040509,16.1777778 47.8685048,15.7111111 48.4377519,14.9333333 L48.4377519,14.9333333 Z M86.9395546,15.7111111 C84.9730647,15.7111111 83.1100742,14.3111111 82.4890774,11.7185185 L89.3717922,8.91851852 C89.009544,7.62222222 87.9745493,6.11851852 85.2835631,6.11851852 C83.0583245,6.11851852 80.3673383,7.77777778 80.3673383,11.2518519 C80.3673383,13.9481481 82.2303287,16.8518519 85.697561,16.8518519 C86.4220573,16.8518519 87.5605514,16.8518519 88.6990456,16.0222222 C89.1647932,15.762963 89.5270414,15.3481481 89.8375398,14.8814815 C88.8542948,15.2444444 88.026299,15.7111111 86.9395546,15.7111111 L86.9395546,15.7111111 Z M84.7660657,6.84444444 C85.9563097,6.84444444 86.9913043,7.88148148 86.9913043,8.71111111 C86.9913043,8.97037037 86.7843054,9.17777778 86.3185578,9.28148148 L82.2303287,10.9407407 C81.6093319,7.67407407 83.8345705,6.84444444 84.7660657,6.84444444 L84.7660657,6.84444444 Z M57.8562036,16.8 C54.3372216,16.8 52.4742312,14 52.4742312,11.4592593 C52.4742312,8.45185185 54.9064687,6.06666667 58.2702015,6.06666667 C61.5304348,6.06666667 63.6004242,8.65925926 63.6004242,11.4074074 C63.5486744,14 61.478685,16.8 57.8562036,16.8 L57.8562036,16.8 Z M60.6506893,14.9333333 C61.2199364,14.2074074 61.3234358,13.3259259 61.3234358,12.4962963 C61.3234358,10.5259259 60.3919406,6.79259259 57.5974549,6.79259259 C56.8729586,6.79259259 56.0967126,7.05185185 55.5274655,7.51851852 C54.6994698,8.24444444 54.4924708,9.28148148 54.4924708,10.2148148 C54.4924708,12.4444444 55.630965,16.0222222 58.3219512,16.0222222 C59.2534464,16.1777778 60.1849417,15.7111111 60.6506893,14.9333333 L60.6506893,14.9333333 Z M72.5013786,15.8666667 L71.6733828,15.1925926 C71.4146341,14.9851852 71.1041357,14.7259259 71.1041357,14.2592593 C71.1041357,13.7925926 71.3628844,13.4296296 71.7768823,13.1185185 C72.7083775,12.3925926 73.6398727,11.5111111 73.6398727,9.85185185 C73.6398727,8.34814815 72.7083775,7.41481481 72.1391304,6.94814815 L73.4328738,6.94814815 L74.364369,6.01481481 L69.7068929,6.01481481 C66.4466596,6.01481481 64.7906681,8.08888889 64.7906681,10.3185185 C64.7906681,12.0814815 66.0844115,13.8444444 68.516649,13.8444444 L69.1893955,13.8444444 C69.0858961,14.1037037 68.9823966,14.4148148 68.9823966,14.6740741 C68.9823966,15.3481481 69.3446448,15.7111111 69.6551432,16.1777778 C68.6201485,16.2814815 66.757158,16.437037 65.3599152,17.3185185 C64.0661718,18.1481481 63.6004242,19.2888889 63.6004242,20.1185185 C63.6004242,21.7777778 65.204666,23.3851852 68.4648993,23.3851852 C72.3978791,23.3851852 74.3126193,21.2592593 74.3126193,19.0814815 C74.364369,17.4740741 73.4846235,16.7481481 72.5013786,15.8666667 L72.5013786,15.8666667 Z M69.6033934,13.2740741 C67.740403,13.2740741 66.7054083,10.9407407 66.7054083,9.17777778 C66.7054083,7.51851852 67.740403,6.74074074 68.7753977,6.74074074 C70.7418876,6.74074074 71.7768823,9.33333333 71.7768823,10.9407407 C71.7251326,12.9111111 70.2243902,13.2740741 69.6033934,13.2740741 L69.6033934,13.2740741 Z M69.6033934,22.3481481 C67.1711559,22.3481481 65.6186638,21.2074074 65.6186638,19.5481481 C65.6186638,17.9407407 67.1194062,17.4222222 67.5851538,17.2148148 C68.516649,16.9555556 69.7068929,16.8518519 70.0173913,16.8518519 L70.5866384,16.8518519 C72.2426299,18.0444444 73.0188759,18.7185185 73.0188759,19.8592593 C72.8636267,21.2074074 71.7251326,22.3481481 69.6033934,22.3481481 L69.6033934,22.3481481 Z M34.1030753,10.5777778 L33.1715801,11.5111111 L36.0695652,11.5111111 L36.0695652,15.5037037 C35.3968187,15.7111111 34.4135737,15.9703704 32.7058324,15.9703704 C28.4106045,15.9703704 25.2538706,12.1333333 25.2538706,7.82962963 C25.2538706,3.88888889 27.8413574,1.19259259 31.3085896,1.19259259 C33.378579,1.19259259 34.7758218,1.86666667 35.9660657,2.95555556 L35.9660657,4.25185185 L38.0878049,2.12592593 C37.6220573,1.76296296 36.690562,1.19259259 35.0863203,0.725925926 C34.0513256,0.466666667 32.8610817,0.259259259 31.619088,0.259259259 C25.771368,0.259259259 22.5628844,4.66666667 22.5628844,8.4 C22.5628844,13.8962963 26.547614,16.9037037 31.2050901,16.9037037 C34.361824,16.9037037 36.897561,16.1777778 37.9843054,15.8666667 L37.9843054,11.6666667 C37.9843054,11.4592593 38.0878049,11.4074074 38.1913043,11.3037037 L39.0193001,10.4740741 L33.9995758,10.4740741 L33.9995758,10.5777778 L34.1030753,10.5777778 Z M79.2805938,16.5407407 L79.9533404,15.8666667 L78.7630965,15.6592593 C78.5043478,15.6592593 78.1938494,15.4 78.1938494,14.9851852 L78.1938494,1.91851852 C78.1938494,1.71111111 78.2973489,1.65925926 78.4008484,1.45185185 L79.2288441,0.622222222 L75.5028632,0.622222222 L74.571368,1.55555556 L75.9686108,1.55555556 L75.9686108,15.1925926 C75.9686108,15.4 75.8651113,15.4518519 75.7616119,15.6592593 L74.9336161,16.4888889 C74.8818664,16.5407407 79.2805938,16.5407407 79.2805938,16.5407407 L79.2805938,16.5407407 Z"></path>
                </g>
                <g transform="translate(114.884411, 12.444444)" id="Shape" fill="#000000">
                    <path d="M0.0517497349,42.362963 L0.0517497349,2.59259259 L11.126193,2.59259259 C13.66193,2.59259259 15.8871686,3.05925926 17.9054083,3.88888889 C19.9753977,4.71851852 21.8383881,5.96296296 23.2873807,7.51851852 C24.788123,9.12592593 25.9783669,10.9925926 26.8063627,13.2222222 C27.6343584,15.4518519 27.9966066,17.8888889 27.9966066,20.6888889 L27.9966066,24.3185185 C27.9966066,27.0148148 27.6343584,29.5555556 26.8063627,31.7851852 C25.9783669,34.0148148 24.7363733,35.8814815 23.2873807,37.4888889 C21.8383881,39.0962963 19.9236479,40.2888889 17.9054083,41.1185185 C15.7836691,41.9481481 13.4549311,42.4148148 10.9191941,42.4148148 L0,42.4148148 L0,42.362963 L0.0517497349,42.362963 Z M3.4154825,5.4962963 L3.4154825,39.562963 L10.9709438,39.562963 C13.0926829,39.562963 14.9556734,39.2 16.7669141,38.4222222 C18.4229056,37.6962963 19.9236479,36.6592593 21.1656416,35.362963 C22.3558855,34.0666667 23.2873807,32.3555556 23.9601273,30.4888889 C24.6328738,28.6222222 24.8916225,26.5481481 24.8916225,24.3185185 L24.8916225,20.5851852 C24.8916225,18.2518519 24.5293743,16.1777778 23.8566278,14.3111111 C23.1838812,12.4444444 22.252386,10.837037 21.0621421,9.54074074 C19.8718982,8.24444444 18.4746554,7.20740741 16.7669141,6.48148148 C15.1109226,5.75555556 13.2479321,5.34074074 11.1779427,5.34074074 L3.46723224,5.34074074 L3.46723224,5.4962963 L3.4154825,5.4962963 Z M32.0330859,27.1703704 C32.0330859,25.0444444 32.2918346,23.0740741 32.9645811,21.2074074 C33.6373277,19.3407407 34.4653234,17.837037 35.6555673,16.437037 C36.7940615,15.1407407 38.1913043,14.1037037 39.8472959,13.3777778 C41.4515376,12.6518519 43.3145281,12.237037 45.2292683,12.237037 C47.2992577,12.237037 49.0587487,12.6 50.7147402,13.3777778 C52.318982,14.1037037 53.7162248,15.1407407 54.9064687,16.437037 C56.0449629,17.7333333 56.9764581,19.3407407 57.4939555,21.2074074 C58.166702,23.0740741 58.4254507,25.0444444 58.4254507,27.1703704 L58.4254507,28.1037037 C58.4254507,30.2296296 58.166702,32.2 57.4939555,34.0666667 C56.8212089,35.9333333 55.9932131,37.437037 54.9064687,38.837037 C53.7679745,40.1333333 52.3707317,41.1703704 50.7147402,41.8962963 C49.1104984,42.6222222 47.247508,43.037037 45.3327678,43.037037 C43.4180276,43.037037 41.5032874,42.6740741 39.9507953,41.8962963 C38.3465536,41.1703704 36.9493107,40.1333333 35.7590668,38.837037 C34.6205726,37.5407407 33.6890774,35.9333333 33.0680806,34.0666667 C32.395334,32.2 32.1365854,30.2296296 32.1365854,28.1037037 L32.1365854,27.1703704 L32.0330859,27.1703704 L32.0330859,27.1703704 Z M35.2933192,28.1037037 C35.2933192,29.7111111 35.5003181,31.2666667 35.9660657,32.7703704 C36.4318134,34.2740741 37.1045599,35.4666667 37.9325557,36.6074074 C38.7605514,37.7481481 39.7955461,38.5777778 40.98579,39.2 C42.1760339,39.8740741 43.6767762,40.237037 45.281018,40.237037 C46.8852598,40.237037 48.2825027,39.8740741 49.576246,39.2 C50.7664899,38.5259259 51.8014846,37.6962963 52.6294804,36.6074074 C53.4574761,35.4666667 54.1302227,34.1703704 54.5959703,32.7703704 C55.0617179,31.2666667 55.2687169,29.762963 55.2687169,28.1037037 L55.2687169,27.1703704 C55.2687169,25.562963 55.0617179,24.1111111 54.5959703,22.6074074 C54.1302227,21.1037037 53.4574761,19.8074074 52.6294804,18.7703704 C51.8014846,17.6296296 50.7664899,16.8 49.4727466,16.0740741 C48.2825027,15.4 46.7817603,15.037037 45.1775186,15.037037 C43.5732768,15.037037 42.1760339,15.4 40.98579,16.0740741 C39.7955461,16.7481481 38.7605514,17.6814815 37.9325557,18.7703704 C37.1045599,19.9111111 36.4318134,21.2074074 35.9660657,22.6074074 C35.5003181,24.1111111 35.2933192,25.6148148 35.2933192,27.1703704 L35.2933192,28.1037037 L35.2933192,28.1037037 Z M82.4373277,38.6296296 C81.5058324,39.9259259 80.3155885,41.0666667 78.7113468,41.7925926 C77.107105,42.5185185 75.2441145,42.9333333 73.0188759,42.9333333 C71.5181336,42.9333333 70.2243902,42.7259259 69.0858961,42.2592593 C67.8956522,41.8962963 66.8606575,41.2222222 66.0326617,40.2888889 C65.204666,39.3555556 64.5319194,38.2148148 64.0661718,36.8148148 C63.6004242,35.4148148 63.3934252,33.6518519 63.3934252,31.6814815 L63.3934252,12.7555556 L66.6536585,12.7555556 L66.6536585,31.7851852 C66.6536585,33.3925926 66.8606575,34.6888889 67.2229056,35.7259259 C67.5851538,36.762963 68.0509014,37.5925926 68.7236479,38.2666667 C69.3963945,38.9407407 70.0173913,39.4074074 70.8453871,39.6666667 C71.6733828,39.9259259 72.5013786,40.0296296 73.4328738,40.0296296 C74.7266172,40.0296296 75.8651113,39.8222222 76.900106,39.562963 C77.9351007,39.3037037 78.7630965,38.837037 79.4875928,38.3703704 C80.2120891,37.8 80.7813362,37.2296296 81.2470838,36.5037037 C81.7128314,35.7777778 82.0750795,35 82.3855779,34.1703704 L82.3855779,12.8074074 L85.6458112,12.8074074 L85.6458112,42.4148148 L82.4890774,42.4148148 L82.4373277,38.6296296 L82.4373277,38.6296296 Z M116.592153,27.8962963 C116.592153,30.1259259 116.333404,32.2 115.867656,33.962963 C115.401909,35.8296296 114.677413,37.437037 113.642418,38.7333333 C112.710923,40.0296296 111.520679,41.0666667 110.123436,41.7925926 C108.726193,42.5185185 107.121951,42.9333333 105.36246,42.9333333 C103.240721,42.9333333 101.377731,42.5703704 99.7734889,41.7407407 C98.1692471,40.9111111 96.9790032,39.7703704 95.9440085,38.3703704 L95.840509,42.362963 L92.8390244,42.362963 L92.8390244,0.362962963 L96.0992577,0.362962963 L96.0992577,17.0592593 C97.1342524,15.5555556 98.3244963,14.362963 99.8252386,13.5333333 C101.325981,12.7037037 103.188971,12.237037 105.31071,12.237037 C107.070201,12.237037 108.777943,12.6 110.175186,13.2740741 C111.572428,14 112.762672,14.9333333 113.694168,16.3333333 C114.625663,17.6296296 115.350159,19.237037 115.919406,21.1037037 C116.385154,22.9703704 116.643902,25.0444444 116.643902,27.3777778 L116.643902,27.9481481 L116.592153,27.9481481 L116.592153,27.8962963 Z M113.331919,27.3259259 C113.331919,25.6666667 113.12492,23.9555556 112.866172,22.4518519 C112.503924,20.9481481 112.038176,19.6518519 111.26193,18.5111111 C110.537434,17.3703704 109.657688,16.5407407 108.570944,15.9185185 C107.484199,15.2962963 106.138706,14.9851852 104.637964,14.9851852 C103.44772,14.9851852 102.309226,15.1925926 101.377731,15.4518519 C100.446235,15.8148148 99.6182397,16.1777778 98.9454931,16.7481481 C98.2727466,17.3185185 97.6517497,17.9407407 97.1860021,18.7185185 C96.7202545,19.4444444 96.3580064,20.2222222 96.047508,20.9481481 L96.047508,34.2740741 C96.4097561,35 96.7720042,35.7777778 97.3412513,36.5037037 C97.9104984,37.1777778 98.4797455,37.8 99.2042418,38.2666667 C99.9287381,38.7333333 100.704984,39.2 101.636479,39.4592593 C102.567975,39.7185185 103.602969,39.9259259 104.689714,39.9259259 C106.190456,39.9259259 107.484199,39.6666667 108.519194,38.9925926 C109.657688,38.3185185 110.485684,37.4888889 111.21018,36.4 C111.934677,35.2592593 112.400424,33.962963 112.814422,32.562963 C113.17667,31.0592593 113.28017,29.5037037 113.28017,27.6888889 L113.331919,27.3259259 L113.331919,27.3259259 Z M125.544857,42.362963 L122.284624,42.362963 L122.284624,0.362962963 L125.544857,0.362962963 L125.544857,42.362963 L125.544857,42.362963 Z M144.640509,42.9333333 C142.674019,42.9333333 140.914528,42.5703704 139.310286,41.7925926 C137.706045,41.0148148 136.308802,40.1333333 135.118558,38.7851852 C133.928314,37.4888889 133.048568,35.9851852 132.427572,34.2222222 C131.754825,32.4592593 131.392577,30.4888889 131.392577,28.4148148 L131.392577,27.2222222 C131.392577,24.9925926 131.754825,22.8148148 132.427572,21.0518519 C133.100318,19.1851852 134.031813,17.5777778 135.222057,16.2814815 C136.360551,14.9851852 137.757794,13.9481481 139.206787,13.2740741 C140.707529,12.5481481 142.363521,12.237037 144.071262,12.237037 C145.934252,12.237037 147.590244,12.6 149.090986,13.2740741 C150.591729,13.9481481 151.781972,14.8814815 152.713468,16.0740741 C153.644963,17.2666667 154.472959,18.6666667 154.938706,20.3777778 C155.404454,22.037037 155.663203,23.8518519 155.663203,25.7703704 L155.663203,27.7407407 L134.60106,27.7407407 L134.60106,28.4148148 C134.60106,30.0222222 134.859809,31.5777778 135.325557,32.9777778 C135.791304,34.3777778 136.515801,35.6740741 137.395546,36.7111111 C138.327041,37.7481481 139.362036,38.5777778 140.55228,39.2518519 C141.742524,39.9259259 143.139767,40.1851852 144.640509,40.1851852 C146.4,40.1851852 147.900742,39.9259259 149.297985,39.2518519 C150.591729,38.5777778 151.833722,37.5925926 152.920467,36.1925926 L154.990456,37.8 C154.524708,38.5259259 153.955461,39.2 153.334464,39.8740741 C152.661718,40.5481481 151.937222,41.0666667 151.109226,41.5333333 C150.28123,42 149.246235,42.362963 148.211241,42.6740741 C147.176246,42.8296296 145.934252,42.9333333 144.640509,42.9333333 L144.640509,42.9333333 Z M144.019512,15.037037 C142.829268,15.037037 141.587275,15.2962963 140.55228,15.762963 C139.517285,16.2296296 138.58579,16.9037037 137.757794,17.837037 C136.929799,18.6666667 136.257052,19.8074074 135.791304,21 C135.222057,22.1925926 134.963309,23.5925926 134.75631,25.0962963 L152.454719,25.0962963 L152.454719,24.7333333 C152.454719,23.5407407 152.19597,22.2962963 151.885472,21.1037037 C151.523224,19.962963 150.953977,18.9777778 150.28123,18.0444444 C149.556734,17.1111111 148.676988,16.437037 147.693743,15.9185185 C146.606999,15.2962963 145.416755,15.037037 144.019512,15.037037 L144.019512,15.037037 Z M190.128526,29.9703704 C189.921527,32.0444444 189.455779,33.8074074 188.731283,35.362963 C188.006787,36.9703704 187.075292,38.3703704 185.833298,39.4592593 C184.643054,40.6 183.142312,41.4296296 181.434571,42 C179.778579,42.5703704 177.812089,42.9333333 175.58685,42.9333333 C173.361612,42.9333333 171.291622,42.4666667 169.428632,41.637037 C167.565642,40.8074074 165.9614,39.562963 164.667656,38.0074074 C163.373913,36.4 162.338918,34.5333333 161.614422,32.3037037 C160.889926,30.0740741 160.579427,27.637037 160.579427,25.0444444 L160.579427,20.0148148 C160.579427,17.3185185 160.941676,14.8814815 161.614422,12.6518519 C162.338918,10.4222222 163.270414,8.55555556 164.667656,6.94814815 C165.9614,5.34074074 167.565642,4.14814815 169.428632,3.31851852 C171.291622,2.48888889 173.413362,2.02222222 175.7421,2.02222222 C177.863839,2.02222222 179.726829,2.28148148 181.434571,2.85185185 C183.090562,3.42222222 184.591304,4.25185185 185.833298,5.39259259 C187.023542,6.53333333 187.955037,7.93333333 188.731283,9.48888889 C189.455779,11.0962963 189.921527,12.962963 190.128526,14.9851852 L186.764793,14.9851852 C186.557794,13.3777778 186.195546,11.9259259 185.626299,10.6814815 C185.057052,9.38518519 184.436055,8.34814815 183.50456,7.51851852 C182.573065,6.68888889 181.53807,6.01481481 180.244327,5.54814815 C178.950583,5.08148148 177.449841,4.87407407 175.793849,4.87407407 C173.930859,4.87407407 172.274867,5.23703704 170.877625,6.01481481 C169.376882,6.74074074 168.186638,7.77777778 167.151644,9.07407407 C166.116649,10.3703704 165.392153,11.9777778 164.822906,13.8444444 C164.253659,15.7111111 163.99491,17.7851852 163.99491,20.0148148 L163.99491,25.0444444 C163.99491,27.1703704 164.253659,29.2444444 164.719406,31.1111111 C165.185154,32.9777778 165.90965,34.5851852 166.944645,35.8814815 C167.979639,37.1777778 169.169883,38.3185185 170.567126,39.0444444 C171.964369,39.7703704 173.620361,40.1851852 175.483351,40.1851852 C179.002333,40.1851852 181.641569,39.3555556 183.40106,37.6444444 C185.160551,35.9851852 186.299046,33.4444444 186.661294,30.0740741 L190.128526,30.0740741 L190.128526,29.9703704 L190.128526,29.9703704 Z M199.702227,42.362963 L196.441994,42.362963 L196.441994,0.362962963 L199.702227,0.362962963 L199.702227,42.362963 L199.702227,42.362963 Z M207.723436,4.3037037 C207.723436,3.62962963 207.930435,3.16296296 208.292683,2.6962963 C208.654931,2.22962963 209.224178,2.02222222 209.948674,2.02222222 C210.673171,2.02222222 211.138918,2.22962963 211.604666,2.6962963 C211.966914,3.16296296 212.277413,3.62962963 212.277413,4.3037037 C212.277413,4.97777778 212.070414,5.44444444 211.604666,5.91111111 C211.242418,6.27407407 210.673171,6.58518519 209.948674,6.58518519 C209.224178,6.58518519 208.758431,6.37777778 208.292683,5.91111111 C207.878685,5.39259259 207.723436,4.82222222 207.723436,4.3037037 L207.723436,4.3037037 Z M211.552916,42.362963 L208.292683,42.362963 L208.292683,12.7555556 L211.552916,12.7555556 L211.552916,42.362963 L211.552916,42.362963 Z M229.717073,40.1333333 C230.752068,40.1333333 231.787063,39.9259259 232.718558,39.6666667 C233.650053,39.4074074 234.478049,38.9407407 235.254295,38.3703704 C235.978791,37.8 236.651538,37.0740741 237.117285,36.2444444 C237.583033,35.4148148 237.841782,34.3777778 237.945281,33.237037 L241.102015,33.237037 C240.998515,34.637037 240.636267,35.9333333 240.06702,37.1777778 C239.394274,38.3703704 238.566278,39.4074074 237.531283,40.237037 C236.496288,41.0666667 235.306045,41.7407407 234.012301,42.3111111 C232.718558,42.7777778 231.217815,43.037037 229.717073,43.037037 C227.647084,43.037037 225.784093,42.6740741 224.231601,41.8962963 C222.627359,41.1703704 221.333616,40.1333333 220.298621,38.7333333 C219.263627,37.437037 218.435631,35.8296296 217.866384,34.0666667 C217.297137,32.3037037 217.038388,30.3333333 217.038388,28.2592593 L217.038388,27.1185185 C217.038388,25.0444444 217.297137,23.1259259 217.866384,21.3111111 C218.435631,19.5481481 219.160127,17.9407407 220.298621,16.6444444 C221.333616,15.3481481 222.627359,14.3111111 224.231601,13.4814815 C225.835843,12.7555556 227.595334,12.3407407 229.613574,12.3407407 C231.217815,12.3407407 232.666808,12.6 234.012301,13.0666667 C235.409544,13.5333333 236.548038,14.2592593 237.531283,15.1925926 C238.566278,16.1259259 239.290774,17.2666667 239.963521,18.562963 C240.532768,19.8592593 240.895016,21.362963 240.998515,22.9703704 L237.841782,22.9703704 C237.738282,21.7777778 237.479533,20.7407407 237.117285,19.7037037 C236.651538,18.7703704 236.082291,17.9407407 235.357794,17.2666667 C234.633298,16.5925926 233.753552,16.0740741 232.770308,15.6592593 C231.838812,15.2962963 230.700318,15.0888889 229.613574,15.0888889 C227.957582,15.0888889 226.45684,15.4518519 225.318346,16.1259259 C224.128102,16.8 223.196607,17.7333333 222.420361,18.7185185 C221.695864,19.8592593 221.126617,21.1555556 220.816119,22.5555556 C220.453871,23.9555556 220.350371,25.562963 220.350371,27.0148148 L220.350371,28.1555556 C220.350371,29.762963 220.55737,31.2148148 220.816119,32.7185185 C221.074867,34.2222222 221.644115,35.4148148 222.420361,36.5555556 C223.144857,37.6962963 224.076352,38.5259259 225.318346,39.1481481 C226.50859,39.8740741 227.905832,40.1333333 229.717073,40.1333333 L229.717073,40.1333333 Z M253.470201,27.5333333 L249.744221,31.162963 L249.744221,42.4666667 L246.483987,42.4666667 L246.483987,0.466666667 L249.744221,0.466666667 L249.744221,27.3259259 L252.797455,23.9555556 L264.078897,12.8592593 L268.167126,12.8592593 L255.69544,25.4074074 L269.30562,42.4666667 L265.372641,42.4666667 L253.470201,27.5333333 L253.470201,27.5333333 Z"></path>
                </g>
                <path d="M52.1637328,0.103703704 C49.1622481,0.103703704 46.3160127,0.466666667 43.521527,1.24444444 C58.3219512,5.08148148 69.3446448,18.4074074 69.6033934,34.2740741 L69.6033934,35.6222222 C69.2411453,44.9555556 61.478685,52.4222222 52.1637328,52.4222222 C49.0069989,52.4222222 46.0055143,51.5925926 43.521527,50.0888889 C38.2948038,47.0814815 34.8275716,41.4814815 34.8275716,34.9481481 C34.8275716,28.4148148 38.3465536,22.9185185 43.4697773,19.8074074 C40.9340403,18.3037037 37.9843054,17.4740741 34.8275716,17.4740741 C25.4091198,17.4740741 17.8019088,24.9407407 17.4914104,34.2740741 L17.4914104,35.6222222 C17.7501591,51.5925926 28.7728526,64.9185185 43.5732768,68.6518519 C46.3677625,69.3777778 49.2657476,69.7925926 52.2154825,69.7925926 C71.4146341,69.7925926 86.9395546,54.1851852 86.9395546,35 C86.9395546,15.7111111 71.3628844,0.103703704 52.1637328,0.103703704 L52.1637328,0.103703704 Z" id="Shape" fill="#369647"></path>
                <path d="M69.499894,34.2740741 C69.2411453,18.3037037 58.2184517,4.97777778 43.4180276,1.24444444 C40.6235419,0.518518519 37.7255567,0.103703704 34.7758218,0.103703704 C15.5766702,0.103703704 0,15.7111111 0,34.9481481 C0,54.1851852 15.5766702,69.7407407 34.7240721,69.7407407 C37.7255567,69.7407407 40.5717922,69.3777778 43.3662778,68.6 C28.6693531,64.762963 17.6466596,51.5407407 17.3879109,35.5703704 L17.3879109,34.8962963 L17.3879109,34.2222222 C17.7501591,24.8888889 25.4091198,17.4222222 34.7240721,17.4222222 C37.8808059,17.4222222 40.8822906,18.2518519 43.3662778,19.7555556 C48.5930011,22.762963 52.0084836,28.362963 52.0084836,34.8962963 C52.0084836,41.4296296 48.4895016,46.9259259 43.3662778,50.037037 C45.9537646,51.437037 48.9552492,52.3703704 52.111983,52.3703704 C61.5304348,52.3703704 69.1376458,44.9037037 69.4481442,35.5703704 L69.4481442,34.8962963 C69.499894,34.7407407 69.499894,34.4814815 69.499894,34.2740741 L69.499894,34.2740741 Z" id="Shape" fill="#AEEA00"></path>
                <path d="M69.499894,34.2740741 C69.2411453,18.3037037 58.2184517,4.97777778 43.4180276,1.24444444 C40.6235419,0.518518519 37.7255567,0.103703704 34.7758218,0.103703704 C15.5766702,0.103703704 0,15.7111111 0,34.9481481 C0,54.1851852 15.5766702,69.7407407 34.7240721,69.7407407 C37.7255567,69.7407407 40.5717922,69.3777778 43.3662778,68.6 C28.6693531,64.762963 17.6466596,51.5407407 17.3879109,35.5703704 L17.3879109,34.8962963 L17.3879109,34.2222222 C17.7501591,24.8888889 25.4091198,17.4222222 34.7240721,17.4222222 C37.8808059,17.4222222 40.8822906,18.2518519 43.3662778,19.7555556 C48.5930011,22.762963 52.0084836,28.362963 52.0084836,34.8962963 C52.0084836,41.4296296 48.4895016,46.9259259 43.3662778,50.037037 C45.9537646,51.437037 48.9552492,52.3703704 52.111983,52.3703704 C61.5304348,52.3703704 69.1376458,44.9037037 69.4481442,35.5703704 L69.4481442,34.8962963 C69.499894,34.7407407 69.499894,34.4814815 69.499894,34.2740741 L69.499894,34.2740741 Z" id="Shape" opacity="0.15" fill="url(#linearGradient-1)"></path>
                <path d="M52.1637328,0.103703704 C49.1622481,0.103703704 46.3160127,0.466666667 43.521527,1.24444444 C58.3219512,5.08148148 69.3446448,18.4074074 69.6033934,34.2740741 L69.6033934,35.6222222 C69.2411453,44.9555556 61.478685,52.4222222 52.1637328,52.4222222 C49.0069989,52.4222222 46.0055143,51.5925926 43.521527,50.0888889 C38.2948038,47.0814815 34.8275716,41.4814815 34.8275716,34.9481481 C34.8275716,28.4148148 38.3465536,22.9185185 43.4697773,19.8074074 C40.9340403,18.3037037 37.9843054,17.4740741 34.8275716,17.4740741 C25.4091198,17.4740741 17.8019088,24.9407407 17.4914104,34.2740741 L17.4914104,35.6222222 C17.7501591,51.5925926 28.7728526,64.9185185 43.5732768,68.6518519 C46.3677625,69.3777778 49.2657476,69.7925926 52.2154825,69.7925926 C71.4146341,69.7925926 86.9395546,54.1851852 86.9395546,35 C86.9395546,15.7111111 71.3628844,0.103703704 52.1637328,0.103703704 L52.1637328,0.103703704 Z" id="Shape" opacity="0.15" fill="url(#linearGradient-2)"></path>
                <path d="M43.4180276,68.6518519 C28.7211029,64.8148148 17.6984093,51.5925926 17.4396607,35.6222222 L17.4396607,35.5185185 L17.4396607,35.7777778 C17.6466596,49.3111111 22.4593849,61.3407407 30.0148462,69.4814815 C31.619088,69.6888889 33.1715801,69.8444444 34.7758218,69.8444444 C37.7255567,69.7407407 40.7270414,69.3777778 43.4180276,68.6518519 L43.4180276,68.6518519 Z" id="Shape" opacity="0.4" fill="url(#linearGradient-3)"></path>
                <path d="M17.5949099,34.3777778 C20.2858961,25.4074074 29.6008484,20.1703704 38.7605514,22.7111111 C39.0193001,22.8148148 39.433298,22.9185185 39.6920467,22.9703704 C40.8305408,21.7777778 42.1242842,20.7407407 43.521527,19.9111111 C40.98579,18.4074074 38.0360551,17.5777778 34.8793213,17.5777778 C25.4608696,17.5777778 17.8536585,25.0444444 17.5431601,34.3777778 L17.5431601,34.9481481 C17.4396607,34.7407407 17.4914104,34.5333333 17.5949099,34.3777778 L17.5949099,34.3777778 Z" id="Shape" opacity="0.25" fill="url(#linearGradient-4)"></path>
            </g>
        </g>
    </g>
</svg>