<?xml version="1.0" encoding="UTF-8" standalone="no"?>
<svg width="331px" height="42px" viewBox="0 0 331 42" version="1.1" xmlns="http://www.w3.org/2000/svg" xmlns:xlink="http://www.w3.org/1999/xlink" xmlns:sketch="http://www.bohemiancoding.com/sketch/ns">
    <!-- Generator: Sketch 3.4.4 (17249) - http://www.bohemiancoding.com/sketch -->
    <title>the-trade-desk</title>
    <desc>Created with Sketch.</desc>
    <defs></defs>
    <g id="Page-1" stroke="none" stroke-width="1" fill="none" fill-rule="evenodd" sketch:type="MSPage">
        <g id="the-trade-desk" sketch:type="MSLayerGroup">
            <g id="Layer_1" sketch:type="MSShapeGroup">
                <g id="Group">
                    <g id="Shape">
                        <g transform="translate(48.916256, 1.615385)" fill="#000000">
                            <path d="M12.3112433,34.9268769 C7.33450345,34.9268769 4.86928719,32.1120692 4.86928719,27.4155 L4.86928719,15.0162923 L0.365567488,15.0162923 L0.365567488,10.1766 L4.86928719,10.1766 L4.86928719,3.98030769 L10.7959808,2.52323077 L10.7959808,10.1766 L17.007367,10.1766 L17.007367,15.0162923 L10.7958177,15.0162923 L10.7958177,26.8959923 C10.7958177,28.7767846 11.6490803,29.5757538 13.5436069,29.5757538 C14.7766227,29.5757538 15.773699,29.5282615 17.3863049,29.3391 L17.3863049,34.2723231 C15.7260872,34.6932923 14.0673369,34.9268769 12.3112433,34.9268769"></path>
                            <path d="M35.1127409,34.6005692 L35.1127409,19.5241846 C35.1127409,16.7076 34.1663744,14.9696077 31.0385059,14.9696077 C27.4780547,14.9696077 25.9645857,18.7260231 25.9645857,21.7317692 L25.9645857,34.6005692 L20.0390335,34.6005692 L20.0390335,0.694130769 L25.9645857,0.694130769 L25.9645857,12.7608923 C27.3883749,10.6943308 30.1356749,9.56711538 32.693832,9.56711538 C37.9575473,9.56711538 41.0407389,13.2774923 41.0407389,18.3053769 L41.0407389,34.6005692 L35.1127409,34.6005692 L35.1127409,34.6005692 Z"></path>
                            <path d="M66.4928453,24.2212385 L49.9976315,24.2212385 C49.9516502,26.0984769 50.612835,27.8839615 51.79563,29.0100462 C52.6472621,29.8090154 53.8351118,30.5155846 55.4477177,30.5155846 C57.1535906,30.5155846 58.195833,30.1857231 59.053335,29.3384538 C59.5700537,28.8225 59.9988862,28.1663308 60.2356409,27.2725385 L65.9224818,27.2725385 C65.7804616,28.7307462 64.7864833,30.6574154 63.8366926,31.7830154 C61.7557951,34.2235385 58.6704837,35.2095692 55.5450611,35.2095692 C52.1784813,35.2095692 49.7095148,34.0369615 47.7681916,32.2031769 C45.3041167,29.8563462 43.9757143,26.4276923 43.9757143,22.4383385 C43.9757143,18.5365385 45.160466,15.0645923 47.5317631,12.6657462 C49.3803084,10.7901231 52.0332,9.56776154 55.3989645,9.56776154 C59.053335,9.56776154 62.3687158,11.0241923 64.4042842,14.0754923 C66.2079897,16.7528308 66.6340502,19.5240231 66.5404571,22.5771 C66.5406202,22.5771 66.4928453,23.7069 66.4928453,24.2212385 M59.0988271,15.6753692 C58.2917089,14.8282615 57.05853,14.2641692 55.3505374,14.2641692 C53.5496039,14.2641692 52.0837468,15.0156462 51.2257557,16.1444769 C50.3780369,17.2232308 49.9974685,18.3515769 49.9513241,19.9462846 L60.615231,19.9462846 C60.5702281,18.1165385 60.0458458,16.7067923 59.0988271,15.6753692"></path>
                        </g>
                        <path d="M127.876062,8.55249231 L127.876062,36.2154692 L121.761856,36.2154692 L121.761856,8.55249231 L111.807561,8.55249231 L111.807561,2.91754615 L137.829867,2.91754615 L137.829867,8.55249231 L127.876062,8.55249231 Z" fill="#000000"></path>
                        <g transform="translate(135.334975, 1.615385)" fill="#000000">
                            <path d="M12.632134,15.3909 C8.46446897,15.3909 6.28149951,18.3507692 6.28149951,22.2961846 L6.28149951,34.6005692 L0.312411823,34.6005692 L0.312411823,10.1770846 L5.335133,10.1770846 L5.85560197,13.8422308 C6.99241576,11.0248385 9.93032611,9.85158462 12.8243749,9.85158462 C13.4399044,9.85158462 14.0578798,9.89843077 14.6730833,9.99131538 L14.6730833,15.6265846 C14.0094527,15.4852385 13.2985365,15.3909 12.632134,15.3909"></path>
                            <path d="M34.7222261,34.9753385 C32.1635798,34.9753385 30.7422365,33.3780462 30.5511369,31.5487846 C29.4133448,33.5193923 26.5690276,35.2098923 23.0614059,35.2098923 C17.1857483,35.2098923 14.1493532,31.5487846 14.1493532,27.5552308 C14.1493532,22.9059923 17.8002995,20.2309154 22.4918576,19.9026692 L29.7482581,19.3817077 L29.7482581,17.8813385 C29.7482581,15.5786077 28.9382049,14.0320385 25.5734187,14.0320385 C22.823836,14.0320385 21.2128606,15.2508462 21.0705143,17.5052769 L15.3354094,17.5052769 C15.6647788,12.0065077 20.073764,9.56808462 25.5735818,9.56808462 C29.7947286,9.56808462 33.3970847,10.8839769 34.8174498,14.5462154 C35.4328163,16.0971462 35.5301596,17.8346538 35.5301596,19.4776615 L35.5301596,28.5415846 C35.5301596,29.6683154 35.9084453,30.0925154 36.9056847,30.0925154 C37.2823399,30.0925154 37.6632345,29.9972077 37.6632345,29.9972077 L37.6632345,34.3165846 C36.6664842,34.7422385 36.1461783,34.9753385 34.7222261,34.9753385 L34.7222261,34.9753385 Z M29.7484212,23.7501923 L23.4876296,24.2212385 C21.68637,24.3619385 19.9338635,25.4437615 19.9338635,27.4153385 C19.9338635,29.2930615 21.5919616,30.4666385 23.4400177,30.4666385 C27.1393911,30.4666385 29.7484212,28.4950615 29.7484212,24.8783769 L29.7484212,23.7501923 L29.7484212,23.7501923 Z"></path>
                            <path d="M56.4330542,34.6005692 L56.0559099,31.9243615 C54.5835305,34.1783077 51.8344369,35.1638538 49.1337704,35.1638538 C46.6672498,35.1638538 44.6303768,34.3144846 43.1138099,33.0995538 C40.1723123,30.7028077 38.7514581,27.0391154 38.7514581,22.4383385 C38.7514581,17.6453308 40.2202502,13.9373769 43.1591389,11.5393385 C44.6761951,10.3205308 46.6672498,9.56776154 49.1812192,9.56776154 C52.3107182,9.56776154 54.5836936,10.6014462 55.6283818,11.8675846 L55.6283818,0.693323077 L61.5511621,0.693323077 L61.5511621,34.6005692 L56.4330542,34.6005692 L56.4330542,34.6005692 Z M50.3198266,14.5013077 C48.4724227,14.5013077 47.1883709,15.3432462 46.3377172,16.4247462 C45.1042123,18.0223615 44.7743537,20.2309154 44.7743537,22.3462615 C44.7743537,24.4554692 45.1042123,26.7089308 46.3377172,28.3062231 C47.1883709,29.3844923 48.4724227,30.2314385 50.3198266,30.2314385 C54.9637729,30.2314385 55.9132374,25.8626308 55.9132374,22.3462615 C55.9132374,18.8182615 54.9637729,14.5013077 50.3198266,14.5013077 L50.3198266,14.5013077 Z"></path>
                            <path d="M87.3874241,24.2212385 L70.891232,24.2212385 C70.8439463,26.0984769 71.5077399,27.8839615 72.6929808,29.0100462 C73.542167,29.8090154 74.7298537,30.5155846 76.340666,30.5155846 C78.0486586,30.5155846 79.0897596,30.1857231 79.9449788,29.3384538 C80.4647956,28.8225 80.8929759,28.1663308 81.1271217,27.2725385 L86.8188542,27.2725385 C86.6747143,28.7307462 85.6784532,30.6574154 84.7342064,31.7830154 C82.6479281,34.2235385 79.5668562,35.2095692 76.4358897,35.2095692 C73.0717557,35.2095692 70.6062133,34.0369615 68.6621182,32.2031769 C66.1965759,29.8563462 64.8709453,26.4276923 64.8709453,22.4383385 C64.8709453,18.5365385 66.0535773,15.0645923 68.4265049,12.6657462 C70.2750502,10.7901231 72.9279419,9.56776154 76.2935433,9.56776154 C79.9453049,9.56776154 83.2636207,11.0241923 85.3009828,14.0754923 C87.1025685,16.7528308 87.5271616,19.5240231 87.4340576,22.5771 C87.4337315,22.5771 87.3874241,23.7069 87.3874241,24.2212385 M79.9934059,15.6753692 C79.1864507,14.8282615 77.9539241,14.2641692 76.2449532,14.2641692 C74.4453241,14.2641692 72.9766951,15.0156462 72.1244108,16.1444769 C71.2690286,17.2232308 70.8913951,18.3515769 70.8441094,19.9462846 L81.5080163,19.9462846 C81.4600783,18.1165385 80.9392833,16.7067923 79.9934059,15.6753692"></path>
                            <path d="M113.362771,31.0307308 C111.134473,33.3336231 107.769361,34.5991154 103.928293,34.5991154 L90.8471079,34.5991154 L90.8471079,1.30361538 L103.928293,1.30361538 C107.769361,1.30361538 111.134473,2.56910769 113.362771,4.872 C116.820988,8.39450769 117.297595,13.3270846 117.297595,17.9299615 C117.297595,22.5321923 116.821151,27.5067692 113.362771,31.0307308 M108.669094,8.62841538 C107.533258,7.50200769 105.872714,6.74923846 103.928456,6.74923846 L96.9614768,6.74923846 L96.9614768,29.1513923 L103.928456,29.1513923 C105.872714,29.1513923 107.533421,28.4013692 108.669094,27.2725385 C111.039412,24.9242538 111.086209,20.9811 111.086209,17.9298 C111.086209,14.8736538 111.039412,10.9752462 108.669094,8.62841538"></path>
                            <path d="M141.470378,24.2212385 L124.973697,24.2212385 C124.925759,26.0984769 125.588737,27.8839615 126.777402,29.0100462 C127.630176,29.8090154 128.811667,30.5155846 130.426066,30.5155846 C132.132591,30.5155846 133.17516,30.1857231 134.0294,29.3384538 C134.551174,28.8225 134.974789,28.1663308 135.214478,27.2725385 L140.900993,27.2725385 C140.760114,28.7307462 139.76369,30.6574154 138.814226,31.7830154 C136.730556,34.2235385 133.648506,35.2095692 130.519007,35.2095692 C127.151775,35.2095692 124.68982,34.0369615 122.742464,32.2031769 C120.27953,29.8563462 118.952758,26.4276923 118.952758,22.4383385 C118.952758,18.5365385 120.138977,15.0645923 122.506687,12.6657462 C124.355722,10.7901231 127.01269,9.56776154 130.376661,9.56776154 C134.028911,9.56776154 137.345107,11.0241923 139.385078,14.0754923 C141.184707,16.7528308 141.612888,19.5240231 141.517664,22.5771 C141.518153,22.5771 141.470378,23.7069 141.470378,24.2212385 M134.077338,15.6753692 C133.269894,14.8282615 132.0359,14.2641692 130.332473,14.2641692 C128.530724,14.2641692 127.058508,15.0156462 126.206224,16.1444769 C125.352961,17.2232308 124.973697,18.3515769 124.925922,19.9462846 L135.591949,19.9462846 C135.546131,18.1165385 135.022727,16.7067923 134.077338,15.6753692"></path>
                        </g>
                        <path d="M302.35513,2.30951538 L302.35513,36.2159538 L308.27954,36.2159538 L308.27954,29.7828462 L312.213712,25.5573231 L319.133895,36.2159538 L326.007118,36.2159538 L316.24327,21.2358462 L325.060262,11.7919846 L317.619284,11.7919846 L308.27954,21.7044692 L308.27954,2.30951538 L302.35513,2.30951538 Z" fill="#000000"></path>
                        <path d="M292.447794,21.7498615 C290.02807,21.3750923 289.411562,21.3288923 287.184731,21.0437769 C285.856002,20.8572 284.340903,20.3414077 284.340903,18.6063231 C284.340903,17.3343692 285.195633,16.4438077 286.237386,16.0181538 C287.139565,15.6472615 287.9444,15.6472615 288.794565,15.6472615 C290.02807,15.6472615 291.311633,16.0679077 292.019125,16.7736692 C292.589814,17.3844462 293.015875,18.1364077 293.015875,19.0743 L298.654126,19.0743 C298.654126,17.2909154 297.806081,15.4577769 296.475722,14.0457692 C294.675603,12.1226538 291.688125,11.1825 288.748747,11.1825 C285.668816,11.1825 283.061091,12.0772615 281.260483,13.6215692 C279.790713,14.8943308 278.750264,16.6311923 278.750264,19.1219538 C278.750264,22.2199385 281.023239,24.9444462 284.390961,25.6502077 C286.568875,26.1193154 289.032298,26.2595308 291.213311,26.5882615 C292.734606,26.8242692 293.680973,27.7650692 293.680973,29.1696462 C293.680973,31.8458538 290.646208,32.2729615 288.654665,32.2729615 C286.94977,32.2729615 285.856166,31.9385769 284.911756,31.1911385 C284.27617,30.6813231 283.798585,29.7763846 283.64727,28.8641769 L278.069839,28.8641769 C278.240231,30.9376846 279.332694,32.7527308 280.643975,34.0078846 C282.682479,35.9298692 285.478858,36.8251154 288.609825,36.8251154 C291.974937,36.8251154 295.054378,35.9833385 297.045433,34.0078846 C298.324756,32.7409385 299.17916,30.9998769 299.17916,28.6546615 C299.178997,24.8032615 296.337289,22.3611231 292.447794,21.7498615" fill="#000000"></path>
                        <path d="M9.71346404,0.751476923 L9.71346404,7.06149231 L16.2274788,7.06149231 L16.2274788,23.5296923 L22.4970754,23.5296923 L22.4970754,6.96279231 L22.4970754,0.751476923 L9.71346404,0.751476923 Z" fill="#009BDF"></path>
                        <g transform="translate(0.000000, 3.230769)" fill="#009BDF">
                            <path d="M6.27220542,18.8340923 C6.27220542,13.9218692 9.02749507,9.6474 13.0904793,7.4466 L13.0904793,7.44595385 L3.78725961,7.44595385 C1.40797291,10.6306846 0,14.5678615 0,18.8340923 C0,27.2988692 5.53503744,34.4810308 13.2134222,37.0275231 L13.2134222,30.2858769 C9.08358571,28.1034923 6.27220542,23.7954231 6.27220542,18.8340923"></path>
                            <path d="M25.6355424,0.684923077 L25.6355424,7.44530769 C29.6993419,9.64723846 32.4578926,13.9210615 32.4578926,18.8350615 C32.4578926,25.9962231 26.5938118,31.8043385 19.3631739,31.8043385 C18.2847335,31.8043385 17.2369473,31.6743 16.2344901,31.4311846 L16.2344901,37.7673692 C17.2537419,37.9300385 18.2976148,38.0177538 19.3631739,38.0177538 C30.0567567,38.0177538 38.7268369,29.4290769 38.7268369,18.8352231 C38.7266739,10.4143846 33.2506621,3.26679231 25.6355424,0.684923077"></path>
                        </g>
                    </g>
                    <path d="M328.71822,13.2645692 C327.410036,13.2645692 326.436439,12.2502692 326.436439,10.9666846 C326.436439,9.6831 327.410036,8.6625 328.71822,8.6625 C330.026403,8.6625 331,9.67696154 331,10.9603846 C331,12.2441308 330.026403,13.2645692 328.71822,13.2645692 L328.71822,13.2645692 Z M328.71822,9.06327692 C327.599505,9.06327692 326.86038,9.87080769 326.86038,10.9666846 C326.86038,12.0624 327.599342,12.8637923 328.71822,12.8637923 C329.837098,12.8637923 330.576548,12.0562615 330.576548,10.9603846 C330.576385,9.86483077 329.836934,9.06327692 328.71822,9.06327692 L328.71822,9.06327692 Z M329.23021,12.1250769 L328.825672,11.2422692 L328.351674,11.2422692 L328.351674,12.1250769 L327.928059,12.1250769 L327.928059,9.7272 L328.818824,9.7272 C329.280431,9.7272 329.678772,9.99002308 329.678772,10.4785154 C329.678772,10.7915769 329.539361,11.0421231 329.242928,11.1734538 L329.691653,12.1252385 L329.23021,12.1252385 L329.23021,12.1250769 Z M328.818987,10.1150538 L328.345478,10.1150538 L328.345478,10.8540923 L328.818987,10.8540923 C329.07221,10.8540923 329.236406,10.7413385 329.236406,10.4783538 C329.236406,10.2341077 329.046937,10.1150538 328.818987,10.1150538 L328.818987,10.1150538 Z" id="Shape" fill="#231F20"></path>
                </g>
            </g>
        </g>
    </g>
</svg>